<svg width="97" height="96" viewBox="0 0 97 96" fill="none" xmlns="http://www.w3.org/2000/svg">
<g filter="url(#filter0_d_246_3838)">
<path d="M8.66699 24C8.66699 15.1634 15.8304 8 24.667 8H72.667C81.5035 8 88.667 15.1634 88.667 24V72C88.667 80.8366 81.5035 88 72.667 88H24.667C15.8304 88 8.66699 80.8366 8.66699 72V24Z" fill="#5895A6" shape-rendering="crispEdges"/>
<path d="M50.587 40H42.0537C41.707 40 41.3737 40.0133 41.0537 40.0533C37.467 40.36 35.667 42.48 35.667 46.3867V51.72C35.667 57.0533 37.8003 58.1067 42.0537 58.1067H42.587C42.8803 58.1067 43.267 58.3067 43.4403 58.5333L45.0403 60.6667C45.747 61.6133 46.8937 61.6133 47.6003 60.6667L49.2003 58.5333C49.4003 58.2667 49.7203 58.1067 50.0537 58.1067H50.587C54.4937 58.1067 56.6137 56.32 56.9203 52.72C56.9603 52.4 56.9737 52.0667 56.9737 51.72V46.3867C56.9737 42.1333 54.8403 40 50.587 40ZM41.667 50.6667C40.9203 50.6667 40.3337 50.0667 40.3337 49.3333C40.3337 48.6 40.9337 48 41.667 48C42.4003 48 43.0003 48.6 43.0003 49.3333C43.0003 50.0667 42.4003 50.6667 41.667 50.6667ZM46.3203 50.6667C45.5737 50.6667 44.987 50.0667 44.987 49.3333C44.987 48.6 45.587 48 46.3203 48C47.0537 48 47.6537 48.6 47.6537 49.3333C47.6537 50.0667 47.067 50.6667 46.3203 50.6667ZM50.987 50.6667C50.2403 50.6667 49.6537 50.0667 49.6537 49.3333C49.6537 48.6 50.2537 48 50.987 48C51.7203 48 52.3203 48.6 52.3203 49.3333C52.3203 50.0667 51.7203 50.6667 50.987 50.6667Z" fill="white"/>
<path d="M62.3063 41.0533V46.3867C62.3063 49.0533 61.4797 50.8667 59.8263 51.8667C59.4263 52.1067 58.9597 51.7867 58.9597 51.32L58.973 46.3867C58.973 41.0533 55.9197 38 50.5863 38L42.4663 38.0133C41.9997 38.0133 41.6797 37.5467 41.9197 37.1467C42.9197 35.4933 44.733 34.6667 47.3863 34.6667H55.9197C60.173 34.6667 62.3063 36.8 62.3063 41.0533Z" fill="white"/>
</g>
<defs>
<filter id="filter0_d_246_3838" x="0.666992" y="0" width="96" height="96" filterUnits="userSpaceOnUse" color-interpolation-filters="sRGB">
<feFlood flood-opacity="0" result="BackgroundImageFix"/>
<feColorMatrix in="SourceAlpha" type="matrix" values="0 0 0 0 0 0 0 0 0 0 0 0 0 0 0 0 0 0 127 0" result="hardAlpha"/>
<feOffset/>
<feGaussianBlur stdDeviation="4"/>
<feComposite in2="hardAlpha" operator="out"/>
<feColorMatrix type="matrix" values="0 0 0 0 1 0 0 0 0 1 0 0 0 0 1 0 0 0 0.16 0"/>
<feBlend mode="normal" in2="BackgroundImageFix" result="effect1_dropShadow_246_3838"/>
<feBlend mode="normal" in="SourceGraphic" in2="effect1_dropShadow_246_3838" result="shape"/>
</filter>
</defs>
</svg>
