<svg width="81" height="80" viewBox="0 0 81 80" fill="none" xmlns="http://www.w3.org/2000/svg">
<rect x="0.333008" width="80" height="80" rx="16" fill="#F6F9FB"/>
<path d="M43.1333 26.6667H36.8667C35.48 26.6667 34.3467 27.7867 34.3467 29.1733V30.4267C34.3467 31.8133 35.4667 32.9333 36.8533 32.9333H43.1333C44.52 32.9333 45.64 31.8133 45.64 30.4267V29.1733C45.6533 27.7867 44.52 26.6667 43.1333 26.6667Z" fill="#5895A6"/>
<path d="M46.9867 30.4267C46.9867 32.5467 45.2534 34.28 43.1334 34.28H36.8667C34.7467 34.28 33.0134 32.5467 33.0134 30.4267C33.0134 29.68 32.2134 29.2133 31.5467 29.56C29.6667 30.56 28.3867 32.5467 28.3867 34.8267V47.3733C28.3867 50.6533 31.0667 53.3333 34.3467 53.3333H45.6534C48.9334 53.3333 51.6134 50.6533 51.6134 47.3733V34.8267C51.6134 32.5467 50.3334 30.56 48.4534 29.56C47.7867 29.2133 46.9867 29.68 46.9867 30.4267ZM44.4534 40.9733L39.1201 46.3067C38.9201 46.5067 38.6667 46.6 38.4134 46.6C38.1601 46.6 37.9067 46.5067 37.7067 46.3067L35.7067 44.3067C35.3201 43.92 35.3201 43.28 35.7067 42.8933C36.0934 42.5067 36.7334 42.5067 37.1201 42.8933L38.4134 44.1867L43.0401 39.56C43.4267 39.1733 44.0667 39.1733 44.4534 39.56C44.8401 39.9467 44.8401 40.5867 44.4534 40.9733Z" fill="#5895A6"/>
</svg>
