<svg width="20" height="20" viewBox="0 0 20 20" fill="none" xmlns="http://www.w3.org/2000/svg">
<path d="M18.3334 17.7083H1.66675C1.32508 17.7083 1.04175 17.9916 1.04175 18.3333C1.04175 18.675 1.32508 18.9583 1.66675 18.9583H18.3334C18.6751 18.9583 18.9584 18.675 18.9584 18.3333C18.9584 17.9916 18.6751 17.7083 18.3334 17.7083Z" fill="#5895A6"/>
<path d="M14.1667 1.66669L5.83333 1.66669C3.33333 1.66669 2.5 3.15835 2.5 5.00002L2.5 18.3334H7.5V13.2834C7.5 12.85 7.85 12.5 8.28333 12.5H11.725C12.15 12.5 12.5083 12.85 12.5083 13.2834L12.5083 18.3334H17.5083V5.00002C17.5 3.15835 16.6667 1.66669 14.1667 1.66669ZM12.0833 7.70835H10.625V9.16669C10.625 9.50835 10.3417 9.79169 10 9.79169C9.65833 9.79169 9.375 9.50835 9.375 9.16669V7.70835H7.91667C7.575 7.70835 7.29167 7.42502 7.29167 7.08335C7.29167 6.74169 7.575 6.45835 7.91667 6.45835H9.375V5.00002C9.375 4.65835 9.65833 4.37502 10 4.37502C10.3417 4.37502 10.625 4.65835 10.625 5.00002V6.45835H12.0833C12.425 6.45835 12.7083 6.74169 12.7083 7.08335C12.7083 7.42502 12.425 7.70835 12.0833 7.70835Z" fill="#5895A6"/>
</svg>
