<svg width="20" height="20" viewBox="0 0 20 20" fill="none" xmlns="http://www.w3.org/2000/svg">
<path d="M18.3334 17.7084H1.66675C1.32508 17.7084 1.04175 17.9917 1.04175 18.3334C1.04175 18.675 1.32508 18.9584 1.66675 18.9584H18.3334C18.6751 18.9584 18.9584 18.675 18.9584 18.3334C18.9584 17.9917 18.6751 17.7084 18.3334 17.7084Z" fill="#232323"/>
<path d="M14.1667 1.66663L5.83333 1.66663C3.33333 1.66663 2.5 3.15829 2.5 4.99996L2.5 18.3333H7.5V13.2833C7.5 12.85 7.85 12.5 8.28333 12.5H11.725C12.15 12.5 12.5083 12.85 12.5083 13.2833L12.5083 18.3333H17.5083V4.99996C17.5 3.15829 16.6667 1.66663 14.1667 1.66663ZM12.0833 7.70829H10.625V9.16663C10.625 9.50829 10.3417 9.79163 10 9.79163C9.65833 9.79163 9.375 9.50829 9.375 9.16663V7.70829H7.91667C7.575 7.70829 7.29167 7.42496 7.29167 7.08329C7.29167 6.74163 7.575 6.45829 7.91667 6.45829H9.375V4.99996C9.375 4.65829 9.65833 4.37496 10 4.37496C10.3417 4.37496 10.625 4.65829 10.625 4.99996V6.45829H12.0833C12.425 6.45829 12.7083 6.74163 12.7083 7.08329C12.7083 7.42496 12.425 7.70829 12.0833 7.70829Z" fill="#232323"/>
</svg>
