<svg width="400" height="123" viewBox="0 0 400 123" fill="none" xmlns="http://www.w3.org/2000/svg">
<path d="M215.053 54.2783C220.219 54.2783 224.407 50.0903 224.407 44.9241C224.407 39.7578 220.219 35.5698 215.053 35.5698C209.887 35.5698 205.699 39.7578 205.699 44.9241C205.699 50.0903 209.887 54.2783 215.053 54.2783Z" fill="white"/>
<path d="M220.843 9C206.935 9 195.664 20.2718 195.664 34.1795C195.664 48.0872 206.935 59.359 220.843 59.359C234.751 59.359 246.023 48.0872 246.023 34.1795C246.023 20.2718 234.751 9 220.843 9ZM216.252 55.2954C209.123 55.2954 203.338 49.5149 203.338 42.3814C203.338 35.2479 209.119 29.4674 216.252 29.4674C223.386 29.4674 229.166 35.2479 229.166 42.3814C229.166 49.5149 223.386 55.2954 216.252 55.2954Z" fill="white"/>
<path d="M5.00467 113.483V68.8394H52.9003V79.0847H14.6715V113.488H5L5.00467 113.483ZM52.905 96.2816H26.5544C23.8951 96.2816 21.721 93.9769 21.721 91.1589C21.721 88.341 23.8951 86.0362 26.5544 86.0362H52.905V96.2816Z" fill="white"/>
<path d="M59.0867 113.483V68.8392H106.982V79.0846H68.7535V103.242H106.982V113.488H59.082L59.0867 113.483ZM106.987 96.2815H80.6365C77.9772 96.2815 75.8031 93.9767 75.8031 91.1588C75.8031 88.3409 77.9772 86.0361 80.6365 86.0361H106.987V96.2815Z" fill="white"/>
<path d="M115.324 68.8392H149.391C156.516 68.8392 162.347 75.0163 162.347 82.5603C162.347 89.5445 157.355 95.353 150.964 96.1788L162.347 113.483H150.558L139.239 96.2815H135.521C132.862 96.2815 130.688 93.9767 130.688 91.1588C130.688 88.3409 132.866 86.0361 135.521 86.0361H149.387C151.192 86.0361 152.671 84.4685 152.671 82.5557C152.671 80.6428 151.192 79.0753 149.387 79.0753H124.114V113.478H114.442V68.8346H115.319L115.324 68.8392Z" fill="white"/>
<path d="M212.538 68.8392V79.0846H193.424V113.488H183.753V112.559V79.0846H164.638V68.8392H212.534H212.538Z" fill="white"/>
<path d="M217.745 68.8392H225.677H226.54V113.483H216.868V68.8392H217.745Z" fill="white"/>
<path d="M259.319 95.5677C270.418 78.6973 261.89 91.6627 276.908 68.8392H288.693L259.319 113.483L229.945 68.8392H241.735L259.319 95.5677Z" fill="white"/>
<path d="M291.683 68.8392H301.355V100.065C301.355 101.815 302.703 103.242 304.354 103.242H326.912C328.564 103.242 329.912 101.815 329.912 100.065V68.8392H339.583V100.224C339.583 107.516 333.948 113.483 327.061 113.483H304.205C297.319 113.483 291.683 107.516 291.683 100.224V68.8392Z" fill="white"/>
<path d="M347.104 113.483V68.8392H395V79.0846H356.771V103.242H395V113.488H347.1L347.104 113.483ZM395 96.2815H368.649C365.99 96.2815 363.816 93.9767 363.816 91.1588C363.816 88.3409 365.99 86.0361 368.649 86.0361H395V96.2815Z" fill="white"/>
</svg>
