<svg width="91" height="91" viewBox="0 0 91 91" fill="none" xmlns="http://www.w3.org/2000/svg">
<path d="M34.0929 81.9445C33.5829 81.9445 33.0692 81.7495 32.6791 81.3595L9.83498 58.523C9.05501 57.7431 9.05501 56.4756 9.83498 55.6957C10.6149 54.9157 11.8824 54.9157 12.6623 55.6957L35.5065 78.5321C36.2865 79.3121 36.2865 80.5795 35.5065 81.3595C35.1165 81.7495 34.6066 81.9445 34.0929 81.9445ZM57.8183 81.3595L80.6624 58.523C81.4424 57.7431 81.4424 56.4756 80.6624 55.6957C79.8824 54.9157 78.615 54.9157 77.835 55.6957L54.9909 78.5321C54.2109 79.3121 54.2109 80.5795 54.9909 81.3595C55.3809 81.7495 55.8946 81.9445 56.4046 81.9445C56.9146 81.9445 57.4282 81.7495 57.8183 81.3595ZM52.336 75.6598L79.3541 48.5188C79.8453 48.0238 80.3178 47.5138 80.7678 46.9927C81.4878 46.1527 81.3903 44.8928 80.5503 44.1728C79.7141 43.4566 78.4542 43.5503 77.7304 44.3903C77.348 44.8365 76.9467 45.2677 76.523 45.6915L49.5021 72.8401C47.2371 75.1163 43.2661 75.1163 40.9974 72.8401L13.9765 45.6915C13.5565 45.2715 13.1515 44.8366 12.769 44.3903C12.0491 43.5503 10.7854 43.4528 9.94915 44.1765C9.11294 44.8965 9.01544 46.1602 9.73541 46.9964C10.1854 47.5177 10.6541 48.0276 11.1454 48.5188L38.1663 75.6636C40.0563 77.5648 42.5724 78.6072 45.2535 78.6072C47.9272 78.6035 50.4462 77.561 52.336 75.6598ZM49.4449 66.6377L71.1227 45.436L73.6951 42.8599C77.4488 39.1062 79.5036 33.909 79.3311 28.5997C79.1586 23.2186 76.8225 18.2878 72.7614 14.7177C65.1529 8.03926 53.4086 8.61293 46.0102 16.0114L45.249 16.7764L44.4877 16.0152C37.0856 8.61303 25.3375 8.04675 17.7366 14.7214C13.6717 18.2913 11.3393 23.2224 11.1668 28.6034C10.9943 33.9131 13.0492 39.1102 16.8028 42.8636L41.0533 66.638C42.2082 67.7704 43.727 68.3366 45.2494 68.3366C46.768 68.3366 48.2862 67.7701 49.4449 66.6377Z" fill="#35C2AF"/>
<path d="M36.25 38.5625H54.25" stroke="white" stroke-width="3.9" stroke-linecap="round" stroke-linejoin="round"/>
<path d="M45.25 47.5625V29.5625" stroke="white" stroke-width="3.9" stroke-linecap="round" stroke-linejoin="round"/>
</svg>
