<svg width="91" height="94" viewBox="0 0 91 94" fill="none" xmlns="http://www.w3.org/2000/svg">
<path d="M33.6148 79.0544H39.662C39.8756 79.0544 40.0485 79.2287 40.0485 79.4409V81.7514C40.0485 81.9635 39.8756 82.1379 39.662 82.1379H33.6148C33.0423 83.2961 31.8479 84.0982 30.4734 84.0982H12.2517C10.325 84.0982 8.75 82.523 8.75 80.5961C8.75 78.6707 10.325 77.0941 12.2517 77.0941H30.4734C31.8479 77.0941 33.0423 77.8962 33.6148 79.0544ZM73.3812 89.8904L64.4323 69.622C59.4515 58.3384 42.0827 60.9526 42.0827 74.9594V89.8904H36.5628C35.553 89.8904 34.7263 90.7173 34.7263 91.7272C34.7263 92.7371 35.553 93.5625 36.5628 93.5625H74.3184C75.3282 93.5625 76.1549 92.7371 76.1549 91.7272C76.1549 90.7173 75.3282 89.8904 74.3184 89.8904H73.3812ZM57.5075 73.4598C57.5075 75.5625 55.8031 77.267 53.6992 77.267C51.5968 77.267 49.8924 75.5625 49.8924 73.4598C49.8924 71.3571 51.5968 69.6525 53.6992 69.6525C55.8031 69.6525 57.5075 71.3571 57.5075 73.4598ZM54.6872 29.1172L54.6742 29.1216L54.6611 29.1259L54.6495 29.1303L54.6364 29.1332L54.6233 29.1376L54.6117 29.1419L54.5986 29.1463L54.5855 29.1507L54.5739 29.155L54.5608 29.1579L54.5478 29.1623L54.4853 29.1841L54.4722 29.1884L54.4606 29.1928L54.4475 29.1972L54.4359 29.2015L54.4228 29.2059L54.4097 29.2102L54.3981 29.2146L54.2978 29.2509L54.2862 29.2553L54.2615 29.2655L54.2484 29.2698L54.2368 29.2742L54.2237 29.28C54.1119 29.3221 54.0029 29.3657 53.8954 29.4151V29.4137C51.1231 30.6256 49.1848 33.3924 49.1848 36.614C49.1848 39.0741 50.3167 41.2698 52.0864 42.7099L36.0834 58.6581L36.4408 59.017C37.0539 59.6317 37.0525 60.6344 36.4379 61.2461L35.2886 62.3927C34.674 63.0059 33.67 63.003 33.0583 62.3883L19.3756 48.6576C18.7624 48.0429 18.7654 47.0388 19.3785 46.427L20.5293 45.282C21.1424 44.6687 22.1464 44.6702 22.7596 45.2849L23.1156 45.6438L54.85 14.0148C55.3905 13.4771 56.2724 13.48 56.81 14.0191L67.8221 25.0717C68.3612 25.6108 68.3583 26.4929 67.8192 27.0305L63.1508 31.682C61.7109 29.899 59.5097 28.7583 57.0396 28.7583C56.2201 28.7583 55.4297 28.8847 54.6872 29.1172ZM69.7154 7.06439L74.8211 12.1882C75.241 12.6096 75.2396 13.2984 74.8182 13.7183L68.5007 20.0148C68.0793 20.4347 67.3921 20.4333 66.9721 20.0119L61.8664 14.8881C61.4465 14.4667 61.4479 13.7779 61.8693 13.3594L68.1868 7.06148C68.6082 6.64153 69.2954 6.64298 69.7154 7.06439ZM72.5312 0.692375L81.2026 9.39523C81.3755 9.5667 81.3755 9.84861 81.2026 10.0201L79.1045 12.1111C78.9316 12.2841 78.6497 12.2826 78.4782 12.1111L69.8069 3.40829C69.6354 3.23537 69.6354 2.95346 69.8069 2.78199L71.9064 0.690922C72.0779 0.519451 72.3598 0.519451 72.5312 0.692375ZM57.0396 41.9673C59.995 41.9673 62.3924 39.5711 62.3924 36.614C62.3924 33.6568 59.995 31.2606 57.0396 31.2606C54.0828 31.2606 51.6869 33.6568 51.6869 36.614C51.6869 39.5711 54.0828 41.9673 57.0396 41.9673ZM56.9713 34.568C58.1511 34.568 59.1072 35.5241 59.1072 36.7055C59.1072 37.884 58.1511 38.8416 56.9713 38.8416C55.7915 38.8416 54.8354 37.884 54.8354 36.7055C54.8354 35.5241 55.7915 34.568 56.9713 34.568ZM64.6605 38.5205C68.4266 43.9233 70.6351 50.4915 70.6351 57.5755C70.6351 61.4946 69.9595 65.2568 68.7172 68.7502C68.6053 69.0626 68.3234 69.2617 67.9921 69.2646C67.6594 69.266 67.3761 69.0684 67.2613 68.756L67.1073 68.3345C65.9231 65.0941 63.7335 62.955 61.1748 61.8434C60.8493 61.7024 60.6662 61.3726 60.7171 61.0224C60.8813 59.8976 60.967 58.7453 60.967 57.5755C60.967 52.7278 59.5111 48.2217 57.0135 44.4682L57.0396 44.4696C60.72 44.4696 63.8076 41.9383 64.6605 38.5205Z" fill="#247BA0"/>
</svg>
