<svg width="20" height="20" viewBox="0 0 20 20" fill="none" xmlns="http://www.w3.org/2000/svg">
<path d="M10.6083 13.1C10.6083 13.436 10.3359 13.7084 9.99994 13.7084C9.66396 13.7084 9.3916 13.436 9.3916 13.1C9.3916 12.7641 9.66396 12.4917 9.99994 12.4917C10.3359 12.4917 10.6083 12.7641 10.6083 13.1Z" fill="black" stroke="#232323" stroke-width="1.5"/>
<path d="M15.2334 7.94163V6.89996C15.2334 4.64996 14.6917 1.66663 10.0001 1.66663C5.30841 1.66663 4.76675 4.64996 4.76675 6.89996V7.94163C2.43341 8.23329 1.66675 9.41663 1.66675 12.325L1.66675 13.875C1.66675 17.2916 2.70841 18.3333 6.12508 18.3333H13.8751C17.2917 18.3333 18.3334 17.2916 18.3334 13.875V12.325C18.3334 9.41663 17.5667 8.23329 15.2334 7.94163ZM10.0001 15.6166C8.60842 15.6166 7.48341 14.4833 7.48341 13.1C7.48341 11.7083 8.61675 10.5833 10.0001 10.5833C11.3834 10.5833 12.5167 11.7166 12.5167 13.1C12.5167 14.4916 11.3917 15.6166 10.0001 15.6166ZM6.12508 7.86663C6.05841 7.86663 6.00008 7.86663 5.93341 7.86663V6.89996C5.93341 4.45829 6.62508 2.83329 10.0001 2.83329C13.3751 2.83329 14.0667 4.45829 14.0667 6.89996V7.87496C14.0001 7.87496 13.9417 7.87496 13.8751 7.87496L6.12508 7.87496V7.86663Z" fill="#232323"/>
</svg>
