<svg width="96" height="96" viewBox="0 0 96 96" fill="none" xmlns="http://www.w3.org/2000/svg">
<g filter="url(#filter0_d_246_3826)">
<path d="M8 24C8 15.1634 15.1634 8 24 8H72C80.8366 8 88 15.1634 88 24V72C88 80.8366 80.8366 88 72 88H24C15.1634 88 8 80.8366 8 72V24Z" fill="#5895A6" shape-rendering="crispEdges"/>
<path d="M59.333 45.5867H55.4797C52.3197 45.5867 49.7463 43.0133 49.7463 39.8533V36C49.7463 35.2667 49.1463 34.6667 48.413 34.6667H42.7597C38.653 34.6667 35.333 37.3333 35.333 42.0933V53.9067C35.333 58.6667 38.653 61.3333 42.7597 61.3333H53.2397C57.3463 61.3333 60.6663 58.6667 60.6663 53.9067V46.92C60.6663 46.1867 60.0663 45.5867 59.333 45.5867ZM47.373 50.04C47.173 50.24 46.9197 50.3333 46.6663 50.3333C46.413 50.3333 46.1597 50.24 45.9597 50.04L44.9997 49.08V54.6667C44.9997 55.2133 44.5463 55.6667 43.9997 55.6667C43.453 55.6667 42.9997 55.2133 42.9997 54.6667V49.08L42.0397 50.04C41.653 50.4267 41.013 50.4267 40.6263 50.04C40.2397 49.6533 40.2397 49.0133 40.6263 48.6267L43.293 45.96C43.3863 45.88 43.4797 45.8133 43.5863 45.76C43.613 45.7467 43.653 45.7333 43.6797 45.72C43.7597 45.6933 43.8397 45.68 43.933 45.6667C43.973 45.6667 43.9997 45.6667 44.0397 45.6667C44.1463 45.6667 44.253 45.6933 44.3597 45.7333C44.373 45.7333 44.373 45.7333 44.3863 45.7333C44.493 45.7733 44.5997 45.8533 44.6797 45.9333C44.693 45.9467 44.7063 45.9467 44.7063 45.96L47.373 48.6267C47.7597 49.0133 47.7597 49.6533 47.373 50.04Z" fill="white"/>
<path d="M55.2399 43.7467C56.5066 43.76 58.2666 43.76 59.7732 43.76C60.5332 43.76 60.9332 42.8667 60.3999 42.3333C58.4799 40.4 55.0399 36.92 53.0666 34.9467C52.5199 34.4 51.5732 34.7733 51.5732 35.5333V40.1867C51.5732 42.1333 53.2266 43.7467 55.2399 43.7467Z" fill="white"/>
</g>
<defs>
<filter id="filter0_d_246_3826" x="0" y="0" width="96" height="96" filterUnits="userSpaceOnUse" color-interpolation-filters="sRGB">
<feFlood flood-opacity="0" result="BackgroundImageFix"/>
<feColorMatrix in="SourceAlpha" type="matrix" values="0 0 0 0 0 0 0 0 0 0 0 0 0 0 0 0 0 0 127 0" result="hardAlpha"/>
<feOffset/>
<feGaussianBlur stdDeviation="4"/>
<feComposite in2="hardAlpha" operator="out"/>
<feColorMatrix type="matrix" values="0 0 0 0 1 0 0 0 0 1 0 0 0 0 1 0 0 0 0.16 0"/>
<feBlend mode="normal" in2="BackgroundImageFix" result="effect1_dropShadow_246_3826"/>
<feBlend mode="normal" in="SourceGraphic" in2="effect1_dropShadow_246_3826" result="shape"/>
</filter>
</defs>
</svg>
