<svg width="80" height="80" viewBox="0 0 80 80" fill="none" xmlns="http://www.w3.org/2000/svg">
<rect width="80" height="80" rx="16" fill="#F6F9FB"/>
<path d="M51.333 37.5867H47.4797C44.3197 37.5867 41.7463 35.0133 41.7463 31.8533V28C41.7463 27.2667 41.1463 26.6667 40.413 26.6667H34.7597C30.653 26.6667 27.333 29.3333 27.333 34.0933V45.9067C27.333 50.6667 30.653 53.3333 34.7597 53.3333H45.2397C49.3463 53.3333 52.6663 50.6667 52.6663 45.9067V38.92C52.6663 38.1867 52.0663 37.5867 51.333 37.5867ZM39.373 42.04C39.173 42.24 38.9197 42.3333 38.6663 42.3333C38.413 42.3333 38.1597 42.24 37.9597 42.04L36.9997 41.08V46.6667C36.9997 47.2133 36.5463 47.6667 35.9997 47.6667C35.453 47.6667 34.9997 47.2133 34.9997 46.6667V41.08L34.0397 42.04C33.653 42.4267 33.013 42.4267 32.6263 42.04C32.2397 41.6533 32.2397 41.0133 32.6263 40.6267L35.293 37.96C35.3863 37.88 35.4797 37.8133 35.5863 37.76C35.613 37.7467 35.653 37.7333 35.6797 37.72C35.7597 37.6933 35.8397 37.68 35.933 37.6667C35.973 37.6667 35.9997 37.6667 36.0397 37.6667C36.1463 37.6667 36.253 37.6933 36.3597 37.7333C36.373 37.7333 36.373 37.7333 36.3863 37.7333C36.493 37.7733 36.5997 37.8533 36.6797 37.9333C36.693 37.9467 36.7063 37.9467 36.7063 37.96L39.373 40.6267C39.7597 41.0133 39.7597 41.6533 39.373 42.04Z" fill="#5895A6"/>
<path d="M47.2399 35.7467C48.5066 35.76 50.2666 35.76 51.7732 35.76C52.5332 35.76 52.9332 34.8667 52.3999 34.3333C50.4799 32.4 47.0399 28.92 45.0666 26.9467C44.5199 26.4 43.5732 26.7733 43.5732 27.5333V32.1867C43.5732 34.1333 45.2266 35.7467 47.2399 35.7467Z" fill="#5895A6"/>
</svg>
