<svg width="60" height="60" viewBox="0 0 60 60" fill="none" xmlns="http://www.w3.org/2000/svg">
<path d="M37.5044 6.21602C37.0316 6.35991 36.2505 6.77101 35.7572 7.12044C35.2639 7.46988 30.8034 11.807 25.8702 16.7608C18.121 24.5306 16.826 25.9283 16.3532 26.9561C15.4899 28.806 15.6338 31.396 16.6821 32.8554C17.0316 33.3692 17.0316 33.3692 16.3327 34.2325C15.1405 35.6714 14.5444 37.2336 14.4416 39.1246L14.3594 40.769L12.3039 42.8657C10.8034 44.3662 10.0428 44.9828 9.57008 45.0651C7.49402 45.4556 5.82906 47.655 6.01406 49.7927C6.19906 52.0743 7.92568 53.8009 10.2073 53.9859C12.345 54.1709 14.5444 52.506 14.9349 50.4299C15.0172 49.9572 15.6338 49.1966 17.1343 47.6961L19.231 45.6406L20.8959 45.5584C22.7664 45.4556 24.6986 44.6951 25.8291 43.5851L26.4663 42.9684L27.6996 43.5851C28.7274 44.0784 29.1796 44.1812 30.4129 44.1812C33.2084 44.1812 33.0439 44.3045 43.6092 33.7187C54.0923 23.215 53.9484 23.4 53.969 20.7279C53.969 17.9941 53.8456 17.7885 48.2341 12.1359C42.6843 6.52435 42.1293 6.1338 39.7243 6.01047C38.9227 5.96936 37.9977 6.05158 37.5044 6.21602ZM41.8004 8.25097C42.8692 8.90873 51.4407 17.5007 51.8929 18.4052C52.3862 19.3918 52.5096 20.7895 52.2218 21.8995C51.9751 22.8039 51.2351 23.6056 42.5815 32.3209C36.2711 38.6519 32.9412 41.8585 32.3862 42.1257C31.0912 42.7218 29.3235 42.6396 28.0696 41.9201C26.7746 41.1596 18.306 32.6293 17.8332 31.5809C17.3604 30.5737 17.381 28.6621 17.8743 27.6138C18.4499 26.4011 36.8672 8.12764 37.8333 7.81931C38.9638 7.44932 40.7726 7.65487 41.8004 8.25097ZM24.493 42.5368C23.4242 43.4823 21.9442 43.9551 19.9915 43.9551H18.4087L16.5382 45.8256L14.6677 47.6961L14.2155 46.9561C13.9689 46.5656 13.4344 46.0311 13.0439 45.7845L12.3039 45.3323L14.1539 43.4618L16.0038 41.5912L16.086 39.6385C16.1682 37.5214 16.5588 36.4114 17.6482 35.2603L18.1826 34.6848L21.7592 38.2408L25.3152 41.7968L24.493 42.5368ZM11.8928 47.0383C14.2977 48.4977 13.5578 51.9715 10.7623 52.3004C9.22065 52.506 7.61735 51.0671 7.61735 49.5255C7.61735 48.0455 9.03565 46.6272 10.4951 46.6272C10.8856 46.6272 11.5228 46.8122 11.8928 47.0383Z" fill="black"/>
<path d="M35.2022 14.0683C32.489 15.4044 31.5434 18.611 33.0234 21.3448C33.7017 22.5986 37.8127 26.6685 38.9638 27.203C41.5537 28.4157 44.6575 27.3468 45.9319 24.798C46.5692 23.5442 46.6514 21.5914 46.1581 20.3581C45.7264 19.3509 40.8754 14.4383 39.786 13.9244C38.5321 13.3283 36.5383 13.39 35.2022 14.0683ZM39.1282 15.466C39.971 15.836 44.3081 20.2348 44.5959 20.9953C44.9042 21.8175 44.8836 23.3181 44.5342 23.9758C43.6503 25.6819 41.6565 26.5041 39.971 25.8463C39.1899 25.5586 34.8117 21.2214 34.3184 20.2759C32.7973 17.3365 36.0244 14.1094 39.1282 15.466Z" fill="black"/>
<path d="M22.7658 25.2089C21.553 26.4216 20.5664 27.5521 20.5664 27.7371C20.5664 27.9016 20.9775 28.436 21.4708 28.9293C22.108 29.5665 22.4986 29.7926 22.848 29.731C23.5263 29.6487 23.6086 28.8471 23.0125 28.2099L22.5397 27.696L24.328 25.9077C26.0957 24.1194 26.3424 23.7083 25.8696 23.2356C25.3763 22.7422 24.9446 23.03 22.7658 25.2089Z" fill="black"/>
<path d="M26.2619 28.7237C25.0491 29.9364 24.0625 31.0669 24.0625 31.2314C24.0625 31.5808 28.4202 35.9385 28.7902 35.9385C29.1601 35.9385 33.5178 31.5808 33.5178 31.2108C33.5178 30.8203 29.1601 26.4832 28.7696 26.4832C28.6052 26.4832 27.4746 27.4904 26.2619 28.7237ZM30.229 29.8747L31.5651 31.2108L30.1673 32.6086L28.7902 33.9857L27.413 32.6086L26.0152 31.2108L27.3513 29.8747C28.0707 29.1348 28.7285 28.5387 28.7902 28.5387C28.8518 28.5387 29.5096 29.1348 30.229 29.8747Z" fill="black"/>
<path d="M34.0928 35.6715L32.3045 37.4598L31.7906 36.9871C31.1534 36.391 30.3517 36.4732 30.2695 37.1515C30.2079 37.5009 30.434 37.8915 31.0712 38.5287C31.5645 39.022 32.0989 39.4331 32.2839 39.4331C32.695 39.4331 37.0116 35.1165 37.0116 34.6849C37.0116 34.2943 36.6005 33.8832 36.1894 33.8832C36.0249 33.8832 35.0794 34.6849 34.0928 35.6715Z" fill="black"/>
</svg>
