<svg width="97" height="96" viewBox="0 0 97 96" fill="none" xmlns="http://www.w3.org/2000/svg">
<g filter="url(#filter0_d_246_3814)">
<path d="M8.3335 24C8.3335 15.1634 15.4969 8 24.3335 8H72.3335C81.1701 8 88.3335 15.1634 88.3335 24V72C88.3335 80.8366 81.1701 88 72.3335 88H24.3335C15.4969 88 8.3335 80.8366 8.3335 72V24Z" fill="#5895A6" shape-rendering="crispEdges"/>
<path d="M41.3332 34.6667H39.9998C35.9998 34.6667 34.6665 37.0533 34.6665 40V41.3333V60C34.6665 61.1067 35.9198 61.7333 36.7998 61.0667L39.0798 59.36C39.6132 58.96 40.3598 59.0133 40.8398 59.4933L43.0532 61.72C43.5732 62.24 44.4265 62.24 44.9465 61.72L47.1865 59.48C47.6532 59.0133 48.3998 58.96 48.9198 59.36L51.1998 61.0667C52.0798 61.72 53.3332 61.0933 53.3332 60V37.3333C53.3332 35.8667 54.5332 34.6667 55.9998 34.6667H41.3332ZM46.9998 50.3333H40.9998C40.4532 50.3333 39.9998 49.88 39.9998 49.3333C39.9998 48.7867 40.4532 48.3333 40.9998 48.3333H46.9998C47.5465 48.3333 47.9998 48.7867 47.9998 49.3333C47.9998 49.88 47.5465 50.3333 46.9998 50.3333ZM47.9998 45H39.9998C39.4532 45 38.9998 44.5467 38.9998 44C38.9998 43.4533 39.4532 43 39.9998 43H47.9998C48.5465 43 48.9998 43.4533 48.9998 44C48.9998 44.5467 48.5465 45 47.9998 45Z" fill="white"/>
<path d="M56.0135 34.6667V36.6667C56.8935 36.6667 57.7335 37.0267 58.3468 37.6267C58.9868 38.28 59.3335 39.12 59.3335 40V43.2267C59.3335 44.2133 58.8935 44.6667 57.8935 44.6667H55.3335V37.3467C55.3335 36.9733 55.6402 36.6667 56.0135 36.6667V34.6667ZM56.0135 34.6667C54.5335 34.6667 53.3335 35.8667 53.3335 37.3467V46.6667H57.8935C60.0002 46.6667 61.3335 45.3333 61.3335 43.2267V40C61.3335 38.5333 60.7335 37.2 59.7735 36.2267C58.8002 35.2667 57.4802 34.68 56.0135 34.6667C56.0135 34.6667 56.0268 34.6667 56.0135 34.6667Z" fill="white"/>
</g>
<defs>
<filter id="filter0_d_246_3814" x="0.333496" y="0" width="96" height="96" filterUnits="userSpaceOnUse" color-interpolation-filters="sRGB">
<feFlood flood-opacity="0" result="BackgroundImageFix"/>
<feColorMatrix in="SourceAlpha" type="matrix" values="0 0 0 0 0 0 0 0 0 0 0 0 0 0 0 0 0 0 127 0" result="hardAlpha"/>
<feOffset/>
<feGaussianBlur stdDeviation="4"/>
<feComposite in2="hardAlpha" operator="out"/>
<feColorMatrix type="matrix" values="0 0 0 0 1 0 0 0 0 1 0 0 0 0 1 0 0 0 0.16 0"/>
<feBlend mode="normal" in2="BackgroundImageFix" result="effect1_dropShadow_246_3814"/>
<feBlend mode="normal" in="SourceGraphic" in2="effect1_dropShadow_246_3814" result="shape"/>
</filter>
</defs>
</svg>
