<svg width="81" height="80" viewBox="0 0 81 80" fill="none" xmlns="http://www.w3.org/2000/svg">
<rect x="0.333496" width="80" height="80" rx="16" fill="#F6F9FB"/>
<path d="M33.3332 26.6667H31.9998C27.9998 26.6667 26.6665 29.0533 26.6665 32V33.3333V52C26.6665 53.1067 27.9198 53.7333 28.7998 53.0667L31.0798 51.36C31.6132 50.96 32.3598 51.0133 32.8398 51.4933L35.0532 53.72C35.5732 54.24 36.4265 54.24 36.9465 53.72L39.1865 51.48C39.6532 51.0133 40.3998 50.96 40.9198 51.36L43.1998 53.0667C44.0798 53.72 45.3332 53.0933 45.3332 52V29.3333C45.3332 27.8667 46.5332 26.6667 47.9998 26.6667H33.3332ZM38.9998 42.3333H32.9998C32.4532 42.3333 31.9998 41.88 31.9998 41.3333C31.9998 40.7867 32.4532 40.3333 32.9998 40.3333H38.9998C39.5465 40.3333 39.9998 40.7867 39.9998 41.3333C39.9998 41.88 39.5465 42.3333 38.9998 42.3333ZM39.9998 37H31.9998C31.4532 37 30.9998 36.5467 30.9998 36C30.9998 35.4533 31.4532 35 31.9998 35H39.9998C40.5465 35 40.9998 35.4533 40.9998 36C40.9998 36.5467 40.5465 37 39.9998 37Z" fill="#5895A6"/>
<path d="M48.0135 26.6667V28.6667C48.8935 28.6667 49.7335 29.0267 50.3468 29.6267C50.9868 30.28 51.3335 31.12 51.3335 32V35.2267C51.3335 36.2133 50.8935 36.6667 49.8935 36.6667H47.3335V29.3467C47.3335 28.9733 47.6402 28.6667 48.0135 28.6667V26.6667ZM48.0135 26.6667C46.5335 26.6667 45.3335 27.8667 45.3335 29.3467V38.6667H49.8935C52.0002 38.6667 53.3335 37.3333 53.3335 35.2267V32C53.3335 30.5333 52.7335 29.2 51.7735 28.2267C50.8002 27.2667 49.4802 26.68 48.0135 26.6667C48.0135 26.6667 48.0268 26.6667 48.0135 26.6667Z" fill="#5895A6"/>
</svg>
