<svg width="81" height="80" viewBox="0 0 81 80" fill="none" xmlns="http://www.w3.org/2000/svg">
<rect x="0.666992" width="80" height="80" rx="16" fill="#F6F9FB"/>
<path d="M42.587 32H34.0537C33.707 32 33.3737 32.0133 33.0537 32.0533C29.467 32.36 27.667 34.48 27.667 38.3867V43.72C27.667 49.0533 29.8003 50.1067 34.0537 50.1067H34.587C34.8803 50.1067 35.267 50.3067 35.4403 50.5333L37.0403 52.6667C37.747 53.6133 38.8937 53.6133 39.6003 52.6667L41.2003 50.5333C41.4003 50.2667 41.7203 50.1067 42.0537 50.1067H42.587C46.4937 50.1067 48.6137 48.32 48.9203 44.72C48.9603 44.4 48.9737 44.0667 48.9737 43.72V38.3867C48.9737 34.1333 46.8403 32 42.587 32ZM33.667 42.6667C32.9203 42.6667 32.3337 42.0667 32.3337 41.3333C32.3337 40.6 32.9337 40 33.667 40C34.4003 40 35.0003 40.6 35.0003 41.3333C35.0003 42.0667 34.4003 42.6667 33.667 42.6667ZM38.3203 42.6667C37.5737 42.6667 36.987 42.0667 36.987 41.3333C36.987 40.6 37.587 40 38.3203 40C39.0537 40 39.6537 40.6 39.6537 41.3333C39.6537 42.0667 39.067 42.6667 38.3203 42.6667ZM42.987 42.6667C42.2403 42.6667 41.6537 42.0667 41.6537 41.3333C41.6537 40.6 42.2537 40 42.987 40C43.7203 40 44.3203 40.6 44.3203 41.3333C44.3203 42.0667 43.7203 42.6667 42.987 42.6667Z" fill="#5895A6"/>
<path d="M54.3063 33.0533V38.3867C54.3063 41.0533 53.4797 42.8667 51.8263 43.8667C51.4263 44.1067 50.9597 43.7867 50.9597 43.32L50.973 38.3867C50.973 33.0533 47.9197 30 42.5863 30L34.4663 30.0133C33.9997 30.0133 33.6797 29.5467 33.9197 29.1467C34.9197 27.4933 36.733 26.6667 39.3863 26.6667H47.9197C52.173 26.6667 54.3063 28.8 54.3063 33.0533Z" fill="#5895A6"/>
</svg>
