<svg width="24" height="24" viewBox="0 0 24 24" fill="none" xmlns="http://www.w3.org/2000/svg">
<path d="M15.5799 12.0001C15.5799 10.0201 13.9799 8.42008 11.9999 8.42008C10.0199 8.42008 8.41992 10.0201 8.41992 12.0001C8.41992 13.9801 10.0199 15.5801 11.9999 15.5801C13.9799 15.5801 15.5799 13.9801 15.5799 12.0001Z" stroke="#5895A6" stroke-width="1.7" stroke-linecap="round" stroke-linejoin="round"/>
<path d="M11.9998 3.73003C15.5298 3.73003 18.8198 5.81003 21.1098 9.41003C22.0098 10.82 22.0098 13.19 21.1098 14.6C18.8198 18.2 15.5298 20.28 11.9998 20.28C8.46984 20.28 5.17984 18.2 2.88984 14.6C1.98984 13.19 1.98984 10.82 2.88984 9.41003C5.17984 5.81003 8.46984 3.73003 11.9998 3.73003Z" stroke="#5895A6" stroke-width="1.7" stroke-linecap="round" stroke-linejoin="round"/>
</svg>
