<svg width="16" height="17" viewBox="0 0 16 17" fill="none" xmlns="http://www.w3.org/2000/svg">
<path d="M9.23309 2.60311L9.23336 2.6033L13.0733 5.2899C13.0733 5.28992 13.0733 5.28994 13.0733 5.28996C13.3592 5.49009 13.6393 5.82616 13.8484 6.22668C14.0575 6.62722 14.1733 7.04955 14.1733 7.40028V11.9203C14.1733 13.3441 13.0172 14.5003 11.5933 14.5003H4.40666C2.98421 14.5003 1.82666 13.3389 1.82666 11.9136V7.31362C1.82666 6.98918 1.93121 6.58844 2.1219 6.20115C2.31245 5.81413 2.56773 5.48383 2.82751 5.2812L2.82762 5.28112L6.16624 2.67552C6.16645 2.67536 6.16667 2.67519 6.16688 2.67502C7.00039 2.02972 8.36613 1.99569 9.23309 2.60311ZM10.8 8.92028C10.5628 8.92028 10.3462 9.00457 10.1785 9.14501L8.87355 7.84006C8.66768 7.63419 8.39451 7.53569 8.10139 7.56234L8.10139 7.56233L8.09926 7.56254C7.79174 7.59182 7.54836 7.76585 7.39818 7.97861L7.39806 7.97853L7.39148 7.98834L7.05028 8.49679L5.89355 7.34006L5.89361 7.34001L5.88706 7.33369C5.51891 6.97869 4.90802 6.94424 4.52007 7.34655C4.15677 7.7233 4.14771 8.32844 4.52644 8.70717L6.51311 10.6938C6.71898 10.8997 6.99215 10.9982 7.28526 10.9716L7.2874 10.9714C7.59492 10.9421 7.8383 10.768 7.98848 10.5553L7.98859 10.5554L7.99518 10.5456L8.33638 10.0371L8.80472 10.5054C8.66428 10.6732 8.57999 10.8897 8.57999 11.127C8.57999 11.6631 9.01052 12.0936 9.54666 12.0936H10.7867C10.8821 12.0936 11.0172 12.0835 11.1632 12.0201C11.3522 11.9407 11.5117 11.8014 11.617 11.627H11.7667V11.127V9.88695C11.7667 9.35081 11.3361 8.92028 10.8 8.92028Z" fill="#E08A34" stroke="#E08A34"/>
</svg>
