<svg width="24" height="24" viewBox="0 0 24 24" fill="none" xmlns="http://www.w3.org/2000/svg">
<path d="M7.25 17H16.75V19C16.75 21 16 22 13.75 22H10.25C8 22 7.25 21 7.25 19V17Z" stroke="#5A8AEA" stroke-width="1.6" stroke-miterlimit="10" stroke-linecap="round" stroke-linejoin="round"/>
<path d="M16 9V5C16 3 15 2 13 2H11C9 2 8 3 8 5V9H16Z" stroke="#5A8AEA" stroke-width="1.6" stroke-miterlimit="10" stroke-linecap="round" stroke-linejoin="round"/>
<path d="M21 14V9C21 7 20 6 18 6H16V9H8V6H6C4 6 3 7 3 9V14C3 16 4 17 6 17H18C20 17 21 16 21 14Z" stroke="#5A8AEA" stroke-width="1.6" stroke-miterlimit="10" stroke-linecap="round" stroke-linejoin="round"/>
<path d="M17 9H15.79H7" stroke="#5A8AEA" stroke-width="1.6" stroke-miterlimit="10" stroke-linecap="round" stroke-linejoin="round"/>
<path d="M7 13H10" stroke="#5A8AEA" stroke-width="1.6" stroke-miterlimit="10" stroke-linecap="round" stroke-linejoin="round"/>
</svg>
