<svg width="81" height="80" viewBox="0 0 81 80" fill="none" xmlns="http://www.w3.org/2000/svg">
<rect x="0.666992" width="80" height="80" rx="16" fill="#F6F9FB"/>
<path d="M47.3333 28.7467V26.6667C47.3333 26.12 46.88 25.6667 46.3333 25.6667C45.7866 25.6667 45.3333 26.12 45.3333 26.6667V28.6667H36.6666V26.6667C36.6666 26.12 36.2133 25.6667 35.6666 25.6667C35.12 25.6667 34.6666 26.12 34.6666 26.6667V28.7467C31.0666 29.08 29.32 31.2267 29.0533 34.4133C29.0266 34.8 29.3466 35.12 29.72 35.12H52.28C52.6666 35.12 52.9866 34.7867 52.9466 34.4133C52.68 31.2267 50.9333 29.08 47.3333 28.7467Z" fill="#5895A6"/>
<path d="M50.3333 44C47.3867 44 45 46.3867 45 49.3333C45 50.3333 45.28 51.28 45.7733 52.08C46.6933 53.6267 48.3867 54.6667 50.3333 54.6667C52.28 54.6667 53.9733 53.6267 54.8933 52.08C55.3867 51.28 55.6667 50.3333 55.6667 49.3333C55.6667 46.3867 53.28 44 50.3333 44ZM53.0933 48.76L50.2533 51.3867C50.0667 51.56 49.8133 51.6533 49.5733 51.6533C49.32 51.6533 49.0667 51.56 48.8667 51.36L47.5467 50.04C47.16 49.6533 47.16 49.0133 47.5467 48.6267C47.9333 48.24 48.5733 48.24 48.96 48.6267L49.6 49.2667L51.7333 47.2933C52.1333 46.92 52.7733 46.9467 53.1467 47.3467C53.52 47.7467 53.4933 48.3733 53.0933 48.76Z" fill="#5895A6"/>
<path d="M51.6667 37.12H30.3333C29.6 37.12 29 37.72 29 38.4533V46.6667C29 50.6667 31 53.3333 35.6667 53.3333H42.24C43.16 53.3333 43.8 52.44 43.5067 51.5733C43.24 50.8 43.0133 49.9467 43.0133 49.3333C43.0133 45.2933 46.3067 42 50.3467 42C50.7333 42 51.12 42.0267 51.4933 42.0933C52.2933 42.2133 53.0133 41.5867 53.0133 40.7867V38.4667C53 37.72 52.4 37.12 51.6667 37.12ZM37.28 48.28C37.0267 48.52 36.68 48.6667 36.3333 48.6667C35.9867 48.6667 35.64 48.52 35.3867 48.28C35.1467 48.0267 35 47.68 35 47.3333C35 46.9867 35.1467 46.64 35.3867 46.3867C35.52 46.2667 35.6533 46.1733 35.8267 46.1067C36.32 45.8933 36.9067 46.0133 37.28 46.3867C37.52 46.64 37.6667 46.9867 37.6667 47.3333C37.6667 47.68 37.52 48.0267 37.28 48.28ZM37.28 43.6133C37.2133 43.6667 37.1467 43.72 37.08 43.7733C37 43.8267 36.92 43.8667 36.84 43.8933C36.76 43.9333 36.68 43.96 36.6 43.9733C36.5067 43.9867 36.4133 44 36.3333 44C35.9867 44 35.64 43.8533 35.3867 43.6133C35.1467 43.36 35 43.0133 35 42.6667C35 42.32 35.1467 41.9733 35.3867 41.72C35.6933 41.4133 36.16 41.2667 36.6 41.36C36.68 41.3733 36.76 41.4 36.84 41.44C36.92 41.4667 37 41.5067 37.08 41.56C37.1467 41.6133 37.2133 41.6667 37.28 41.72C37.52 41.9733 37.6667 42.32 37.6667 42.6667C37.6667 43.0133 37.52 43.36 37.28 43.6133ZM41.9467 43.6133C41.6933 43.8533 41.3467 44 41 44C40.6533 44 40.3067 43.8533 40.0533 43.6133C39.8133 43.36 39.6667 43.0133 39.6667 42.6667C39.6667 42.32 39.8133 41.9733 40.0533 41.72C40.56 41.2267 41.4533 41.2267 41.9467 41.72C42.1867 41.9733 42.3333 42.32 42.3333 42.6667C42.3333 43.0133 42.1867 43.36 41.9467 43.6133Z" fill="#5895A6"/>
</svg>
