<svg width="97" height="96" viewBox="0 0 97 96" fill="none" xmlns="http://www.w3.org/2000/svg">
<g filter="url(#filter0_d_246_3820)">
<path d="M8.66699 24C8.66699 15.1634 15.8304 8 24.667 8H72.667C81.5035 8 88.667 15.1634 88.667 24V72C88.667 80.8366 81.5035 88 72.667 88H24.667C15.8304 88 8.66699 80.8366 8.66699 72V24Z" fill="#5895A6" shape-rendering="crispEdges"/>
<path d="M55.3333 36.7467V34.6667C55.3333 34.12 54.88 33.6667 54.3333 33.6667C53.7866 33.6667 53.3333 34.12 53.3333 34.6667V36.6667H44.6666V34.6667C44.6666 34.12 44.2133 33.6667 43.6666 33.6667C43.12 33.6667 42.6666 34.12 42.6666 34.6667V36.7467C39.0666 37.08 37.32 39.2267 37.0533 42.4133C37.0266 42.8 37.3466 43.12 37.72 43.12H60.28C60.6666 43.12 60.9866 42.7867 60.9466 42.4133C60.68 39.2267 58.9333 37.08 55.3333 36.7467Z" fill="white"/>
<path d="M58.3333 52C55.3867 52 53 54.3867 53 57.3333C53 58.3333 53.28 59.28 53.7733 60.08C54.6933 61.6267 56.3867 62.6667 58.3333 62.6667C60.28 62.6667 61.9733 61.6267 62.8933 60.08C63.3867 59.28 63.6667 58.3333 63.6667 57.3333C63.6667 54.3867 61.28 52 58.3333 52ZM61.0933 56.76L58.2533 59.3867C58.0667 59.56 57.8133 59.6533 57.5733 59.6533C57.32 59.6533 57.0667 59.56 56.8667 59.36L55.5467 58.04C55.16 57.6533 55.16 57.0133 55.5467 56.6267C55.9333 56.24 56.5733 56.24 56.96 56.6267L57.6 57.2667L59.7333 55.2933C60.1333 54.92 60.7733 54.9467 61.1467 55.3467C61.52 55.7467 61.4933 56.3733 61.0933 56.76Z" fill="white"/>
<path d="M59.6667 45.12H38.3333C37.6 45.12 37 45.72 37 46.4533V54.6667C37 58.6667 39 61.3333 43.6667 61.3333H50.24C51.16 61.3333 51.8 60.44 51.5067 59.5733C51.24 58.8 51.0133 57.9467 51.0133 57.3333C51.0133 53.2933 54.3067 50 58.3467 50C58.7333 50 59.12 50.0267 59.4933 50.0933C60.2933 50.2133 61.0133 49.5867 61.0133 48.7867V46.4667C61 45.72 60.4 45.12 59.6667 45.12ZM45.28 56.28C45.0267 56.52 44.68 56.6667 44.3333 56.6667C43.9867 56.6667 43.64 56.52 43.3867 56.28C43.1467 56.0267 43 55.68 43 55.3333C43 54.9867 43.1467 54.64 43.3867 54.3867C43.52 54.2667 43.6533 54.1733 43.8267 54.1067C44.32 53.8933 44.9067 54.0133 45.28 54.3867C45.52 54.64 45.6667 54.9867 45.6667 55.3333C45.6667 55.68 45.52 56.0267 45.28 56.28ZM45.28 51.6133C45.2133 51.6667 45.1467 51.72 45.08 51.7733C45 51.8267 44.92 51.8667 44.84 51.8933C44.76 51.9333 44.68 51.96 44.6 51.9733C44.5067 51.9867 44.4133 52 44.3333 52C43.9867 52 43.64 51.8533 43.3867 51.6133C43.1467 51.36 43 51.0133 43 50.6667C43 50.32 43.1467 49.9733 43.3867 49.72C43.6933 49.4133 44.16 49.2667 44.6 49.36C44.68 49.3733 44.76 49.4 44.84 49.44C44.92 49.4667 45 49.5067 45.08 49.56C45.1467 49.6133 45.2133 49.6667 45.28 49.72C45.52 49.9733 45.6667 50.32 45.6667 50.6667C45.6667 51.0133 45.52 51.36 45.28 51.6133ZM49.9467 51.6133C49.6933 51.8533 49.3467 52 49 52C48.6533 52 48.3067 51.8533 48.0533 51.6133C47.8133 51.36 47.6667 51.0133 47.6667 50.6667C47.6667 50.32 47.8133 49.9733 48.0533 49.72C48.56 49.2267 49.4533 49.2267 49.9467 49.72C50.1867 49.9733 50.3333 50.32 50.3333 50.6667C50.3333 51.0133 50.1867 51.36 49.9467 51.6133Z" fill="white"/>
</g>
<defs>
<filter id="filter0_d_246_3820" x="0.666992" y="0" width="96" height="96" filterUnits="userSpaceOnUse" color-interpolation-filters="sRGB">
<feFlood flood-opacity="0" result="BackgroundImageFix"/>
<feColorMatrix in="SourceAlpha" type="matrix" values="0 0 0 0 0 0 0 0 0 0 0 0 0 0 0 0 0 0 127 0" result="hardAlpha"/>
<feOffset/>
<feGaussianBlur stdDeviation="4"/>
<feComposite in2="hardAlpha" operator="out"/>
<feColorMatrix type="matrix" values="0 0 0 0 1 0 0 0 0 1 0 0 0 0 1 0 0 0 0.16 0"/>
<feBlend mode="normal" in2="BackgroundImageFix" result="effect1_dropShadow_246_3820"/>
<feBlend mode="normal" in="SourceGraphic" in2="effect1_dropShadow_246_3820" result="shape"/>
</filter>
</defs>
</svg>
