<svg width="48" height="48" viewBox="0 0 48 48" fill="none" xmlns="http://www.w3.org/2000/svg">
<rect width="48" height="48" rx="6" fill="#E5E5E5"/>
<path d="M23 28.15V30.85C23 33.1 22.1 34 19.85 34H17.15C14.9 34 14 33.1 14 30.85V28.15C14 25.9 14.9 25 17.15 25H19.85C22.1 25 23 25.9 23 28.15Z" stroke="#232323" stroke-width="1.5" stroke-linecap="round" stroke-linejoin="round"/>
<path d="M34 27C34 30.87 30.87 34 27 34L28.05 32.25" stroke="#232323" stroke-width="1.5" stroke-linecap="round" stroke-linejoin="round"/>
<path d="M14 21C14 17.13 17.13 14 21 14L19.95 15.75" stroke="#232323" stroke-width="1.5" stroke-linecap="round" stroke-linejoin="round"/>
<path d="M29.5 23C31.9853 23 34 20.9853 34 18.5C34 16.0147 31.9853 14 29.5 14C27.0147 14 25 16.0147 25 18.5C25 20.9853 27.0147 23 29.5 23Z" stroke="#232323" stroke-width="1.5" stroke-linecap="round" stroke-linejoin="round"/>
</svg>
