<svg width="533" height="147" viewBox="0 0 533 147" fill="none" xmlns="http://www.w3.org/2000/svg">
<path d="M155.721 74.1226C155.882 74.1221 156.042 74.1215 156.208 74.121C156.388 74.1211 156.568 74.1212 156.749 74.1214C156.939 74.121 157.128 74.1206 157.318 74.1202C157.842 74.1191 158.367 74.1188 158.891 74.1188C159.455 74.1185 160.02 74.1175 160.584 74.1166C161.821 74.1148 163.057 74.114 164.293 74.1134C165.066 74.113 165.838 74.1124 166.611 74.1118C168.751 74.1102 170.891 74.1088 173.031 74.1084C173.168 74.1084 173.305 74.1083 173.446 74.1083C173.584 74.1083 173.721 74.1082 173.863 74.1082C174.141 74.1082 174.42 74.1081 174.698 74.108C174.905 74.108 174.905 74.108 175.117 74.1079C177.35 74.1074 179.583 74.1051 181.816 74.102C184.11 74.0988 186.404 74.0971 188.698 74.097C189.986 74.0969 191.273 74.0961 192.561 74.0937C193.658 74.0916 194.756 74.0909 195.854 74.092C196.413 74.0925 196.972 74.0924 197.531 74.0905C200.496 74.0811 203.313 74.1218 206.114 75.2094C206.257 75.2634 206.4 75.3173 206.547 75.3729C207.317 75.6776 208.024 76.0336 208.724 76.4756C208.978 76.6338 209.238 76.7813 209.5 76.9241C210.019 77.2192 210.456 77.5815 210.903 77.9746C210.985 78.0458 211.066 78.1169 211.15 78.1903C211.386 78.3982 211.621 78.6078 211.854 78.8183C211.967 78.9195 212.08 79.0206 212.196 79.1248C213 79.8886 213.622 80.762 214.243 81.6754C214.373 81.867 214.506 82.0572 214.639 82.2471C214.976 82.735 215.266 83.2033 215.481 83.7596C215.568 83.9725 215.667 84.1805 215.771 84.3862C217.708 88.2867 217.839 92.9184 216.819 97.0883C216.787 97.2175 216.756 97.3468 216.723 97.4799C216.484 98.3935 216.137 99.2223 215.726 100.071C215.683 100.161 215.641 100.251 215.598 100.344C215.195 101.203 214.784 102.02 214.186 102.762C213.965 103.043 213.775 103.337 213.582 103.638C213.271 104.111 212.934 104.492 212.522 104.882C212.437 104.995 212.351 105.108 212.263 105.225C211.944 105.602 211.599 105.816 211.187 106.085C211.022 106.251 211.022 106.251 210.853 106.42C210.498 106.776 210.143 107.019 209.719 107.288C209.643 107.344 209.568 107.4 209.49 107.458C208.785 107.966 208.031 108.344 207.249 108.717C207.143 108.768 207.037 108.819 206.927 108.871C205.87 109.366 204.864 109.717 203.703 109.853C203.568 109.869 203.568 109.869 203.43 109.886C203.213 109.912 202.995 109.937 202.777 109.962C202.824 110.031 202.871 110.101 202.919 110.173C203.374 110.852 203.818 111.537 204.254 112.228C204.444 112.527 204.636 112.824 204.829 113.121C204.883 113.204 204.937 113.287 204.993 113.372C205.098 113.534 205.204 113.696 205.311 113.857C205.588 114.283 205.811 114.695 205.981 115.174C206.069 115.174 206.157 115.174 206.248 115.174C206.419 115.399 206.419 115.399 206.61 115.711C206.715 115.879 206.715 115.879 206.821 116.051C206.894 116.17 206.966 116.288 207.04 116.411C207.183 116.643 207.326 116.875 207.47 117.106C207.533 117.21 207.596 117.313 207.661 117.42C207.846 117.716 207.846 117.716 208.059 117.993C208.25 118.249 208.25 118.249 208.484 118.666C208.776 119.188 209.117 119.668 209.462 120.155C210.07 121.021 210.659 121.898 211.195 122.81C211.602 123.499 212.059 124.146 212.522 124.798C212.731 125.095 212.94 125.394 213.148 125.692C213.245 125.83 213.341 125.969 213.441 126.111C213.684 126.477 213.904 126.849 214.119 127.232C214.361 127.65 214.63 128.048 214.9 128.449C214.987 128.58 214.987 128.58 215.076 128.713C215.414 129.217 215.759 129.716 216.11 130.211C216.461 130.709 216.763 131.217 217.061 131.749C217.176 131.902 217.176 131.902 217.294 132.058C217.461 132.283 217.461 132.283 217.461 132.551C215.441 132.582 213.421 132.605 211.4 132.62C210.462 132.627 209.524 132.636 208.586 132.651C207.681 132.666 206.775 132.674 205.87 132.677C205.525 132.68 205.179 132.685 204.834 132.692C204.35 132.702 203.867 132.703 203.382 132.702C203.168 132.709 203.168 132.709 202.95 132.717C202.352 132.709 201.99 132.697 201.554 132.264C201.313 131.923 201.108 131.58 200.908 131.214C200.78 131.015 200.651 130.816 200.519 130.619C200.398 130.431 200.278 130.242 200.157 130.053C199.76 129.429 199.353 128.816 198.92 128.216C198.721 127.933 198.547 127.637 198.372 127.338C198.184 127.039 197.995 126.741 197.804 126.444C197.752 126.362 197.699 126.279 197.645 126.195C197.258 125.595 196.855 125.009 196.442 124.427C196.196 124.072 195.97 123.706 195.744 123.337C195.537 123.011 195.316 122.698 195.093 122.384C194.829 122.01 194.578 121.641 194.359 121.239C194.105 120.797 193.824 120.41 193.508 120.011C193.284 119.698 193.098 119.369 192.91 119.033C192.667 118.614 192.394 118.215 192.123 117.814C191.729 117.228 191.339 116.641 190.963 116.043C190.38 115.118 189.769 114.212 189.161 113.303C188.924 112.95 188.688 112.596 188.452 112.242C188.399 112.163 188.346 112.084 188.291 112.003C188.24 111.926 188.189 111.85 188.136 111.771C188.087 111.699 188.039 111.628 187.988 111.555C187.826 111.298 187.826 111.298 187.696 111.022C187.411 110.447 187.411 110.447 186.878 110.134C186.526 110.101 186.188 110.102 185.836 110.114C185.707 110.114 185.578 110.114 185.446 110.113C185.035 110.114 184.624 110.121 184.213 110.129C180.267 110.179 180.267 110.179 178.782 109.076C178.672 108.997 178.563 108.918 178.45 108.837C178.372 108.767 178.295 108.697 178.215 108.625C178.215 108.537 178.215 108.449 178.215 108.358C178.136 108.325 178.057 108.293 177.976 108.259C176.954 107.676 176.517 106.332 176.204 105.257C175.704 103.231 176.01 101.361 177.013 99.5359C177.376 99.0455 177.775 98.621 178.215 98.1993C178.288 98.1213 178.362 98.0432 178.438 97.9628C179.396 97.0227 180.898 96.5787 182.216 96.5787C182.461 96.5782 182.461 96.5782 182.711 96.5777C182.892 96.578 183.072 96.5783 183.253 96.5785C183.443 96.5784 183.634 96.5781 183.825 96.5778C184.235 96.5772 184.645 96.5769 185.056 96.5769C185.706 96.5768 186.357 96.5751 187.007 96.573C187.117 96.5726 187.227 96.5723 187.34 96.5719C187.565 96.5712 187.79 96.5705 188.015 96.5698C189.528 96.5651 191.042 96.5616 192.556 96.5619C193.578 96.5621 194.599 96.56 195.621 96.5551C196.161 96.5527 196.7 96.5514 197.24 96.553C197.749 96.5546 198.258 96.553 198.767 96.5491C198.953 96.5482 199.138 96.5484 199.324 96.5499C200.68 96.5599 202.032 96.4079 203.115 95.5148C204.047 94.5771 204.4 93.487 204.446 92.1845C204.411 91.0568 204.142 89.9195 203.311 89.1103C202.22 88.18 201.341 87.8469 199.919 87.854C199.781 87.8532 199.643 87.8523 199.501 87.8514C199.039 87.8489 198.577 87.8492 198.115 87.8496C197.778 87.8483 197.441 87.8469 197.104 87.8454C196.293 87.8421 195.482 87.8406 194.672 87.8399C193.734 87.839 192.796 87.8356 191.858 87.8322C189.382 87.8245 186.906 87.8202 184.43 87.8154C178.899 87.8017 173.368 87.7879 167.669 87.7737C167.669 102.55 167.669 117.326 167.669 132.551C163.484 132.551 159.299 132.551 154.987 132.551C154.767 132.33 154.837 132.068 154.836 131.774C154.836 131.681 154.836 131.588 154.837 131.493C154.837 131.394 154.836 131.296 154.836 131.195C154.836 130.861 154.836 130.528 154.837 130.194C154.836 129.954 154.836 129.715 154.836 129.475C154.835 128.812 154.836 128.15 154.836 127.488C154.836 126.775 154.836 126.062 154.836 125.349C154.835 123.95 154.835 122.552 154.835 121.154C154.836 120.018 154.836 118.882 154.836 117.747C154.836 117.585 154.836 117.424 154.836 117.258C154.836 116.93 154.836 116.603 154.835 116.275C154.835 113.199 154.836 110.122 154.836 107.046C154.837 104.403 154.837 101.761 154.836 99.1179C154.835 96.0531 154.835 92.9882 154.836 89.9233C154.836 89.5969 154.836 89.2704 154.836 88.9439C154.836 88.7833 154.836 88.6226 154.836 88.4571C154.836 87.3219 154.836 86.1868 154.835 85.0517C154.835 83.6694 154.835 82.2871 154.836 80.9048C154.836 80.1988 154.836 79.4928 154.836 78.7868C154.835 78.1416 154.836 77.4964 154.836 76.8512C154.837 76.6167 154.836 76.3822 154.836 76.1477C154.836 75.8311 154.836 75.5145 154.837 75.1979C154.836 75.105 154.836 75.0121 154.836 74.9164C154.839 74.1103 154.937 74.1235 155.721 74.1226Z" fill="white"/>
<path d="M457.212 74.1426C477.828 74.1426 498.445 74.1426 519.686 74.1426C519.686 78.6416 519.686 83.1407 519.686 87.7761C503.299 87.7761 486.911 87.7761 470.027 87.7761C470.027 98.0975 470.027 108.419 470.027 119.053C486.415 119.053 502.802 119.053 519.686 119.053C519.686 123.508 519.686 127.963 519.686 132.553C499.07 132.553 478.453 132.553 457.212 132.553C457.212 113.278 457.212 94.0021 457.212 74.1426Z" fill="white"/>
<path d="M83.0322 74.1426C103.649 74.1426 124.265 74.1426 145.506 74.1426C145.506 78.6416 145.506 83.1407 145.506 87.7761C129.119 87.7761 112.731 87.7761 95.8474 87.7761C95.8474 98.0975 95.8474 108.419 95.8474 119.053C112.235 119.053 128.622 119.053 145.506 119.053C145.506 123.508 145.506 127.963 145.506 132.553C124.89 132.553 104.273 132.553 83.0322 132.553C83.0322 113.278 83.0322 94.0021 83.0322 74.1426Z" fill="white"/>
<path d="M386.078 74.128C386.255 74.1287 386.255 74.1287 386.436 74.1294C386.621 74.1294 386.621 74.1294 386.811 74.1294C387.222 74.1295 387.633 74.1305 388.044 74.1316C388.328 74.1318 388.612 74.132 388.896 74.1321C389.645 74.1326 390.395 74.134 391.144 74.1354C391.908 74.1368 392.673 74.1374 393.437 74.1381C394.937 74.1395 396.438 74.1418 397.938 74.1446C397.938 74.2315 397.938 74.3183 397.938 74.4078C397.943 79.5566 397.951 84.7054 397.962 89.8543C397.963 90.4728 397.965 91.0913 397.966 91.7098C397.966 91.8329 397.966 91.9561 397.967 92.0829C397.971 94.0755 397.973 96.0681 397.975 98.0607C397.976 100.106 397.98 102.151 397.985 104.196C397.989 105.458 397.991 106.72 397.99 107.981C397.99 108.847 397.992 109.712 397.996 110.578C397.998 111.077 397.999 111.576 397.998 112.075C397.996 112.617 397.999 113.159 398.002 113.701C398.001 113.936 398.001 113.936 397.999 114.175C398.01 115.187 398.201 115.991 398.606 116.917C398.658 117.05 398.658 117.05 398.711 117.186C399.064 117.948 399.736 118.324 400.474 118.654C401.266 118.888 401.97 118.96 402.792 118.956C402.913 118.957 403.035 118.957 403.16 118.958C403.565 118.959 403.97 118.959 404.375 118.958C404.666 118.959 404.958 118.959 405.249 118.96C406.039 118.962 406.828 118.962 407.618 118.962C408.278 118.962 408.937 118.962 409.597 118.963C411.243 118.964 412.889 118.964 414.535 118.963C416.051 118.963 417.567 118.965 419.083 118.967C420.462 118.97 421.841 118.97 423.22 118.97C424.043 118.97 424.866 118.97 425.689 118.972C426.464 118.974 427.238 118.973 428.012 118.972C428.296 118.971 428.579 118.972 428.863 118.973C429.251 118.974 429.639 118.973 430.028 118.971C430.139 118.972 430.25 118.973 430.365 118.974C431.582 118.963 432.642 118.649 433.583 117.866C434.332 117.07 434.664 116.074 434.667 114.999C434.668 114.853 434.668 114.707 434.669 114.557C434.669 114.396 434.669 114.236 434.669 114.071C434.67 113.816 434.67 113.816 434.671 113.555C434.673 113.083 434.674 112.61 434.675 112.137C434.676 111.627 434.678 111.118 434.68 110.608C434.683 109.725 434.685 108.842 434.687 107.959C434.69 106.682 434.694 105.405 434.698 104.128C434.704 102.056 434.71 99.9847 434.715 97.913C434.721 95.9005 434.726 93.888 434.732 91.8754C434.733 91.6894 434.733 91.6894 434.733 91.4996C434.735 90.8774 434.737 90.2552 434.739 89.633C434.754 84.4702 434.768 79.3074 434.782 74.1446C439.011 74.1446 443.24 74.1446 447.597 74.1446C447.606 79.6105 447.613 85.0763 447.617 90.5421C447.618 91.1881 447.618 91.834 447.619 92.4799C447.619 92.6085 447.619 92.7371 447.619 92.8696C447.621 94.9491 447.624 97.0286 447.628 99.1081C447.632 101.243 447.634 103.379 447.635 105.514C447.635 106.83 447.637 108.147 447.64 109.464C447.642 110.368 447.643 111.272 447.642 112.176C447.642 112.696 447.643 113.217 447.645 113.738C447.647 114.216 447.647 114.694 447.645 115.173C447.645 115.425 447.647 115.677 447.649 115.929C447.643 117.107 447.459 118.178 447.197 119.322C447.171 119.439 447.145 119.555 447.119 119.675C446.53 122.315 445.304 124.6 443.592 126.674C443.531 126.752 443.469 126.83 443.406 126.91C443.252 127.104 443.089 127.291 442.925 127.476C442.837 127.476 442.749 127.476 442.658 127.476C442.625 127.552 442.593 127.629 442.56 127.708C441.873 128.937 440.367 129.712 439.187 130.416C439.11 130.464 439.033 130.511 438.953 130.56C437.521 131.432 436.01 131.912 434.381 132.288C434.28 132.312 434.178 132.336 434.073 132.361C432.609 132.656 431.117 132.593 429.631 132.592C429.313 132.592 428.994 132.593 428.675 132.594C427.902 132.595 427.129 132.596 426.356 132.595C425.727 132.595 425.097 132.595 424.468 132.596C424.378 132.596 424.288 132.596 424.196 132.596C424.013 132.596 423.83 132.597 423.648 132.597C421.938 132.598 420.228 132.598 418.518 132.597C416.959 132.596 415.399 132.598 413.84 132.6C412.233 132.603 410.627 132.604 409.021 132.604C408.121 132.603 407.222 132.604 406.322 132.606C405.475 132.607 404.628 132.607 403.781 132.605C403.472 132.605 403.163 132.605 402.854 132.606C400.685 132.614 398.624 132.479 396.545 131.811C396.441 131.779 396.338 131.746 396.232 131.712C394.69 131.19 393.216 130.345 391.931 129.347C391.931 129.259 391.931 129.171 391.931 129.08C391.835 129.047 391.738 129.014 391.639 128.98C390.554 128.497 389.848 127.448 389.128 126.54C389.071 126.48 389.014 126.42 388.955 126.357C388.293 125.643 387.848 124.809 387.385 123.96C387.275 123.762 387.158 123.568 387.041 123.375C385.583 120.926 385.101 117.845 385.106 115.042C385.106 114.867 385.106 114.693 385.105 114.513C385.105 114.031 385.105 113.549 385.105 113.067C385.106 112.547 385.105 112.026 385.105 111.506C385.104 110.487 385.104 109.468 385.105 108.45C385.105 107.622 385.105 106.795 385.105 105.968C385.105 105.85 385.105 105.732 385.105 105.611C385.105 105.372 385.105 105.132 385.105 104.893C385.104 102.651 385.105 100.409 385.106 98.1663C385.106 96.2407 385.106 94.3151 385.105 92.3895C385.105 90.1539 385.105 87.9182 385.105 85.6825C385.105 85.4444 385.105 85.2063 385.105 84.9682C385.105 84.8511 385.105 84.7339 385.105 84.6132C385.105 83.7859 385.105 82.9587 385.105 82.1314C385.104 81.1246 385.104 80.1177 385.105 79.1109C385.105 78.5968 385.106 78.0827 385.105 77.5686C385.105 77.0127 385.105 76.4567 385.106 75.9008C385.106 75.7365 385.105 75.5723 385.105 75.403C385.105 75.2554 385.106 75.1077 385.106 74.9555C385.106 74.8271 385.106 74.6986 385.106 74.5662C385.141 73.9597 385.57 74.1289 386.078 74.128Z" fill="white"/>
<path d="M305.026 74.1431C307.02 74.093 309.013 74.0554 311.007 74.0323C311.933 74.0213 312.859 74.0063 313.785 73.9818C314.679 73.9581 315.573 73.9458 316.467 73.9402C316.808 73.9363 317.148 73.9286 317.488 73.917C320.081 73.8324 320.081 73.8324 320.795 74.3482C321.266 74.8393 321.578 75.391 321.856 76.0087C322.156 76.6692 322.543 77.2802 322.964 77.869C323.551 78.6983 324.12 79.531 324.633 80.4085C325.002 81.0325 325.42 81.609 325.85 82.1916C326.279 82.7879 326.665 83.4104 327.052 84.0341C327.631 84.955 328.224 85.8642 328.829 86.7678C329.155 87.2563 329.476 87.7475 329.789 88.2445C330.317 89.0809 330.867 89.9017 331.417 90.7236C331.76 91.2367 332.101 91.7507 332.443 92.2645C332.7 92.6501 332.957 93.0354 333.214 93.4202C333.62 94.0271 334.023 94.6353 334.411 95.2534C334.882 96 335.373 96.7332 335.863 97.4672C336.414 98.2918 336.96 99.1181 337.487 99.9582C337.897 100.598 338.322 101.229 338.745 101.861C339.118 102.419 339.485 102.98 339.843 103.549C340.129 104.004 340.425 104.447 340.735 104.885C341.322 105.715 341.859 106.575 342.394 107.439C342.477 107.572 342.56 107.705 342.646 107.843C342.721 107.964 342.796 108.086 342.874 108.211C343.049 108.509 343.049 108.509 343.338 108.628C343.383 108.54 343.427 108.452 343.472 108.361C343.56 108.361 343.648 108.361 343.739 108.361C343.764 108.256 343.789 108.151 343.814 108.043C344.031 107.496 344.321 107.086 344.665 106.612C344.976 106.172 345.268 105.723 345.558 105.27C345.635 105.148 345.635 105.148 345.714 105.025C345.977 104.613 346.236 104.199 346.492 103.783C346.73 103.4 346.983 103.031 347.243 102.663C347.693 102.027 348.114 101.376 348.53 100.718C348.73 100.402 348.931 100.092 349.156 99.7927C349.377 99.4973 349.559 99.1884 349.746 98.8706C349.931 98.5746 350.117 98.2793 350.305 97.9851C350.383 97.8626 350.383 97.8626 350.463 97.7376C350.879 97.0933 351.322 96.4741 351.785 95.8632C352.027 95.5285 352.027 95.5285 352.214 95.1302C352.418 94.7232 352.65 94.3875 352.925 94.0254C353.36 93.438 353.743 92.8384 354.111 92.2068C354.319 91.8638 354.566 91.5634 354.819 91.2519C354.944 91.0302 355.069 90.8085 355.194 90.5865C355.484 90.0924 355.808 89.6213 356.129 89.1467C356.579 88.4751 357.027 87.803 357.455 87.1167C357.764 86.6242 358.094 86.1552 358.44 85.6882C358.828 85.162 359.158 84.6332 359.464 84.0566C359.687 83.6535 359.941 83.2761 360.201 82.8959C360.372 82.6432 360.539 82.3879 360.704 82.1315C360.8 81.9847 360.895 81.8379 360.993 81.6867C361.082 81.5487 361.17 81.4107 361.262 81.2685C361.338 81.1666 361.415 81.0648 361.493 80.9599C361.581 80.9599 361.67 80.9599 361.76 80.9599C361.773 80.8632 361.785 80.7666 361.798 80.667C361.91 80.2278 362.084 79.9889 362.361 79.6316C362.801 79.0467 363.211 78.4524 363.604 77.8355C363.654 77.7577 363.704 77.6798 363.755 77.5996C363.961 77.2743 364.165 76.9478 364.36 76.6159C364.615 76.1977 364.892 75.7972 365.173 75.3962C365.462 74.9804 365.751 74.5649 366.032 74.1431C366.307 74.0938 366.307 74.0938 366.652 74.0949C366.783 74.0944 366.913 74.0938 367.048 74.0932C367.192 74.0947 367.336 74.0961 367.484 74.0976C367.635 74.0975 367.786 74.0975 367.942 74.0974C368.443 74.0977 368.944 74.1008 369.445 74.104C369.792 74.1047 370.139 74.1053 370.486 74.1057C371.307 74.1071 372.127 74.1102 372.948 74.1142C373.882 74.1187 374.817 74.1209 375.751 74.1229C377.673 74.1271 379.595 74.1342 381.517 74.1431C381.412 74.7925 381.138 75.232 380.766 75.7638C380.643 75.9442 380.52 76.1247 380.397 76.3052C380.337 76.393 380.277 76.4808 380.215 76.5713C380.002 76.8853 379.799 77.2049 379.598 77.5264C379.113 78.2964 378.606 79.0513 378.101 79.8076C377.663 80.4636 377.235 81.1248 376.815 81.7921C376.155 82.8245 375.475 83.8448 374.767 84.8444C374.094 85.7997 373.477 86.7926 372.851 87.7798C372.368 88.5429 371.875 89.2988 371.372 90.0489C370.766 90.9526 370.169 91.8605 369.588 92.7801C369.256 93.3009 368.912 93.8132 368.568 94.3261C368.357 94.6434 368.146 94.9609 367.934 95.2785C367.819 95.4523 367.703 95.6262 367.587 95.8C367.499 95.9316 367.499 95.9316 367.41 96.0657C367.352 96.1533 367.294 96.2408 367.233 96.331C367.176 96.417 367.119 96.503 367.06 96.5916C366.946 96.7628 366.832 96.934 366.718 97.1051C366.606 97.2737 366.494 97.4423 366.381 97.6109C366.125 97.9965 365.868 98.3818 365.61 98.7667C365.204 99.3736 364.802 99.9817 364.413 100.6C363.942 101.346 363.452 102.08 362.962 102.814C362.412 103.637 361.867 104.462 361.34 105.301C360.986 105.855 360.622 106.402 360.259 106.949C360.189 107.053 360.12 107.158 360.048 107.266C359.982 107.365 359.916 107.464 359.848 107.566C359.789 107.655 359.73 107.744 359.669 107.835C359.545 108.015 359.416 108.193 359.284 108.367C359.064 108.664 358.891 108.979 358.71 109.3C358.416 109.804 358.082 110.283 357.756 110.767C357.569 111.045 357.383 111.323 357.197 111.602C357.109 111.732 357.022 111.862 356.932 111.997C356.78 112.229 356.633 112.463 356.491 112.702C356.25 113.1 355.987 113.477 355.72 113.857C355.248 114.533 354.798 115.219 354.366 115.921C354.151 116.247 354.151 116.247 353.891 116.564C353.631 116.898 353.424 117.239 353.219 117.609C352.998 118.003 352.753 118.382 352.508 118.761C352.455 118.843 352.403 118.924 352.349 119.008C351.97 119.594 351.574 120.167 351.17 120.737C350.857 121.189 350.566 121.655 350.273 122.121C349.97 122.596 349.659 123.064 349.346 123.531C348.961 124.106 348.58 124.683 348.211 125.269C347.847 125.846 347.472 126.415 347.093 126.981C346.608 127.707 346.132 128.437 345.662 129.173C345.224 129.858 344.775 130.534 344.321 131.209C344.086 131.559 343.861 131.906 343.659 132.277C343.597 132.368 343.535 132.46 343.472 132.553C343.34 132.553 343.208 132.553 343.071 132.553C342.912 132.368 342.912 132.368 342.759 132.109C342.703 132.016 342.646 131.922 342.588 131.826C342.53 131.727 342.472 131.628 342.412 131.526C342.039 130.899 341.668 130.311 341.203 129.747C341.073 129.522 340.944 129.296 340.818 129.069C340.527 128.566 340.193 128.09 339.868 127.608C339.681 127.33 339.495 127.051 339.309 126.773C339.221 126.642 339.134 126.512 339.044 126.378C338.893 126.146 338.745 125.911 338.603 125.673C338.363 125.275 338.099 124.898 337.832 124.517C337.227 123.649 336.652 122.763 336.1 121.86C335.708 121.22 335.284 120.605 334.855 119.99C334.439 119.392 334.046 118.782 333.661 118.163C333.466 117.85 333.466 117.85 333.244 117.569C333.005 117.24 332.907 116.902 332.793 116.514C332.705 116.514 332.616 116.514 332.526 116.514C332.359 116.296 332.359 116.296 332.173 115.991C332.104 115.881 332.036 115.771 331.965 115.657C331.894 115.54 331.823 115.423 331.75 115.303C331.179 114.369 331.179 114.369 330.563 113.465C330.306 113.107 330.08 112.75 329.856 112.37C329.648 112.048 329.435 111.729 329.222 111.41C329.163 111.322 329.105 111.233 329.044 111.143C328.631 110.522 328.202 109.914 327.757 109.316C327.567 108.997 327.505 108.726 327.453 108.361C327.365 108.361 327.277 108.361 327.186 108.361C327.007 108.13 327.007 108.13 326.804 107.809C326.692 107.634 326.692 107.634 326.578 107.456C326.501 107.333 326.423 107.21 326.343 107.082C326.191 106.843 326.039 106.603 325.886 106.364C325.812 106.248 325.739 106.132 325.663 106.013C325.474 105.724 325.279 105.441 325.077 105.161C324.821 104.804 324.607 104.442 324.395 104.058C324.233 103.789 324.05 103.547 323.857 103.298C323.494 102.827 323.214 102.337 322.934 101.813C322.739 101.47 322.494 101.183 322.247 100.876C322.117 100.662 321.989 100.448 321.863 100.232C321.549 99.6974 321.206 99.2087 320.827 98.7182C320.608 98.4196 320.429 98.1029 320.251 97.7783C319.965 97.2785 319.632 96.8078 319.31 96.331C318.704 95.4281 318.108 94.5205 317.527 93.6014C317.195 93.0801 316.851 92.567 316.507 92.0539C316.32 91.7755 316.134 91.497 315.948 91.2185C315.86 91.0882 315.773 90.9579 315.683 90.8237C315.319 90.2673 315.003 89.7381 314.771 89.1133C314.683 89.1133 314.595 89.1133 314.504 89.1133C314.333 88.8886 314.333 88.8886 314.142 88.5765C314.072 88.4644 314.003 88.3522 313.931 88.2366C313.859 88.1179 313.786 87.9992 313.712 87.8769C313.569 87.645 313.426 87.4131 313.283 87.1814C313.219 87.0779 313.156 86.9743 313.091 86.8675C312.906 86.5713 312.906 86.5713 312.693 86.2945C312.502 86.0391 312.502 86.0391 312.268 85.6214C311.976 85.1 311.635 84.62 311.291 84.1328C310.683 83.2671 310.094 82.3898 309.557 81.4778C309.15 80.7888 308.694 80.1414 308.23 79.4896C308.021 79.1923 307.812 78.8942 307.604 78.5957C307.508 78.4574 307.411 78.319 307.311 78.1765C307.068 77.8116 306.851 77.441 306.637 77.0589C306.328 76.5326 305.97 76.0364 305.62 75.5372C305.563 75.4531 305.505 75.369 305.446 75.2824C305.394 75.2078 305.342 75.1333 305.289 75.0565C305.132 74.7582 305.087 74.4734 305.026 74.1431Z" fill="white"/>
<path d="M12.8125 74.1426C33.429 74.1426 54.0454 74.1426 75.2866 74.1426C75.2866 78.6416 75.2866 83.1407 75.2866 87.7761C58.8992 87.7761 42.5117 87.7761 25.6277 87.7761C25.6277 102.552 25.6277 117.329 25.6277 132.553C21.3987 132.553 17.1697 132.553 12.8125 132.553C12.8125 113.278 12.8125 94.0021 12.8125 74.1426Z" fill="white"/>
<path d="M220.947 74.1255C221.096 74.126 221.096 74.126 221.249 74.1266C221.354 74.1264 221.46 74.1262 221.568 74.1261C221.926 74.1257 222.284 74.1263 222.642 74.1269C222.899 74.1269 223.156 74.1268 223.414 74.1266C224.124 74.1263 224.834 74.1268 225.545 74.1275C226.31 74.1281 227.075 74.1279 227.839 74.1278C229.166 74.1277 230.492 74.1281 231.818 74.1289C233.736 74.13 235.654 74.1303 237.571 74.1305C240.682 74.1308 243.793 74.1317 246.904 74.1329C249.927 74.1341 252.949 74.1351 255.972 74.1357C256.065 74.1357 256.158 74.1357 256.254 74.1357C257.189 74.1359 258.125 74.1361 259.06 74.1362C266.906 74.1376 274.753 74.1401 282.6 74.143C282.6 78.6421 282.6 83.1411 282.6 87.7765C274.362 87.7765 266.124 87.7765 257.637 87.7765C257.637 102.553 257.637 117.329 257.637 132.553C253.452 132.553 249.267 132.553 244.955 132.553C244.955 117.777 244.955 103.001 244.955 87.7765C236.761 87.7765 228.568 87.7765 220.125 87.7765C220.123 85.5518 220.12 83.3271 220.117 81.035C220.116 80.3314 220.115 79.6278 220.113 78.9029C220.113 78.0466 220.113 78.0466 220.113 77.6463C220.113 77.3655 220.112 77.0847 220.111 76.8039C220.11 76.3796 220.11 75.9553 220.11 75.5311C220.11 75.4051 220.109 75.2791 220.109 75.1493C220.111 74.1283 220.111 74.1283 220.947 74.1255Z" fill="white"/>
<path d="M295.837 11.7103C296 11.7098 296.163 11.7093 296.331 11.7087C297.153 11.7096 297.945 11.733 298.757 11.8607C298.772 12.0649 298.772 12.0649 298.787 12.2731C298.919 13.7832 299.287 15.1256 299.825 16.5389C299.864 16.6443 299.903 16.7498 299.943 16.8585C300.266 17.7072 300.671 18.4856 301.126 19.2706C301.233 19.4556 301.233 19.4556 301.342 19.6444C301.854 20.5234 302.41 21.3454 303.029 22.1527C303.251 22.4573 303.469 22.7643 303.688 23.0716C303.744 23.1509 303.801 23.2303 303.859 23.3121C304.027 23.5492 304.195 23.7865 304.363 24.0239C304.464 24.1659 304.565 24.3079 304.668 24.4542C306.331 26.827 307.889 29.316 308.902 32.0437C308.955 32.1872 308.955 32.1872 309.01 32.3336C309.535 33.8257 309.775 35.2657 309.761 36.8471C309.76 37.0116 309.759 37.1761 309.758 37.3456C309.717 39.5082 309.098 41.5099 307.542 43.0791C307.374 43.2335 307.204 43.3869 307.033 43.5386C306.929 43.6489 306.824 43.7591 306.716 43.8728C304.781 45.7183 302.552 46.7262 300.092 47.6821C299.951 47.7373 299.81 47.7924 299.665 47.8492C299.166 47.9827 298.678 48.013 298.164 48.033C298.048 48.0385 297.932 48.0439 297.813 48.0495C296.945 48.0835 296.079 48.0822 295.211 48.0722C294.981 48.07 294.751 48.0679 294.521 48.0658C294.066 48.0615 293.61 48.0533 293.155 48.043C291.318 48.0143 289.773 48.3364 288.136 49.2192C288.029 49.2768 287.921 49.3344 287.811 49.3938C286.06 50.3741 284.836 51.8228 283.672 53.4296C283.616 53.5064 283.561 53.5832 283.503 53.6623C282.94 54.4435 282.412 55.2339 281.962 56.0861C281.728 56.5049 281.455 56.8946 281.18 57.287C280.989 57.5946 280.86 57.9021 280.735 58.2414C280.071 58.0369 279.635 57.6422 279.125 57.1888C279.037 57.1109 278.949 57.033 278.858 56.9527C278.592 56.7158 278.328 56.4768 278.066 56.2365C277.956 56.1366 277.956 56.1366 277.844 56.0346C276.676 54.9526 275.576 53.7127 274.728 52.3603C274.728 52.2721 274.728 52.1839 274.728 52.093C274.64 52.093 274.552 52.093 274.461 52.093C274.425 52.0263 274.39 51.9596 274.353 51.8909C274.007 51.2557 273.639 50.6409 273.252 50.0296C272.875 49.4201 272.566 48.8351 272.323 48.162C272.195 47.8078 272.195 47.8078 272.015 47.4487C269.542 42.2435 269.474 35.8906 271.048 30.4386C271.179 29.9792 271.292 29.5152 271.408 29.0519C271.548 28.6303 271.726 28.2333 271.909 27.8288C272.059 27.4971 272.205 27.1637 272.35 26.8298C272.45 26.6018 272.55 26.3738 272.651 26.1458C272.7 26.0316 272.749 25.9173 272.8 25.7997C273.112 25.0949 273.464 24.5055 273.927 23.8903C274.019 23.7357 274.108 23.5799 274.194 23.4225C274.472 22.9245 274.779 22.47 275.129 22.019C275.217 22.019 275.305 22.019 275.396 22.019C275.433 21.8867 275.433 21.8867 275.471 21.7517C275.748 21.1724 276.167 20.7529 276.597 20.2814C276.759 20.0951 276.92 19.9086 277.081 19.7217C277.674 19.0446 278.303 18.4436 279 17.8755C279.115 17.7795 279.231 17.6835 279.349 17.5847C279.476 17.4794 279.603 17.3741 279.734 17.2656C279.914 17.1165 279.914 17.1165 280.097 16.9644C280.476 16.6665 280.866 16.4018 281.269 16.1379C281.386 16.0559 281.503 15.9738 281.623 15.8893C283.331 14.7035 285.181 13.8799 287.128 13.1675C287.384 13.0731 287.639 12.9746 287.894 12.8757C290.409 11.953 293.176 11.7018 295.837 11.7103Z" fill="white"/>
<path d="M287.944 74.1426C292.173 74.1426 296.402 74.1426 300.759 74.1426C300.759 93.418 300.759 112.693 300.759 132.553C296.53 132.553 292.301 132.553 287.944 132.553C287.944 113.278 287.944 94.0021 287.944 74.1426Z" fill="white"/>
<path d="M301.292 12.4014C302.057 12.359 302.643 12.4969 303.361 12.7522C303.467 12.789 303.572 12.8258 303.681 12.8636C303.998 12.9751 304.313 13.089 304.629 13.2033C304.794 13.2612 304.958 13.3191 305.128 13.3788C308.015 14.4581 310.594 16.1328 312.906 18.1488C313.097 18.3077 313.289 18.4665 313.481 18.625C313.6 18.7325 313.718 18.84 313.84 18.9508C313.84 19.039 313.84 19.1272 313.84 19.2181C313.916 19.2498 313.992 19.2815 314.07 19.3142C316.096 20.4554 317.728 23.6489 318.779 25.6339C318.828 25.7235 318.876 25.8131 318.926 25.9054C319.352 26.7204 319.66 27.5801 319.981 28.4408C320.036 28.5778 320.091 28.7148 320.148 28.8559C320.733 30.3634 321.027 31.9333 321.316 33.52C321.343 33.6662 321.343 33.6662 321.37 33.8154C322.496 40.127 320.635 46.9333 317.094 52.1659C315.556 54.2781 313.786 56.2626 311.704 57.8465C311.543 57.9716 311.543 57.9716 311.378 58.0992C308.747 60.0807 305.823 61.5856 302.627 62.391C302.431 62.4421 302.236 62.4933 302.04 62.5445C299.396 63.2276 296.8 63.2312 294.083 63.193C293.979 63.192 293.874 63.191 293.766 63.19C291.823 63.163 289.932 62.6716 288.076 62.1237C288.076 61.9914 288.076 61.859 288.076 61.7227C288.202 61.7046 288.329 61.6865 288.459 61.6679C289.932 61.4353 291.246 60.9683 292.615 60.3861C292.699 60.3514 292.783 60.3168 292.87 60.2811C293.588 59.9819 294.225 59.5914 294.884 59.1831C294.985 59.1247 295.085 59.0663 295.188 59.0061C295.745 58.6772 296.094 58.3699 296.486 57.8465C296.621 57.739 296.756 57.6315 296.895 57.5207C297.317 57.1518 297.449 56.8768 297.688 56.3762C297.838 56.1133 297.991 55.8515 298.146 55.5909C298.414 55.138 298.668 54.6898 298.889 54.2126C299.199 53.5737 299.638 53.0436 300.09 52.5C300.165 52.4104 300.239 52.3208 300.316 52.2285C301.227 51.1623 302.231 50.2038 303.294 49.2921C303.469 49.1362 303.645 48.9803 303.82 48.8243C304.199 48.4914 304.588 48.1785 304.988 47.872C305.438 47.5266 305.835 47.1598 306.231 46.7525C306.347 46.6643 306.462 46.5761 306.581 46.4852C306.911 46.2384 306.911 46.2384 307.082 45.9004C307.335 45.4916 307.627 45.2568 307.996 44.9559C308.23 44.751 308.416 44.5397 308.609 44.2965C308.705 44.1807 308.802 44.0649 308.901 43.9456C308.989 43.9456 309.077 43.9456 309.168 43.9456C309.201 43.8752 309.234 43.8047 309.268 43.7321C309.479 43.325 309.719 42.9401 309.96 42.5505C310.141 42.2583 310.322 41.9659 310.503 41.6734C310.573 41.5724 310.642 41.4714 310.714 41.3674C311.805 39.2733 311.701 36.8685 311.279 34.631C311.253 34.4913 311.226 34.3515 311.199 34.2075C311 33.2368 310.667 32.4037 310.236 31.515C310.11 31.2092 309.984 30.9029 309.86 30.5961C309.517 29.7872 309.1 29.0615 308.628 28.3218C308.307 27.8108 308.024 27.2841 307.741 26.7518C307.557 26.4084 307.557 26.4084 307.266 26.0015C306.989 25.5669 306.885 25.1969 306.765 24.6983C306.677 24.6983 306.589 24.6983 306.498 24.6983C306.346 24.4842 306.346 24.4842 306.179 24.185C306.117 24.0759 306.055 23.9667 305.992 23.8543C305.928 23.7386 305.863 23.6229 305.797 23.5037C305.36 22.7226 304.908 21.965 304.406 21.224C304.186 20.8917 303.996 20.5487 303.812 20.1955C303.531 19.6697 303.227 19.1778 302.894 18.6835C302.759 18.4169 302.625 18.1495 302.493 17.8815C302.407 17.7165 302.321 17.5517 302.235 17.3871C300.683 14.4017 300.683 14.4017 301.158 12.7355C301.202 12.6252 301.246 12.515 301.292 12.4014Z" fill="white"/>
<path d="M41.3924 96.5652C41.5377 96.565 41.6831 96.5648 41.8329 96.5645C42.3184 96.5641 42.804 96.5656 43.2895 96.567C43.6382 96.5671 43.9869 96.5671 44.3356 96.5669C45.0855 96.5668 45.8353 96.5676 46.5852 96.5691C47.6694 96.5713 48.7536 96.572 49.8378 96.5723C51.597 96.5729 53.3563 96.5747 55.1155 96.5772C56.824 96.5797 58.5325 96.5816 60.241 96.5827C60.3463 96.5828 60.4517 96.5828 60.5603 96.5829C61.089 96.5832 61.6177 96.5836 62.1464 96.5839C66.5297 96.5867 70.913 96.5916 75.2963 96.5974C75.2963 101.052 75.2963 105.507 75.2963 110.097C70.8022 110.109 66.3081 110.119 61.814 110.125C61.2829 110.125 60.7517 110.126 60.2206 110.127C60.062 110.127 60.062 110.127 59.9002 110.127C58.1904 110.129 56.4807 110.134 54.7709 110.138C53.0152 110.144 51.2595 110.146 49.5038 110.148C48.4213 110.148 47.3389 110.151 46.2564 110.155C45.4249 110.158 44.5934 110.158 43.7619 110.158C43.4219 110.158 43.0819 110.159 42.7418 110.161C40.4642 110.174 38.4046 110.184 36.6254 108.568C36.5235 108.455 36.4216 108.342 36.3167 108.226C36.2093 108.113 36.1019 108 35.9913 107.883C34.7967 106.408 34.2785 104.484 34.4478 102.612C34.665 101.013 35.2728 99.5879 36.4502 98.4686C36.5221 98.3873 36.594 98.306 36.6681 98.2222C37.8961 96.8575 39.6411 96.5551 41.3924 96.5652Z" fill="white"/>
<path d="M485.814 96.5485C485.959 96.5482 486.105 96.5478 486.255 96.5475C486.74 96.5468 487.224 96.549 487.709 96.5512C488.058 96.5513 488.407 96.5513 488.755 96.551C489.505 96.5508 490.254 96.5521 491.003 96.5543C492.086 96.5576 493.169 96.5586 494.252 96.5592C496.01 96.56 497.767 96.5627 499.525 96.5665C501.232 96.5702 502.938 96.573 504.645 96.5747C504.803 96.5749 504.803 96.5749 504.964 96.575C505.493 96.5756 506.021 96.5761 506.549 96.5766C510.928 96.5807 515.307 96.5881 519.686 96.5967C519.686 101.052 519.686 105.507 519.686 110.097C515.172 110.108 510.659 110.118 506.146 110.124C505.612 110.125 505.079 110.125 504.546 110.126C504.439 110.126 504.333 110.126 504.224 110.126C502.507 110.129 500.79 110.133 499.072 110.138C497.309 110.143 495.546 110.146 493.783 110.147C492.696 110.148 491.609 110.15 490.522 110.154C489.775 110.157 489.029 110.158 488.282 110.157C487.852 110.157 487.422 110.158 486.992 110.16C486.524 110.163 486.057 110.162 485.589 110.161C485.455 110.162 485.321 110.164 485.183 110.166C483.39 110.151 481.974 109.454 480.693 108.223C480.167 107.655 479.79 107.073 479.505 106.354C479.455 106.234 479.405 106.114 479.354 105.99C478.639 104.018 478.775 101.966 479.638 100.072C480.496 98.4141 481.827 97.3702 483.573 96.7913C484.329 96.5673 485.03 96.5417 485.814 96.5485Z" fill="white"/>
<path d="M111.627 96.5485C111.772 96.5482 111.918 96.5478 112.068 96.5475C112.552 96.5468 113.037 96.549 113.522 96.5512C113.871 96.5513 114.219 96.5513 114.568 96.551C115.317 96.5508 116.066 96.5521 116.816 96.5543C117.899 96.5576 118.982 96.5586 120.065 96.5592C121.822 96.56 123.58 96.5627 125.338 96.5665C127.044 96.5702 128.751 96.573 130.458 96.5747C130.616 96.5749 130.616 96.5749 130.777 96.575C131.305 96.5756 131.834 96.5761 132.362 96.5766C136.741 96.5807 141.12 96.5881 145.498 96.5967C145.498 101.052 145.498 105.507 145.498 110.097C140.985 110.108 136.472 110.118 131.958 110.124C131.425 110.125 130.892 110.125 130.358 110.126C130.252 110.126 130.146 110.126 130.037 110.126C128.319 110.129 126.602 110.133 124.885 110.138C123.122 110.143 121.359 110.146 119.596 110.147C118.509 110.148 117.421 110.15 116.334 110.154C115.588 110.157 114.841 110.158 114.095 110.157C113.665 110.157 113.235 110.158 112.805 110.16C112.337 110.163 111.869 110.162 111.402 110.161C111.268 110.162 111.134 110.164 110.996 110.166C109.295 110.151 107.901 109.531 106.657 108.385C105.983 107.674 105.57 106.847 105.184 105.953C105.138 105.851 105.092 105.748 105.045 105.642C104.442 104.025 104.624 102.018 105.317 100.473C105.383 100.303 105.383 100.303 105.45 100.13C106.016 98.8069 107.118 97.7334 108.417 97.1314C109.514 96.7359 110.456 96.5383 111.627 96.5485Z" fill="white"/>
</svg>
