<svg width="1779" height="486" viewBox="0 0 1779 486" fill="none" xmlns="http://www.w3.org/2000/svg">
<path d="M519.742 244.166C520.278 244.164 520.813 244.163 521.365 244.161C521.967 244.161 522.569 244.162 523.171 244.162C523.804 244.161 524.438 244.16 525.072 244.158C526.821 244.154 528.571 244.154 530.321 244.153C532.205 244.153 534.089 244.149 535.973 244.146C540.099 244.14 544.226 244.137 548.352 244.135C550.931 244.134 553.509 244.132 556.088 244.13C563.23 244.125 570.373 244.12 577.515 244.119C577.973 244.119 578.43 244.119 578.902 244.118C579.361 244.118 579.819 244.118 580.292 244.118C581.222 244.118 582.151 244.118 583.081 244.118C583.773 244.117 583.773 244.117 584.478 244.117C591.932 244.116 599.385 244.108 606.838 244.097C614.496 244.087 622.153 244.081 629.81 244.081C634.107 244.08 638.404 244.078 642.701 244.07C646.364 244.063 650.028 244.061 653.692 244.064C655.558 244.066 657.425 244.066 659.291 244.059C669.188 244.028 678.59 244.163 687.939 247.79C688.415 247.969 688.891 248.149 689.382 248.334C691.952 249.35 694.311 250.537 696.65 252.011C697.496 252.538 698.364 253.03 699.24 253.506C700.97 254.49 702.432 255.698 703.923 257.008C704.195 257.245 704.467 257.483 704.747 257.727C705.535 258.42 706.318 259.119 707.098 259.821C707.474 260.158 707.849 260.495 708.236 260.843C710.921 263.389 712.996 266.301 715.07 269.346C715.506 269.985 715.948 270.619 716.392 271.252C717.515 272.879 718.485 274.44 719.201 276.295C719.493 277.004 719.824 277.698 720.169 278.383C726.637 291.387 727.071 306.828 723.667 320.73C723.562 321.161 723.457 321.592 723.348 322.036C722.55 325.082 721.393 327.845 720.019 330.673C719.878 330.974 719.737 331.275 719.591 331.585C718.247 334.449 716.876 337.172 714.881 339.644C714.144 340.582 713.507 341.561 712.862 342.565C711.826 344.142 710.7 345.413 709.326 346.715C709.041 347.091 708.756 347.468 708.462 347.856C707.398 349.114 706.246 349.827 704.87 350.725C704.319 351.276 704.319 351.276 703.756 351.839C702.57 353.026 701.385 353.837 699.969 354.736C699.717 354.922 699.465 355.108 699.205 355.3C696.852 356.995 694.337 358.255 691.726 359.498C691.372 359.668 691.018 359.837 690.653 360.012C687.124 361.661 683.767 362.832 679.891 363.286C679.44 363.34 679.44 363.34 678.98 363.396C678.254 363.484 677.527 363.566 676.8 363.648C676.957 363.88 677.114 364.113 677.275 364.353C678.793 366.616 680.273 368.9 681.729 371.204C682.364 372.201 683.004 373.192 683.65 374.18C683.831 374.457 684.011 374.733 684.196 375.018C684.548 375.558 684.902 376.096 685.257 376.633C686.181 378.054 686.928 379.428 687.493 381.026C687.787 381.026 688.082 381.026 688.385 381.026C688.955 381.775 688.955 381.775 689.594 382.816C689.943 383.377 689.943 383.377 690.298 383.949C690.54 384.345 690.781 384.741 691.03 385.148C691.507 385.922 691.984 386.694 692.462 387.467C692.674 387.812 692.885 388.158 693.103 388.513C693.72 389.501 693.72 389.501 694.43 390.424C695.068 391.275 695.068 391.275 695.848 392.668C696.822 394.406 697.96 396.006 699.111 397.631C701.14 400.517 703.106 403.442 704.898 406.482C706.256 408.779 707.779 410.937 709.326 413.11C710.025 414.101 710.72 415.095 711.414 416.09C711.738 416.551 712.061 417.013 712.394 417.488C713.206 418.708 713.939 419.946 714.655 421.224C715.462 422.617 716.363 423.946 717.262 425.281C717.554 425.717 717.554 425.717 717.852 426.162C718.98 427.842 720.129 429.506 721.3 431.157C722.474 432.816 723.482 434.51 724.475 436.282C724.861 436.792 724.861 436.792 725.254 437.312C725.811 438.064 725.811 438.064 725.811 438.956C719.068 439.06 712.326 439.138 705.582 439.186C702.451 439.209 699.32 439.241 696.189 439.292C693.167 439.341 690.146 439.367 687.123 439.378C685.971 439.387 684.818 439.403 683.665 439.427C682.05 439.459 680.436 439.463 678.821 439.461C678.106 439.485 678.106 439.485 677.377 439.51C675.38 439.482 674.174 439.445 672.717 437.999C671.913 436.864 671.229 435.72 670.562 434.499C670.135 433.835 669.703 433.174 669.264 432.517C668.86 431.888 668.458 431.258 668.056 430.628C666.728 428.547 665.373 426.505 663.927 424.505C663.261 423.56 662.681 422.574 662.097 421.577C661.469 420.581 660.839 419.587 660.203 418.597C660.027 418.323 659.851 418.049 659.67 417.766C658.38 415.767 657.034 413.814 655.657 411.874C654.833 410.689 654.08 409.469 653.327 408.238C652.636 407.154 651.897 406.11 651.153 405.061C650.271 403.816 649.434 402.585 648.702 401.246C647.855 399.77 646.916 398.482 645.862 397.152C645.115 396.106 644.495 395.011 643.867 393.891C643.056 392.493 642.145 391.164 641.239 389.827C639.925 387.873 638.624 385.915 637.368 383.923C635.421 380.84 633.383 377.817 631.353 374.788C630.564 373.609 629.775 372.43 628.986 371.251C628.81 370.988 628.633 370.725 628.451 370.454C628.28 370.198 628.109 369.943 627.933 369.679C627.77 369.441 627.607 369.204 627.44 368.959C626.898 368.104 626.898 368.104 626.464 367.184C625.513 365.266 625.513 365.266 623.733 364.221C622.56 364.112 621.432 364.115 620.254 364.156C619.825 364.155 619.396 364.155 618.954 364.154C617.582 364.154 616.212 364.178 614.84 364.205C601.669 364.374 601.669 364.374 596.711 360.696C596.346 360.432 595.981 360.169 595.604 359.898C595.345 359.665 595.085 359.432 594.818 359.192C594.818 358.898 594.818 358.603 594.818 358.3C594.555 358.192 594.293 358.083 594.022 357.971C590.611 356.028 589.152 351.548 588.108 347.964C586.437 341.208 587.459 334.975 590.808 328.89C592.019 327.255 593.35 325.84 594.818 324.434C595.064 324.174 595.31 323.914 595.564 323.646C598.761 320.512 603.774 319.031 608.173 319.031C608.991 319.03 608.991 319.03 609.825 319.028C610.428 319.029 611.031 319.03 611.634 319.031C612.27 319.03 612.906 319.029 613.542 319.028C614.912 319.026 616.282 319.025 617.652 319.025C619.823 319.025 621.994 319.019 624.165 319.012C624.532 319.011 624.899 319.01 625.277 319.009C626.027 319.006 626.777 319.004 627.528 319.002C632.58 318.986 637.633 318.974 642.685 318.975C646.095 318.976 649.505 318.969 652.915 318.953C654.716 318.944 656.518 318.94 658.32 318.946C660.019 318.951 661.718 318.946 663.416 318.933C664.035 318.93 664.654 318.93 665.273 318.935C669.8 318.969 674.312 318.462 677.928 315.484C681.039 312.358 682.218 308.724 682.37 304.382C682.254 300.622 681.357 296.831 678.582 294.133C674.939 291.031 672.007 289.921 667.261 289.945C666.801 289.942 666.341 289.939 665.867 289.936C664.324 289.927 662.781 289.929 661.238 289.93C660.113 289.926 658.989 289.921 657.864 289.916C655.158 289.905 652.453 289.9 649.747 289.897C646.616 289.895 643.485 289.883 640.354 289.872C632.091 289.846 623.827 289.832 615.564 289.816C597.102 289.77 578.64 289.724 559.619 289.677C559.619 338.939 559.619 388.201 559.619 438.956C545.65 438.956 531.682 438.956 517.291 438.956C516.557 438.222 516.79 437.348 516.786 436.367C516.787 436.058 516.788 435.748 516.789 435.429C516.788 435.101 516.788 434.774 516.787 434.436C516.786 433.324 516.787 432.212 516.789 431.1C516.788 430.301 516.787 429.501 516.787 428.702C516.785 426.493 516.786 424.285 516.787 422.077C516.788 419.7 516.786 417.323 516.785 414.945C516.783 410.284 516.784 405.623 516.785 400.962C516.786 397.175 516.786 393.389 516.786 389.602C516.786 389.064 516.785 388.527 516.785 387.972C516.785 386.88 516.785 385.788 516.785 384.696C516.784 374.44 516.785 364.184 516.788 353.928C516.79 345.118 516.789 336.307 516.787 327.497C516.785 317.279 516.784 307.061 516.785 296.843C516.785 295.755 516.785 294.666 516.786 293.578C516.786 293.042 516.786 292.507 516.786 291.955C516.786 288.171 516.786 284.386 516.784 280.602C516.783 275.994 516.784 271.385 516.786 266.777C516.787 264.423 516.788 262.07 516.786 259.716C516.785 257.565 516.785 255.414 516.788 253.263C516.788 252.481 516.788 251.699 516.787 250.917C516.786 249.862 516.787 248.807 516.789 247.751C516.788 247.441 516.787 247.132 516.786 246.813C516.797 244.125 517.125 244.169 519.742 244.166Z" fill="#099B92"/>
<path d="M1526.03 244.225C1594.84 244.225 1663.65 244.225 1734.55 244.225C1734.55 259.224 1734.55 274.223 1734.55 289.677C1679.86 289.677 1625.16 289.677 1568.8 289.677C1568.8 324.087 1568.8 358.496 1568.8 393.949C1623.5 393.949 1678.2 393.949 1734.55 393.949C1734.55 408.801 1734.55 423.653 1734.55 438.955C1665.74 438.955 1596.93 438.955 1526.03 438.955C1526.03 374.694 1526.03 310.433 1526.03 244.225Z" fill="#099B92"/>
<path d="M277.137 244.225C345.948 244.225 414.76 244.225 485.657 244.225C485.657 259.224 485.657 274.223 485.657 289.677C430.961 289.677 376.264 289.677 319.91 289.677C319.91 324.087 319.91 358.496 319.91 393.949C374.607 393.949 429.303 393.949 485.657 393.949C485.657 408.801 485.657 423.653 485.657 438.955C416.845 438.955 348.034 438.955 277.137 438.955C277.137 374.694 277.137 310.433 277.137 244.225Z" fill="#099B92"/>
<path d="M1288.62 244.169C1289.21 244.172 1289.21 244.172 1289.81 244.174C1290.43 244.174 1290.43 244.174 1291.06 244.174C1292.44 244.174 1293.81 244.178 1295.18 244.181C1296.13 244.182 1297.08 244.183 1298.02 244.183C1300.53 244.185 1303.03 244.189 1305.53 244.194C1308.08 244.199 1310.63 244.201 1313.18 244.203C1318.19 244.208 1323.2 244.215 1328.2 244.225C1328.2 244.514 1328.2 244.804 1328.2 245.102C1328.22 262.267 1328.25 279.433 1328.28 296.598C1328.29 298.66 1328.29 300.722 1328.3 302.784C1328.3 303.195 1328.3 303.605 1328.3 304.028C1328.31 310.671 1328.32 317.314 1328.33 323.957C1328.33 330.776 1328.34 337.594 1328.36 344.413C1328.37 348.618 1328.38 352.824 1328.38 357.03C1328.38 359.916 1328.38 362.802 1328.4 365.688C1328.4 367.352 1328.41 369.015 1328.4 370.679C1328.4 372.487 1328.41 374.294 1328.42 376.101C1328.41 376.883 1328.41 376.883 1328.41 377.681C1328.44 381.053 1329.08 383.735 1330.43 386.819C1330.61 387.264 1330.61 387.264 1330.79 387.717C1331.96 390.258 1334.21 391.513 1336.67 392.612C1339.31 393.394 1341.66 393.632 1344.4 393.62C1344.81 393.621 1345.22 393.623 1345.63 393.625C1346.99 393.629 1348.34 393.628 1349.69 393.626C1350.66 393.628 1351.63 393.63 1352.61 393.633C1355.24 393.639 1357.88 393.639 1360.51 393.638C1362.71 393.637 1364.92 393.64 1367.12 393.642C1372.61 393.647 1378.11 393.647 1383.6 393.644C1388.66 393.641 1393.72 393.648 1398.78 393.657C1403.38 393.664 1407.98 393.667 1412.59 393.666C1415.34 393.665 1418.08 393.666 1420.83 393.672C1423.41 393.678 1426 393.677 1428.58 393.671C1429.53 393.67 1430.48 393.671 1431.42 393.675C1432.72 393.68 1434.01 393.676 1435.31 393.67C1435.68 393.674 1436.05 393.677 1436.43 393.68C1440.5 393.643 1444.04 392.596 1447.18 389.984C1449.68 387.33 1450.78 384.01 1450.79 380.425C1450.8 379.939 1450.8 379.453 1450.8 378.952C1450.8 378.418 1450.8 377.884 1450.8 377.333C1450.81 376.482 1450.81 376.482 1450.81 375.614C1450.82 374.038 1450.82 372.462 1450.82 370.886C1450.83 369.187 1450.83 367.487 1450.84 365.788C1450.85 362.844 1450.85 359.9 1450.86 356.955C1450.87 352.698 1450.88 348.441 1450.9 344.184C1450.92 337.278 1450.94 330.371 1450.96 323.465C1450.97 316.755 1450.99 310.046 1451.01 303.336C1451.01 302.716 1451.01 302.716 1451.02 302.083C1451.02 300.009 1451.03 297.935 1451.03 295.861C1451.08 278.649 1451.13 261.437 1451.18 244.225C1465.29 244.225 1479.41 244.225 1493.95 244.225C1493.98 262.447 1494.01 280.669 1494.02 298.891C1494.02 301.045 1494.02 303.198 1494.02 305.352C1494.02 305.78 1494.03 306.209 1494.03 306.651C1494.03 313.584 1494.04 320.516 1494.05 327.449C1494.07 334.568 1494.07 341.686 1494.08 348.805C1494.08 353.194 1494.08 357.584 1494.1 361.973C1494.1 364.986 1494.1 368 1494.1 371.014C1494.1 372.75 1494.1 374.486 1494.11 376.223C1494.12 377.817 1494.12 379.411 1494.11 381.005C1494.11 381.846 1494.12 382.686 1494.12 383.526C1494.1 387.455 1493.49 391.025 1492.61 394.84C1492.53 395.229 1492.44 395.617 1492.35 396.017C1490.39 404.818 1486.3 412.434 1480.58 419.349C1480.38 419.609 1480.17 419.869 1479.96 420.138C1479.45 420.783 1478.9 421.405 1478.36 422.022C1478.06 422.022 1477.77 422.022 1477.47 422.022C1477.36 422.278 1477.25 422.534 1477.14 422.797C1474.85 426.895 1469.82 429.478 1465.88 431.826C1465.62 431.984 1465.37 432.142 1465.1 432.305C1460.32 435.212 1455.28 436.812 1449.84 438.064C1449.5 438.145 1449.16 438.225 1448.81 438.308C1443.93 439.291 1438.95 439.084 1433.99 439.078C1432.92 439.08 1431.86 439.082 1430.79 439.085C1428.21 439.09 1425.63 439.091 1423.05 439.09C1420.95 439.09 1418.85 439.09 1416.75 439.092C1416.45 439.092 1416.15 439.093 1415.84 439.093C1415.23 439.094 1414.62 439.094 1414.01 439.095C1408.31 439.099 1402.6 439.099 1396.89 439.096C1391.69 439.094 1386.48 439.099 1381.28 439.107C1375.92 439.116 1370.56 439.119 1365.2 439.118C1362.19 439.117 1359.19 439.118 1356.19 439.124C1353.36 439.13 1350.53 439.129 1347.71 439.123C1346.67 439.122 1345.64 439.123 1344.61 439.127C1337.37 439.151 1330.49 438.703 1323.55 436.477C1323.21 436.367 1322.86 436.258 1322.51 436.145C1317.36 434.404 1312.44 431.59 1308.15 428.261C1308.15 427.967 1308.15 427.673 1308.15 427.37C1307.83 427.26 1307.51 427.149 1307.18 427.036C1303.56 425.426 1301.2 421.929 1298.8 418.903C1298.61 418.702 1298.42 418.501 1298.22 418.294C1296.01 415.912 1294.53 413.133 1292.98 410.302C1292.61 409.643 1292.22 408.995 1291.83 408.35C1286.97 400.185 1285.36 389.916 1285.37 380.569C1285.37 379.987 1285.37 379.406 1285.37 378.807C1285.37 377.2 1285.37 375.593 1285.37 373.987C1285.37 372.251 1285.37 370.516 1285.37 368.781C1285.37 365.385 1285.37 361.989 1285.37 358.593C1285.37 355.835 1285.37 353.076 1285.37 350.318C1285.37 349.925 1285.37 349.533 1285.37 349.128C1285.37 348.33 1285.37 347.533 1285.37 346.735C1285.37 339.26 1285.37 331.785 1285.37 324.309C1285.37 317.89 1285.37 311.47 1285.37 305.05C1285.37 297.597 1285.37 290.144 1285.37 282.69C1285.37 281.896 1285.37 281.103 1285.37 280.309C1285.37 279.918 1285.37 279.528 1285.37 279.125C1285.37 276.367 1285.37 273.609 1285.37 270.851C1285.37 267.495 1285.37 264.138 1285.37 260.782C1285.37 259.068 1285.37 257.354 1285.37 255.64C1285.37 253.786 1285.37 251.933 1285.37 250.08C1285.37 249.532 1285.37 248.984 1285.37 248.42C1285.37 247.928 1285.37 247.435 1285.37 246.928C1285.37 246.5 1285.37 246.072 1285.37 245.63C1285.49 243.608 1286.92 244.172 1288.62 244.169Z" fill="#099B93"/>
<path d="M1018.1 244.225C1024.75 244.058 1031.4 243.932 1038.06 243.855C1041.15 243.819 1044.24 243.769 1047.33 243.687C1050.31 243.608 1053.3 243.567 1056.28 243.548C1057.42 243.535 1058.56 243.509 1059.69 243.471C1068.35 243.189 1068.35 243.189 1070.73 244.908C1072.3 246.546 1073.34 248.385 1074.27 250.444C1075.27 252.646 1076.56 254.683 1077.97 256.646C1079.93 259.411 1081.83 262.187 1083.54 265.113C1084.77 267.193 1086.16 269.115 1087.6 271.057C1089.03 273.045 1090.32 275.12 1091.61 277.2C1093.54 280.27 1095.52 283.301 1097.54 286.313C1098.63 287.942 1099.7 289.579 1100.75 291.236C1102.51 294.025 1104.34 296.761 1106.18 299.501C1107.33 301.212 1108.47 302.925 1109.61 304.638C1110.46 305.924 1111.32 307.208 1112.18 308.491C1113.54 310.515 1114.88 312.542 1116.17 314.603C1117.75 317.092 1119.38 319.536 1121.02 321.983C1122.86 324.732 1124.68 327.487 1126.44 330.288C1127.81 332.423 1129.23 334.524 1130.64 336.63C1131.88 338.492 1133.11 340.362 1134.3 342.258C1135.26 343.775 1136.25 345.252 1137.28 346.715C1139.24 349.481 1141.03 352.348 1142.82 355.228C1143.1 355.672 1143.37 356.116 1143.66 356.574C1143.91 356.979 1144.16 357.385 1144.42 357.803C1145 358.796 1145 358.796 1145.97 359.192C1146.12 358.897 1146.27 358.603 1146.42 358.3C1146.71 358.3 1147.01 358.3 1147.31 358.3C1147.39 357.951 1147.47 357.602 1147.56 357.242C1148.28 355.417 1149.25 354.052 1150.4 352.469C1151.44 351.004 1152.41 349.508 1153.38 347.996C1153.64 347.591 1153.64 347.591 1153.9 347.179C1154.78 345.805 1155.64 344.426 1156.5 343.038C1157.29 341.761 1158.13 340.533 1159 339.306C1160.5 337.187 1161.91 335.015 1163.3 332.821C1163.97 331.769 1164.64 330.733 1165.39 329.736C1166.13 328.751 1166.73 327.721 1167.36 326.662C1167.98 325.675 1168.6 324.691 1169.22 323.71C1169.49 323.302 1169.49 323.302 1169.75 322.885C1171.14 320.737 1172.62 318.673 1174.16 316.636C1174.97 315.52 1174.97 315.52 1175.6 314.192C1176.28 312.835 1177.05 311.716 1177.97 310.509C1179.42 308.551 1180.7 306.552 1181.93 304.446C1182.62 303.303 1183.45 302.301 1184.29 301.262C1184.71 300.523 1185.13 299.784 1185.54 299.044C1186.51 297.397 1187.59 295.826 1188.66 294.244C1190.17 292.005 1191.66 289.765 1193.09 287.476C1194.12 285.835 1195.22 284.271 1196.38 282.714C1197.67 280.96 1198.77 279.197 1199.8 277.274C1200.54 275.931 1201.39 274.673 1202.25 273.405C1202.82 272.563 1203.38 271.711 1203.93 270.857C1204.25 270.367 1204.57 269.878 1204.9 269.374C1205.19 268.914 1205.49 268.453 1205.79 267.979C1206.05 267.64 1206.3 267.3 1206.57 266.951C1206.86 266.951 1207.16 266.951 1207.46 266.951C1207.5 266.628 1207.54 266.306 1207.58 265.974C1207.96 264.51 1208.54 263.713 1209.46 262.522C1210.93 260.572 1212.3 258.591 1213.61 256.535C1213.78 256.275 1213.94 256.015 1214.12 255.748C1214.8 254.664 1215.48 253.575 1216.14 252.468C1216.99 251.074 1217.91 249.739 1218.85 248.402C1219.81 247.016 1220.78 245.631 1221.72 244.225C1222.63 244.06 1222.63 244.06 1223.79 244.064C1224.22 244.062 1224.66 244.06 1225.11 244.058C1225.59 244.063 1226.07 244.068 1226.56 244.073C1227.07 244.073 1227.57 244.072 1228.09 244.072C1229.76 244.073 1231.44 244.084 1233.11 244.094C1234.27 244.097 1235.42 244.098 1236.58 244.1C1239.32 244.104 1242.06 244.115 1244.8 244.128C1247.92 244.143 1251.04 244.151 1254.15 244.157C1260.57 244.171 1266.99 244.195 1273.4 244.225C1273.05 246.389 1272.13 247.855 1270.89 249.628C1270.48 250.229 1270.07 250.831 1269.66 251.433C1269.46 251.725 1269.26 252.018 1269.05 252.32C1268.34 253.366 1267.67 254.432 1267 255.504C1265.38 258.071 1263.69 260.588 1262 263.109C1260.54 265.296 1259.11 267.5 1257.71 269.725C1255.5 273.167 1253.23 276.568 1250.87 279.901C1248.62 283.086 1246.56 286.396 1244.48 289.687C1242.86 292.231 1241.22 294.751 1239.54 297.252C1237.52 300.265 1235.52 303.292 1233.58 306.357C1232.48 308.094 1231.33 309.802 1230.18 311.511C1229.48 312.569 1228.77 313.628 1228.07 314.686C1227.68 315.266 1227.29 315.846 1226.91 316.425C1226.61 316.864 1226.61 316.864 1226.32 317.311C1226.12 317.603 1225.93 317.895 1225.73 318.196C1225.53 318.482 1225.34 318.769 1225.15 319.064C1224.77 319.635 1224.39 320.206 1224.01 320.776C1223.63 321.338 1223.26 321.9 1222.88 322.463C1222.03 323.748 1221.17 325.033 1220.31 326.316C1218.95 328.339 1217.61 330.366 1216.31 332.427C1214.74 334.916 1213.11 337.361 1211.47 339.808C1209.63 342.553 1207.81 345.304 1206.06 348.1C1204.87 349.946 1203.66 351.77 1202.45 353.594C1202.21 353.942 1201.98 354.291 1201.74 354.651C1201.52 354.981 1201.3 355.312 1201.07 355.653C1200.88 355.948 1200.68 356.244 1200.48 356.548C1200.06 357.149 1199.63 357.74 1199.19 358.321C1198.46 359.31 1197.88 360.362 1197.28 361.434C1196.3 363.114 1195.18 364.709 1194.09 366.321C1193.47 367.249 1192.85 368.177 1192.23 369.106C1191.93 369.541 1191.64 369.975 1191.34 370.422C1190.84 371.196 1190.34 371.978 1189.87 372.772C1189.07 374.099 1188.19 375.357 1187.3 376.626C1185.72 378.879 1184.22 381.165 1182.78 383.505C1182.06 384.591 1182.06 384.591 1181.19 385.65C1180.32 386.761 1179.63 387.901 1178.95 389.133C1178.21 390.446 1177.39 391.709 1176.58 392.974C1176.4 393.245 1176.23 393.516 1176.05 393.796C1174.78 395.751 1173.46 397.661 1172.11 399.561C1171.07 401.07 1170.1 402.622 1169.12 404.175C1168.11 405.757 1167.07 407.318 1166.02 408.877C1164.74 410.795 1163.47 412.717 1162.23 414.67C1161.02 416.594 1159.77 418.489 1158.5 420.379C1156.88 422.797 1155.29 425.233 1153.73 427.686C1152.27 429.969 1150.76 432.224 1149.25 434.472C1148.47 435.641 1147.72 436.798 1147.04 438.035C1146.83 438.339 1146.63 438.642 1146.42 438.955C1145.98 438.955 1145.53 438.955 1145.08 438.955C1144.55 438.336 1144.55 438.336 1144.04 437.474C1143.85 437.163 1143.66 436.851 1143.47 436.53C1143.27 436.2 1143.08 435.87 1142.88 435.53C1141.63 433.44 1140.39 431.48 1138.84 429.598C1138.41 428.848 1137.98 428.097 1137.56 427.34C1136.59 425.661 1135.47 424.074 1134.39 422.468C1133.76 421.54 1133.14 420.612 1132.52 419.683C1132.23 419.249 1131.94 418.814 1131.64 418.367C1131.13 417.594 1130.64 416.812 1130.17 416.017C1129.36 414.69 1128.48 413.432 1127.59 412.163C1125.57 409.268 1123.65 406.317 1121.81 403.305C1120.5 401.173 1119.09 399.122 1117.66 397.072C1116.27 395.078 1114.96 393.044 1113.67 390.981C1113.02 389.936 1113.02 389.936 1112.28 389C1111.48 387.903 1111.15 386.775 1110.77 385.482C1110.48 385.482 1110.18 385.482 1109.88 385.482C1109.32 384.755 1109.32 384.755 1108.7 383.74C1108.47 383.372 1108.25 383.004 1108.01 382.625C1107.77 382.235 1107.54 381.846 1107.29 381.444C1105.39 378.331 1105.39 378.331 1103.33 375.319C1102.47 374.125 1101.72 372.933 1100.97 371.669C1100.28 370.593 1099.57 369.53 1098.85 368.466C1098.66 368.172 1098.46 367.878 1098.26 367.575C1096.88 365.506 1095.45 363.48 1093.96 361.486C1093.33 360.421 1093.12 359.52 1092.95 358.3C1092.66 358.3 1092.36 358.3 1092.06 358.3C1091.46 357.532 1091.46 357.532 1090.78 356.46C1090.41 355.878 1090.41 355.878 1090.03 355.285C1089.77 354.874 1089.51 354.463 1089.25 354.039C1088.74 353.24 1088.23 352.441 1087.72 351.642C1087.47 351.257 1087.23 350.872 1086.98 350.475C1086.35 349.509 1085.7 348.568 1085.02 347.634C1084.16 346.443 1083.45 345.238 1082.74 343.956C1082.2 343.059 1081.59 342.251 1080.95 341.423C1079.74 339.852 1078.8 338.218 1077.87 336.473C1077.22 335.329 1076.4 334.37 1075.57 333.346C1075.14 332.636 1074.71 331.92 1074.29 331.202C1073.24 329.418 1072.1 327.789 1070.84 326.154C1070.1 325.158 1069.51 324.103 1068.91 323.021C1067.96 321.354 1066.85 319.785 1065.77 318.196C1063.75 315.185 1061.76 312.16 1059.82 309.095C1058.71 307.357 1057.56 305.647 1056.41 303.936C1055.79 303.008 1055.17 302.08 1054.55 301.151C1054.26 300.717 1053.97 300.283 1053.67 299.835C1052.45 297.98 1051.4 296.216 1050.62 294.133C1050.33 294.133 1050.03 294.133 1049.73 294.133C1049.16 293.384 1049.16 293.384 1048.52 292.343C1048.29 291.969 1048.06 291.595 1047.82 291.21C1047.58 290.814 1047.33 290.419 1047.09 290.011C1046.61 289.238 1046.13 288.465 1045.65 287.692C1045.44 287.347 1045.23 287.002 1045.01 286.646C1044.4 285.658 1044.4 285.658 1043.69 284.735C1043.05 283.884 1043.05 283.884 1042.27 282.491C1041.29 280.753 1040.16 279.153 1039 277.529C1036.98 274.643 1035.01 271.718 1033.22 268.677C1031.86 266.38 1030.34 264.222 1028.79 262.049C1028.09 261.058 1027.4 260.064 1026.7 259.069C1026.38 258.608 1026.05 258.146 1025.72 257.671C1024.91 256.455 1024.19 255.219 1023.47 253.945C1022.44 252.191 1021.25 250.537 1020.08 248.872C1019.89 248.592 1019.7 248.312 1019.5 248.023C1019.32 247.774 1019.15 247.526 1018.97 247.27C1018.45 246.275 1018.3 245.326 1018.1 244.225Z" fill="#099B92"/>
<path d="M42.7734 244.225C111.585 244.225 180.397 244.225 251.294 244.225C251.294 259.224 251.294 274.223 251.294 289.677C196.597 289.677 141.901 289.677 85.5469 289.677C85.5469 338.939 85.5469 388.201 85.5469 438.955C71.4316 438.955 57.3164 438.955 42.7734 438.955C42.7734 374.694 42.7734 310.433 42.7734 244.225Z" fill="#099B93"/>
<path d="M737.465 244.167C737.964 244.168 737.964 244.168 738.473 244.17C738.825 244.17 739.177 244.169 739.54 244.168C740.734 244.167 741.928 244.169 743.122 244.171C743.981 244.171 744.839 244.171 745.698 244.17C748.069 244.169 750.441 244.171 752.812 244.173C755.365 244.175 757.918 244.174 760.47 244.174C764.897 244.174 769.324 244.175 773.751 244.178C780.151 244.181 786.552 244.183 792.952 244.183C803.335 244.184 813.719 244.187 824.102 244.191C834.191 244.195 844.28 244.199 854.369 244.2C854.68 244.2 854.991 244.201 855.311 244.201C858.432 244.201 861.554 244.202 864.675 244.202C890.865 244.207 917.054 244.215 943.244 244.225C943.244 259.224 943.244 274.223 943.244 289.677C915.749 289.677 888.253 289.677 859.925 289.677C859.925 338.939 859.925 388.201 859.925 438.956C845.957 438.956 831.988 438.956 817.597 438.956C817.597 389.694 817.597 340.432 817.597 289.677C790.249 289.677 762.9 289.677 734.723 289.677C734.714 282.26 734.705 274.843 734.696 267.202C734.692 264.856 734.687 262.51 734.683 260.094C734.681 257.239 734.681 257.239 734.681 255.904C734.68 254.968 734.679 254.032 734.676 253.096C734.673 251.681 734.673 250.267 734.673 248.853C734.671 248.432 734.67 248.012 734.668 247.58C734.673 244.176 734.673 244.176 737.465 244.167Z" fill="#099B93"/>
<path d="M987.409 36.0702C987.954 36.0684 988.499 36.0667 989.06 36.0649C991.801 36.0679 994.447 36.1459 997.155 36.5715C997.205 37.2522 997.205 37.2522 997.256 37.9466C997.697 42.9808 998.924 47.4564 1000.72 52.1678C1000.85 52.5194 1000.98 52.8711 1001.11 53.2334C1002.19 56.0628 1003.55 58.658 1005.06 61.2749C1005.42 61.8919 1005.42 61.8919 1005.78 62.5213C1007.49 65.4518 1009.35 68.1921 1011.41 70.8833C1012.15 71.899 1012.88 72.9225 1013.61 73.9469C1013.8 74.2114 1013.99 74.476 1014.18 74.7486C1014.75 75.5391 1015.31 76.3303 1015.87 77.1218C1016.2 77.5952 1016.54 78.0685 1016.89 78.5561C1022.44 86.467 1027.64 94.7649 1031.02 103.858C1031.2 104.337 1031.2 104.337 1031.38 104.825C1033.13 109.799 1033.93 114.6 1033.89 119.872C1033.88 120.421 1033.88 120.969 1033.87 121.534C1033.74 128.744 1031.67 135.417 1026.48 140.649C1025.92 141.164 1025.35 141.675 1024.78 142.181C1024.43 142.548 1024.08 142.916 1023.72 143.295C1017.26 149.447 1009.82 152.808 1001.61 155.995C1001.14 156.178 1000.67 156.362 1000.19 156.552C998.522 156.997 996.891 157.097 995.178 157.164C994.791 157.182 994.404 157.201 994.005 157.219C991.108 157.333 988.218 157.328 985.32 157.295C984.553 157.288 983.786 157.281 983.018 157.274C981.498 157.259 979.978 157.232 978.458 157.198C972.326 157.102 967.171 158.176 961.706 161.119C961.348 161.311 960.99 161.503 960.621 161.701C954.776 164.969 950.693 169.799 946.807 175.156C946.621 175.412 946.435 175.668 946.243 175.932C944.364 178.536 942.603 181.171 941.099 184.012C940.319 185.408 939.408 186.707 938.49 188.016C937.852 189.041 937.422 190.066 937.005 191.198C934.787 190.516 933.331 189.2 931.631 187.688C931.336 187.429 931.042 187.169 930.739 186.901C929.852 186.111 928.971 185.314 928.094 184.513C927.729 184.18 927.729 184.18 927.356 183.84C923.455 180.233 919.786 176.099 916.955 171.591C916.955 171.297 916.955 171.003 916.955 170.7C916.661 170.7 916.367 170.7 916.064 170.7C915.945 170.477 915.825 170.255 915.702 170.026C914.546 167.908 913.318 165.859 912.026 163.821C910.768 161.789 909.738 159.838 908.926 157.594C908.499 156.414 908.499 156.414 907.9 155.216C899.646 137.863 899.42 116.684 904.673 98.5073C905.108 96.9758 905.486 95.4287 905.874 93.8844C906.341 92.4788 906.935 91.1552 907.546 89.8067C908.047 88.7008 908.533 87.5895 909.017 86.4761C909.352 85.716 909.686 84.9559 910.021 84.1959C910.186 83.815 910.35 83.4342 910.52 83.0418C911.561 80.6922 912.735 78.7272 914.282 76.6762C914.587 76.1609 914.885 75.6414 915.173 75.1166C916.099 73.4565 917.126 71.9412 918.292 70.4377C918.586 70.4377 918.88 70.4377 919.183 70.4377C919.307 69.9966 919.307 69.9966 919.434 69.5465C920.359 67.6152 921.757 66.2169 923.193 64.6448C923.733 64.0238 924.271 63.4019 924.808 62.7788C926.787 60.5216 928.886 58.5178 931.213 56.6239C931.598 56.3039 931.983 55.984 932.379 55.6543C932.803 55.3033 933.227 54.9524 933.664 54.5908C934.263 54.0936 934.263 54.0936 934.875 53.5864C936.14 52.5934 937.442 51.7109 938.787 50.8309C939.177 50.5575 939.566 50.2841 939.967 50.0024C945.668 46.049 951.843 43.3034 958.341 40.9283C959.198 40.6134 960.049 40.2851 960.9 39.9553C969.292 36.8793 978.529 36.0419 987.409 36.0702Z" fill="#099B92"/>
<path d="M961.065 244.225C975.181 244.225 989.296 244.225 1003.84 244.225C1003.84 308.486 1003.84 372.747 1003.84 438.955C989.724 438.955 975.608 438.955 961.065 438.955C961.065 374.694 961.065 310.433 961.065 244.225Z" fill="#099B93"/>
<path d="M1005.62 38.3538C1008.18 38.2127 1010.13 38.6723 1012.53 39.5236C1012.88 39.6461 1013.23 39.7687 1013.6 39.895C1014.65 40.2664 1015.71 40.6463 1016.76 41.0275C1017.31 41.2205 1017.86 41.4135 1018.42 41.6123C1028.06 45.2107 1036.67 50.7938 1044.39 57.515C1045.03 58.0446 1045.67 58.5739 1046.31 59.1025C1046.7 59.4609 1047.1 59.8193 1047.5 60.1886C1047.5 60.4827 1047.5 60.7768 1047.5 61.0799C1047.76 61.1856 1048.01 61.2912 1048.27 61.4001C1055.03 65.2047 1060.48 75.8514 1063.99 82.4691C1064.15 82.7678 1064.31 83.0665 1064.48 83.3742C1065.9 86.0913 1066.93 88.9574 1068 91.8268C1068.18 92.2835 1068.37 92.7402 1068.56 93.2107C1070.51 98.2364 1071.49 103.47 1072.46 108.76C1072.55 109.248 1072.55 109.248 1072.64 109.745C1076.39 130.787 1070.18 153.478 1058.36 170.922C1053.23 177.964 1047.32 184.58 1040.38 189.861C1039.84 190.278 1039.84 190.278 1039.29 190.703C1030.51 197.309 1020.75 202.326 1010.08 205.011C1009.42 205.182 1008.77 205.352 1008.12 205.523C999.294 207.8 990.629 207.812 981.562 207.685C981.212 207.682 980.863 207.679 980.503 207.675C974.018 207.585 967.705 205.947 961.512 204.12C961.512 203.679 961.512 203.238 961.512 202.783C961.933 202.723 962.355 202.663 962.789 202.601C967.707 201.825 972.09 200.268 976.661 198.327C976.941 198.212 977.222 198.096 977.511 197.977C979.908 196.98 982.033 195.678 984.235 194.317C984.57 194.122 984.905 193.927 985.25 193.727C987.107 192.63 988.273 191.606 989.582 189.861C990.032 189.502 990.482 189.144 990.946 188.775C992.356 187.545 992.795 186.628 993.592 184.959C994.095 184.082 994.606 183.21 995.123 182.341C996.015 180.831 996.865 179.337 997.602 177.746C998.638 175.616 1000.1 173.849 1001.61 172.036C1001.86 171.738 1002.11 171.439 1002.37 171.131C1005.4 167.577 1008.76 164.381 1012.31 161.342C1012.89 160.822 1013.47 160.302 1014.06 159.782C1015.32 158.672 1016.62 157.629 1017.96 156.607C1019.46 155.456 1020.79 154.233 1022.11 152.875C1022.49 152.581 1022.88 152.287 1023.28 151.984C1024.38 151.161 1024.38 151.161 1024.95 150.034C1025.79 148.672 1026.77 147.889 1028 146.886C1028.78 146.202 1029.4 145.498 1030.04 144.687C1030.37 144.301 1030.69 143.915 1031.02 143.517C1031.31 143.517 1031.61 143.517 1031.91 143.517C1032.02 143.282 1032.13 143.048 1032.25 142.805C1032.95 141.448 1033.75 140.165 1034.56 138.866C1035.16 137.892 1035.76 136.917 1036.37 135.942C1036.6 135.605 1036.83 135.269 1037.07 134.922C1040.71 127.94 1040.37 119.923 1038.96 112.464C1038.87 111.998 1038.78 111.532 1038.69 111.052C1038.02 107.816 1036.91 105.038 1035.47 102.076C1035.05 101.056 1034.63 100.035 1034.22 99.0123C1033.07 96.3155 1031.68 93.896 1030.11 91.43C1029.04 89.7265 1028.09 87.9705 1027.15 86.1958C1026.53 85.0511 1026.53 85.0511 1025.56 83.6945C1024.64 82.2457 1024.29 81.0121 1023.89 79.3498C1023.6 79.3498 1023.3 79.3498 1023 79.3498C1022.49 78.6362 1022.49 78.6362 1021.93 77.6387C1021.73 77.2748 1021.52 76.911 1021.31 76.536C1021.09 76.1503 1020.88 75.7646 1020.66 75.3672C1019.2 72.7631 1017.69 70.2376 1016.02 67.7671C1015.28 66.6592 1014.65 65.5157 1014.03 64.3384C1013.1 62.5855 1012.08 60.9453 1010.97 59.2974C1010.52 58.4088 1010.07 57.5171 1009.63 56.6238C1009.35 56.0737 1009.06 55.5243 1008.77 54.9754C1003.59 45.0226 1003.59 45.0226 1005.18 39.4679C1005.32 39.1002 1005.47 38.7326 1005.62 38.3538Z" fill="#099B92"/>
<path d="M138.133 318.98C138.618 318.979 139.103 318.979 139.603 318.978C141.224 318.976 142.845 318.981 144.465 318.986C145.629 318.986 146.793 318.986 147.957 318.986C150.46 318.985 152.962 318.988 155.465 318.993C159.084 319 162.703 319.003 166.322 319.004C172.193 319.006 178.065 319.012 183.937 319.02C189.639 319.028 195.342 319.035 201.044 319.038C201.396 319.039 201.748 319.039 202.11 319.039C203.875 319.04 205.639 319.041 207.404 319.042C222.034 319.052 236.664 319.068 251.294 319.087C251.294 333.939 251.294 348.792 251.294 364.094C236.294 364.133 221.295 364.166 206.295 364.185C204.522 364.187 202.749 364.189 200.976 364.192C200.447 364.192 200.447 364.192 199.907 364.193C194.2 364.201 188.493 364.215 182.787 364.231C176.927 364.248 171.067 364.258 165.207 364.261C161.594 364.264 157.981 364.272 154.368 364.286C151.593 364.297 148.817 364.298 146.042 364.295C144.907 364.296 143.772 364.299 142.637 364.306C135.035 364.35 128.161 364.384 122.222 358.997C121.882 358.62 121.542 358.243 121.192 357.855C120.833 357.478 120.475 357.102 120.106 356.713C116.119 351.795 114.389 345.381 114.954 339.14C115.679 333.809 117.708 329.057 121.637 325.326C121.877 325.055 122.118 324.784 122.365 324.504C126.463 319.955 132.288 318.946 138.133 318.98Z" fill="#099B92"/>
<path d="M1621.5 318.926C1621.98 318.925 1622.47 318.924 1622.97 318.923C1624.59 318.921 1626.21 318.928 1627.82 318.935C1628.99 318.936 1630.15 318.935 1631.32 318.935C1633.82 318.934 1636.32 318.938 1638.82 318.946C1642.43 318.957 1646.05 318.96 1649.66 318.962C1655.53 318.965 1661.39 318.973 1667.26 318.986C1672.96 318.998 1678.65 319.008 1684.35 319.014C1684.88 319.014 1684.88 319.014 1685.42 319.015C1687.18 319.016 1688.94 319.018 1690.71 319.02C1705.32 319.034 1719.94 319.058 1734.55 319.087C1734.55 333.939 1734.55 348.791 1734.55 364.093C1719.49 364.133 1704.42 364.166 1689.36 364.184C1687.58 364.187 1685.8 364.189 1684.02 364.191C1683.66 364.192 1683.31 364.192 1682.94 364.193C1677.21 364.201 1671.48 364.215 1665.75 364.231C1659.87 364.248 1653.98 364.258 1648.1 364.261C1644.47 364.264 1640.84 364.271 1637.21 364.286C1634.72 364.295 1632.23 364.298 1629.74 364.296C1628.3 364.295 1626.87 364.297 1625.43 364.306C1623.87 364.315 1622.31 364.313 1620.75 364.308C1620.3 364.313 1619.85 364.318 1619.39 364.324C1613.41 364.274 1608.68 361.951 1604.4 357.848C1602.65 355.952 1601.39 354.013 1600.44 351.616C1600.27 351.215 1600.11 350.815 1599.94 350.401C1597.55 343.828 1598 336.986 1600.88 330.673C1603.75 325.146 1608.19 321.666 1614.02 319.736C1616.54 318.989 1618.88 318.903 1621.5 318.926Z" fill="#0A9B92"/>
<path d="M372.603 318.926C373.089 318.925 373.575 318.924 374.075 318.923C375.693 318.921 377.311 318.928 378.929 318.935C380.093 318.936 381.257 318.935 382.421 318.935C384.921 318.934 387.422 318.938 389.922 318.946C393.537 318.957 397.153 318.96 400.768 318.962C406.634 318.965 412.5 318.973 418.367 318.986C424.063 318.998 429.759 319.008 435.456 319.014C435.983 319.014 435.983 319.014 436.521 319.015C438.285 319.016 440.048 319.018 441.812 319.02C456.427 319.034 471.042 319.058 485.657 319.087C485.657 333.939 485.657 348.791 485.657 364.093C470.593 364.133 455.529 364.166 440.464 364.184C438.684 364.187 436.904 364.189 435.124 364.191C434.77 364.192 434.415 364.192 434.05 364.193C428.319 364.201 422.587 364.215 416.856 364.231C410.971 364.248 405.086 364.258 399.202 364.261C395.573 364.264 391.944 364.271 388.316 364.286C385.824 364.295 383.333 364.298 380.842 364.296C379.406 364.295 377.971 364.297 376.536 364.306C374.975 364.315 373.414 364.313 371.853 364.308C371.405 364.313 370.958 364.318 370.497 364.324C364.82 364.276 360.168 362.208 356.016 358.386C353.765 356.017 352.388 353.259 351.099 350.28C350.946 349.938 350.793 349.596 350.636 349.244C348.623 343.852 349.229 337.162 351.545 332.01C351.763 331.444 351.763 331.444 351.987 330.868C353.875 326.455 357.556 322.877 361.892 320.869C365.553 319.551 368.697 318.892 372.603 318.926Z" fill="#099B92"/>
</svg>
