<svg width="173" height="172" viewBox="0 0 173 172" fill="none" xmlns="http://www.w3.org/2000/svg">
<path d="M86.2711 0.00522197C86.8162 0.00349872 87.3612 0.00177547 87.9228 0C90.6632 0.00296294 93.3092 0.0809633 96.0177 0.506531C96.0676 1.18722 96.0676 1.18722 96.1186 1.88165C96.5598 6.91587 97.7863 11.3914 99.5821 16.1028C99.7122 16.4545 99.8423 16.8061 99.9763 17.1684C101.056 19.9978 102.407 22.593 103.926 25.2099C104.282 25.8269 104.282 25.8269 104.645 26.4564C106.355 29.3868 108.21 32.1271 110.275 34.8184C111.017 35.8341 111.746 36.8575 112.475 37.8819C112.664 38.1465 112.852 38.411 113.046 38.6836C113.609 39.4741 114.17 40.2654 114.731 41.0569C115.067 41.5302 115.403 42.0035 115.749 42.4912C121.3 50.402 126.5 58.7 129.88 67.7934C130.058 68.2719 130.058 68.2719 130.24 68.76C131.992 73.7344 132.795 78.5351 132.748 83.8075C132.744 84.3558 132.74 84.9042 132.736 85.4691C132.598 92.679 130.532 99.3525 125.341 104.584C124.778 105.099 124.213 105.61 123.642 106.116C123.293 106.483 122.944 106.851 122.584 107.23C116.124 113.383 108.685 116.743 100.473 119.93C100.003 120.113 99.5336 120.297 99.0495 120.487C97.3848 120.932 95.7532 121.033 94.0405 121.099C93.6533 121.118 93.2662 121.136 92.8673 121.154C89.9703 121.268 87.0807 121.264 84.1826 121.23C83.4153 121.223 82.648 121.216 81.8807 121.209C80.3601 121.194 78.8403 121.167 77.32 121.133C71.1884 121.037 66.0338 122.111 60.5681 125.054C60.2099 125.246 59.8518 125.438 59.4829 125.636C53.6386 128.904 49.5551 133.734 45.6698 139.091C45.4835 139.347 45.2973 139.603 45.1054 139.867C43.226 142.471 41.4651 145.106 39.9611 147.947C39.181 149.343 38.2702 150.642 37.3521 151.951C36.7141 152.976 36.2848 154.001 35.8675 155.133C33.6491 154.451 32.1936 153.135 30.493 151.623C30.1987 151.364 29.9044 151.104 29.6012 150.836C28.714 150.046 27.8336 149.25 26.9564 148.449C26.591 148.115 26.591 148.115 26.2182 147.775C22.3173 144.168 18.6483 140.034 15.8175 135.526C15.8175 135.232 15.8175 134.938 15.8175 134.635C15.5234 134.635 15.2293 134.635 14.9263 134.635C14.8069 134.412 14.6874 134.19 14.5643 133.961C13.4086 131.843 12.1802 129.794 10.8885 127.756C9.6305 125.724 8.60048 123.773 7.78874 121.529C7.36105 120.349 7.36105 120.349 6.76187 119.152C-1.49144 101.798 -1.71819 80.6186 3.53485 62.4424C3.9707 60.9109 4.34859 59.3638 4.73598 57.8194C5.20374 56.4139 5.79748 55.0902 6.40866 53.7417C6.90941 52.6359 7.39548 51.5245 7.87924 50.4112C8.21387 49.6511 8.54862 48.891 8.88348 48.1309C9.04803 47.7501 9.21259 47.3693 9.38212 46.9769C10.4233 44.6273 11.597 42.6623 13.1441 40.6113C13.4489 40.0959 13.747 39.5765 14.0352 39.0517C14.9612 37.3915 15.9883 35.8762 17.1541 34.3728C17.4482 34.3728 17.7423 34.3728 18.0452 34.3728C18.1693 33.9316 18.1693 33.9316 18.2959 33.4816C19.2212 31.5502 20.6197 30.1519 22.0553 28.5799C22.5948 27.9589 23.1332 27.3369 23.6704 26.7139C25.6496 24.4567 27.7483 22.4528 30.0753 20.5589C30.4601 20.239 30.8449 19.919 31.2414 19.5894C31.6652 19.2384 32.0891 18.8874 32.5258 18.5258C33.1255 18.0287 33.1255 18.0287 33.7372 17.5215C35.0019 16.5284 36.3045 15.646 37.6497 14.766C38.0391 14.4926 38.4286 14.2192 38.8298 13.9374C44.5305 9.98402 50.7056 7.23843 57.2035 4.8634C58.0599 4.54842 58.9114 4.22011 59.7622 3.89037C68.1545 0.814404 77.3909 -0.0230322 86.2711 0.00522197Z" fill="#099B92"/>
<path d="M104.484 2.28889C107.038 2.14776 108.992 2.60731 111.39 3.45861C111.743 3.58118 112.095 3.70375 112.458 3.83003C113.516 4.20149 114.569 4.58133 115.623 4.96254C116.172 5.15555 116.721 5.34855 117.287 5.5474C126.924 9.14575 135.532 14.7288 143.248 21.4501C143.888 21.9797 144.528 22.5089 145.169 23.0375C145.564 23.396 145.959 23.7544 146.366 24.1237C146.366 24.4178 146.366 24.7119 146.366 25.0149C146.62 25.1206 146.873 25.2263 147.134 25.3352C153.896 29.1398 159.344 39.7865 162.852 46.4041C163.013 46.7028 163.175 47.0015 163.341 47.3093C164.763 50.0264 165.793 52.8924 166.862 55.7619C167.046 56.2186 167.231 56.6752 167.421 57.1457C169.373 62.1715 170.353 67.4052 171.318 72.695C171.408 73.1826 171.408 73.1826 171.501 73.68C175.257 94.7219 169.046 117.413 157.227 134.857C152.093 141.899 146.186 148.515 139.238 153.796C138.698 154.213 138.698 154.213 138.148 154.638C129.368 161.244 119.609 166.261 108.94 168.946C108.287 169.117 107.634 169.287 106.982 169.458C98.1563 171.735 89.4913 171.747 80.4241 171.62C80.0746 171.617 79.7251 171.614 79.365 171.61C72.8799 171.52 66.5673 169.882 60.374 168.055C60.374 167.614 60.374 167.173 60.374 166.718C60.7956 166.658 61.2172 166.598 61.6515 166.536C66.5697 165.76 70.9525 164.203 75.5229 162.262C75.8035 162.147 76.084 162.031 76.3731 161.912C78.7698 160.915 80.8957 159.613 83.0974 158.252C83.4323 158.057 83.7671 157.862 84.1121 157.662C85.9693 156.565 87.1355 155.541 88.4441 153.796C88.8944 153.437 89.3447 153.079 89.8086 152.71C91.2181 151.48 91.6574 150.563 92.4541 148.894C92.9578 148.017 93.4685 147.145 93.9857 146.276C94.8774 144.766 95.7276 143.272 96.4641 141.681C97.5002 139.551 98.9651 137.784 100.474 135.971C100.723 135.673 100.972 135.374 101.228 135.066C104.267 131.512 107.62 128.316 111.167 125.277C111.752 124.757 112.337 124.237 112.922 123.717C114.186 122.607 115.484 121.564 116.82 120.542C118.322 119.391 119.649 118.168 120.97 116.81C121.356 116.516 121.742 116.222 122.139 115.919C123.238 115.096 123.238 115.096 123.81 113.969C124.654 112.607 125.629 111.824 126.861 110.821C127.64 110.137 128.263 109.433 128.906 108.622C129.228 108.236 129.549 107.85 129.881 107.452C130.175 107.452 130.469 107.452 130.772 107.452C130.883 107.218 130.994 106.983 131.108 106.741C131.812 105.383 132.611 104.1 133.417 102.801C134.021 101.827 134.625 100.852 135.228 99.8771C135.461 99.5405 135.694 99.2039 135.934 98.8571C139.575 91.8755 139.227 83.8585 137.817 76.3991C137.73 75.9331 137.643 75.4671 137.553 74.987C136.886 71.751 135.777 68.9734 134.336 66.0109C133.915 64.9911 133.497 63.9701 133.083 62.9473C131.937 60.2506 130.545 57.8311 128.969 55.365C127.899 53.6616 126.955 51.9056 126.01 50.1309C125.397 48.9862 125.397 48.9862 124.423 47.6295C123.501 46.1808 123.151 44.9472 122.752 43.2849C122.458 43.2849 122.164 43.2849 121.861 43.2849C121.352 42.5713 121.352 42.5713 120.796 41.5738C120.589 41.2099 120.383 40.846 120.171 40.4711C119.957 40.0854 119.742 39.6996 119.522 39.3022C118.063 36.6981 116.555 34.1727 114.879 31.7022C114.145 30.5943 113.51 29.4507 112.894 28.2734C111.959 26.5205 110.942 24.8804 109.831 23.2325C109.38 22.3439 108.935 21.4521 108.494 20.5588C108.207 20.0088 107.92 19.4594 107.631 18.9104C102.452 8.95769 102.452 8.95768 104.039 3.40291C104.186 3.03529 104.333 2.66766 104.484 2.28889Z" fill="#099B92"/>
</svg>
