<svg width="1779" height="486" viewBox="0 0 1779 486" fill="none" xmlns="http://www.w3.org/2000/svg">
<path d="M956.543 212.172C979.724 212.172 998.517 193.379 998.517 170.198C998.517 147.016 979.724 128.223 956.543 128.223C933.361 128.223 914.568 147.016 914.568 170.198C914.568 193.379 933.361 212.172 956.543 212.172Z" fill="#5894A4"/>
<path d="M982.524 9C920.117 9 869.539 59.5784 869.539 121.985C869.539 184.391 920.117 234.97 982.524 234.97C1044.93 234.97 1095.51 184.391 1095.51 121.985C1095.51 59.5784 1044.93 9 982.524 9ZM961.945 216.736C929.957 216.736 903.998 190.797 903.998 158.788C903.998 126.779 929.936 100.841 961.945 100.841C993.954 100.841 1019.89 126.779 1019.89 158.788C1019.89 190.797 993.954 216.736 961.945 216.736Z" fill="#5894A4"/>
<path d="M14.0209 477.834V277.509H228.937V323.482H57.3978V477.855H14L14.0209 477.834ZM228.958 400.648H110.719C98.7858 400.648 89.0302 390.306 89.0302 377.661C89.0302 365.017 98.7858 354.675 110.719 354.675H228.958V400.648Z" fill="#5894A4"/>
<path d="M256.719 477.834V277.509H471.636V323.482H300.096V431.882H471.636V477.854H256.698L256.719 477.834ZM471.636 400.647H353.396C341.463 400.647 331.708 390.305 331.708 377.661C331.708 365.016 341.463 354.674 353.396 354.674H471.636V400.647Z" fill="#5894A4"/>
<path d="M509.045 277.509H661.91C693.878 277.509 720.046 305.227 720.046 339.078C720.046 370.417 697.646 396.481 668.965 400.187L720.046 477.834H667.144L616.356 400.647H599.671C587.738 400.647 577.983 390.305 577.983 377.661C577.983 365.016 587.759 354.675 599.671 354.675H661.889C669.991 354.675 676.627 347.64 676.627 339.057C676.627 330.474 669.991 323.44 661.889 323.44H548.486V477.813H505.088V277.488H509.024L509.045 277.509Z" fill="#5894A4"/>
<path d="M945.261 277.509V323.482H859.491V477.854H816.093V473.688V323.482H730.323V277.509H945.24H945.261Z" fill="#5894A4"/>
<path d="M968.644 277.509H1004.23H1008.11V477.834H964.708V277.509H968.644Z" fill="#5894A4"/>
<path d="M1155.18 397.444C1204.98 321.744 1166.71 379.922 1234.1 277.509H1286.98L1155.18 477.834L1023.37 277.509H1076.27L1155.18 397.444Z" fill="#5894A4"/>
<path d="M1300.4 277.509H1343.8V417.625C1343.8 425.476 1349.85 431.882 1357.26 431.882H1458.48C1465.89 431.882 1471.94 425.476 1471.94 417.625V277.509H1515.34V418.337C1515.34 451.058 1490.05 477.834 1459.15 477.834H1356.59C1325.69 477.834 1300.4 451.058 1300.4 418.337V277.509Z" fill="#5894A4"/>
<path d="M1549.08 477.834V277.509H1764V323.482H1592.46V431.882H1764V477.854H1549.06L1549.08 477.834ZM1764 400.647H1645.76C1633.83 400.647 1624.07 390.305 1624.07 377.661C1624.07 365.016 1633.83 354.674 1645.76 354.674H1764V400.647Z" fill="#5894A4"/>
</svg>
