<?xml version="1.0" encoding="UTF-8"?>
<svg xmlns="http://www.w3.org/2000/svg" version="1.1" xmlns:xlink="http://www.w3.org/1999/xlink" viewBox="0 0 694.59 625.88">
  <defs>
    <style>
      .cls-1 {
        fill: none;
        stroke: #666;
        stroke-miterlimit: 10;
      }

      .cls-2 {
        fill: url(#linear-gradient-2);
      }

      .cls-3 {
        fill: url(#linear-gradient-4);
      }

      .cls-4 {
        fill: url(#linear-gradient-3);
      }

      .cls-5 {
        fill: url(#linear-gradient-5);
      }

      .cls-6 {
        fill: url(#linear-gradient-8);
      }

      .cls-7 {
        fill: url(#linear-gradient-7);
      }

      .cls-8 {
        fill: url(#linear-gradient-9);
      }

      .cls-9 {
        fill: url(#linear-gradient-6);
      }

      .cls-10 {
        fill: url(#linear-gradient);
      }
    </style>
    <linearGradient id="linear-gradient" x1="270.87" y1="435.15" x2="348.63" y2="308.12" gradientUnits="userSpaceOnUse">
      <stop offset="0" stop-color="#0086e9"/>
      <stop offset="1" stop-color="#122a5f"/>
    </linearGradient>
    <linearGradient id="linear-gradient-2" x1="305.44" y1="456.32" x2="383.2" y2="329.28" xlink:href="#linear-gradient"/>
    <linearGradient id="linear-gradient-3" x1="306.94" y1="527.64" x2="347.17" y2="527.64" xlink:href="#linear-gradient"/>
    <linearGradient id="linear-gradient-4" x1="306.94" y1="527.64" x2="347.17" y2="527.64" xlink:href="#linear-gradient"/>
    <linearGradient id="linear-gradient-5" x1="328.37" y1="208.56" x2="330.49" y2="208.56" xlink:href="#linear-gradient"/>
    <linearGradient id="linear-gradient-6" x1="350.39" y1="529.87" x2="105.91" y2="100.03" xlink:href="#linear-gradient"/>
    <linearGradient id="linear-gradient-7" x1="322.25" y1="486.84" x2="512.4" y2="202.42" xlink:href="#linear-gradient"/>
    <linearGradient id="linear-gradient-8" x1="367.82" y1="508.72" x2="259.52" y2="275.45" xlink:href="#linear-gradient"/>
    <linearGradient id="linear-gradient-9" x1="332.53" y1="280.16" x2="410.02" y2="110.78" xlink:href="#linear-gradient"/>
  </defs>
  <!-- Generator: Adobe Illustrator 28.7.1, SVG Export Plug-In . SVG Version: 1.2.0 Build 142)  -->
  <g>
    <g id="Layer_1">
      <rect class="cls-1" x="-928.06" y="834.05" width="1445.65" height="1024"/>
      <g>
        <path class="cls-10" d="M335.71,335.08c2.29,18.84-5.94,37.25-16.58,52.35-10.56,15.18-25.18,27.88-40,38.83,0,0-11.02-18.23-11.02-18.23,14.78-7.55,29.75-16.71,41.37-28.63,11.03-11.05,20.24-25.04,22.27-40.81.12-1.02.19-2.13.2-3.02l3.76-.5h0Z"/>
        <path class="cls-2" d="M359.12,375.9c2.44,19.06-5.78,37.85-16.49,53.19-10.58,15.37-25.23,28.25-40.11,39.38,0,0-12.58-20.81-12.58-20.81,14.71-7.37,29.65-16.35,41.26-28.08,11.57-11.46,21.5-26.34,22.56-42.98,0,0,5.35-.71,5.35-.71h0Z"/>
        <path class="cls-4" d="M346.87,531.11c-1.91,10.95-12.32,18.26-23.27,16.36-10.95-1.92-18.27-12.34-16.36-23.28,1.91-10.95,12.34-18.26,23.27-16.36,10.95,1.92,18.27,12.34,16.36,23.28Z"/>
        <path class="cls-3" d="M346.87,531.11c-1.91,10.95-12.32,18.26-23.27,16.36-10.95-1.92-18.27-12.34-16.36-23.28,1.91-10.95,12.34-18.26,23.27-16.36,10.95,1.92,18.27,12.34,16.36,23.28Z"/>
        <line class="cls-5" x1="330.49" y1="209.41" x2="328.37" y2="207.71"/>
        <path class="cls-9" d="M293.31,542.36c-103.12-15.24-182.5-104.35-182.5-211.63,0-101.54,71.11-186.78,166.14-208.54-5.37,11.36-8.68,23.14-9.9,34.52-72.92,24.23-125.64,93.08-125.64,174.03,0,90.61,66.06,166.08,152.57,180.76-1.49,3.05-2.57,6.34-3.17,9.82-1.27,7.23-.38,14.49,2.5,21.06Z"/>
        <path class="cls-7" d="M538.69,330.73c0,105.56-76.85,193.51-177.54,210.84.97-2.39,1.71-4.94,2.17-7.58,1.45-8.25.01-16.34-3.59-23.27,84.43-16.37,148.37-90.86,148.37-179.99,0-75.35-45.7-140.23-110.84-168.38,3.87-10.11,6.13-20.39,6.8-30.3,78.81,31.56,134.64,108.72,134.64,198.68Z"/>
        <path class="cls-6" d="M343.6,494.04c-2.33-2.03-4.59-4.09-6.73-6.1h0c-6.05-5.88-12-11.96-17.73-18.22-.07-.07-.14-.15-.21-.24-.08-.1-.13-.14-.13-.14-2.42-2.64-4.78-5.31-7.09-8.02-4.46-5.23-8.75-10.6-12.73-16.09-.4-.54-.82-1.1-1.21-1.64-5.27-7.26-9.29-14.62-12.13-22.27-2.41-6.51-3.95-13.24-4.66-20.33-.33-3.21-.49-6.51-.46-9.89.07-14.81,4.01-29.61,12.53-41.81,5.31-7.62,12.06-14.41,18.44-21.53.95-1.03,1.85-2.06,2.75-3.12,5.24-5.92,10.26-12.8,13.78-20.26,4.21-8.85,6.3-18.51,4.19-28.3-1.78.74-3.76,1.08-5.8.95.68,6.91-1.22,13.57-4.44,19.64-.01,0-.01.01-.01.01-1.54,2.92-3.39,5.7-5.42,8.29-4.06,5.2-9.04,9.83-14.27,14.39-7.38,6.41-15.26,12.61-21.74,19.93-21.95,24.55-27.51,60.64-19.65,92.03,6.41,21.81,19.6,41.07,32.7,59.04,2.53,3.41,5.12,6.76,7.75,10.08,3.81-3.62,8.36-6.4,13.34-8.14,4.62-1.64,9.61-2.36,14.73-2.03,0,0,0,0,0,0,1.36.08,2.72.24,4.08.47,3.6.63,7,1.75,10.11,3.3Z"/>
        <path class="cls-8" d="M337.14,315.17c-3.13-3.7-6.22-7.29-9.1-10.78-2.14-2.61-4.19-5.17-6.05-7.72-2.71-3.67-5.06-7.27-6.91-10.9-10.12-19.33-8.51-41.26.61-60.47,2-4.34,6.76-10.52,10.94-15.52,15.02-2.94,31.03-13.92,43.34-31.45,21.59-30.79,23.62-70.07,4.52-87.76-19.08-17.73-52.07-7.1-73.69,23.67-16.19,23.08-21.38,50.99-14.89,70.96-4.73,7.92-8.2,16.44-10.96,25.31-12.5,39.9-3.37,80.44,27.33,108.87.21.19.42.39.64.58,2.85,2.68,5.73,5.27,8.58,7.82,11.42,10.21,22.52,19.92,30.51,33.27,18.21,28.18,27.12,78.58,5.49,107.06l2.95,2.71c28.37-28.22,25.92-85.09,10.1-119.48-5.6-13-14.32-25.63-23.42-36.16Z"/>
      </g>
    </g>
  </g>
</svg>