<svg width="69" height="73" viewBox="0 0 69 73" fill="none" xmlns="http://www.w3.org/2000/svg">
<path d="M18.7772 37.8008H12.6396C12.5775 37.8008 12.5273 37.8558 12.5273 37.9239V44.0169C12.5273 44.0844 12.5775 44.1395 12.6396 44.1395H18.7772C18.8372 44.1395 18.8884 44.0834 18.8884 44.0169V37.9239C18.8884 37.8569 18.8372 37.8008 18.7772 37.8008Z" fill="#DF7D36"/>
<path d="M12.5273 23.4038V29.4968C12.5273 29.5644 12.5775 29.6194 12.6396 29.6194H18.7772C18.8372 29.6194 18.8884 29.5633 18.8884 29.4968V23.4038C18.8884 23.3374 18.8372 23.2812 18.7772 23.2812H12.6396C12.5775 23.2813 12.5273 23.3363 12.5273 23.4038Z" fill="#DF7D36"/>
<path d="M41.5024 14.5234C41.1342 16.3313 39.5383 17.6927 37.6301 17.6927H16.8961C14.9878 17.6927 13.392 16.3313 13.0239 14.5234H6.95312V65.3654H47.5843V14.5234H41.5024ZM21.1254 58.5358C21.1254 59.8303 20.0653 60.8905 18.782 60.8905H12.6444C11.35 60.8905 10.3009 59.8303 10.3009 58.5358V52.4428C10.3009 51.1483 11.35 50.0882 12.6444 50.0882H18.782C20.0653 50.0882 21.1254 51.1483 21.1254 52.4428V58.5358ZM21.1254 44.0176C21.1254 45.312 20.0653 46.3722 18.782 46.3722H12.6444C11.35 46.3722 10.3009 45.312 10.3009 44.0176V37.9245C10.3009 36.6301 11.35 35.5699 12.6444 35.5699H18.782C20.0653 35.5699 21.1254 36.6301 21.1254 37.9245V44.0176ZM21.1254 29.4993C21.1254 30.7937 20.0653 31.8539 18.782 31.8539H12.6444C11.35 31.8539 10.3009 30.7937 10.3009 29.4993V23.4062C10.3009 22.1118 11.35 21.0516 12.6444 21.0516H18.782C20.0653 21.0516 21.1254 22.1118 21.1254 23.4062V29.4993ZM43.4219 59.6183H37.3512C36.7263 59.6183 36.2352 59.1161 36.2352 58.5024C36.2352 57.8886 36.7263 57.3864 37.3512 57.3864H43.4219C44.0356 57.3864 44.5378 57.8886 44.5378 58.5024C44.5378 59.1161 44.0356 59.6183 43.4219 59.6183ZM43.4219 53.6034H26.6159C25.9909 53.6034 25.4999 53.1012 25.4999 52.4875C25.4999 51.8737 25.9909 51.3715 26.6159 51.3715H43.4219C44.0356 51.3715 44.5378 51.8737 44.5378 52.4875C44.5378 53.1012 44.0356 53.6034 43.4219 53.6034ZM43.4219 45.0888H37.3512C36.7263 45.0888 36.2352 44.5866 36.2352 43.9729C36.2352 43.3591 36.7263 42.8569 37.3512 42.8569H43.4219C44.0356 42.8569 44.5378 43.3591 44.5378 43.9729C44.5378 44.5866 44.0356 45.0888 43.4219 45.0888ZM43.4219 39.0851H26.6159C25.9909 39.0851 25.4999 38.583 25.4999 37.9691C25.4999 37.3442 25.9909 36.8532 26.6159 36.8532H43.4219C44.0356 36.8532 44.5378 37.3442 44.5378 37.9691C44.5378 38.583 44.0356 39.0851 43.4219 39.0851ZM43.4219 30.5705H37.3512C36.7263 30.5705 36.2352 30.0684 36.2352 29.4546C36.2352 28.8408 36.7263 28.3386 37.3512 28.3386H43.4219C44.0356 28.3386 44.5378 28.8408 44.5378 29.4546C44.5378 30.0684 44.0356 30.5705 43.4219 30.5705ZM43.4219 24.5557H26.6159C25.9909 24.5557 25.4999 24.0647 25.4999 23.4397C25.4999 22.8259 25.9909 22.3238 26.6159 22.3238H43.4219C44.0356 22.3238 44.5378 22.8259 44.5378 23.4397C44.5378 24.0647 44.0356 24.5557 43.4219 24.5557Z" fill="#DF7D36"/>
<path d="M18.7772 52.3203H12.6396C12.5775 52.3203 12.5273 52.3753 12.5273 52.4429V58.5364C12.5273 58.604 12.5775 58.659 12.6396 58.659H18.7772C18.8372 58.659 18.8884 58.6029 18.8884 58.5364V52.4429C18.8884 52.3764 18.8372 52.3203 18.7772 52.3203Z" fill="#DF7D36"/>
<path d="M54.2802 11.7004V68.1889C54.2802 70.3204 52.5393 72.0613 50.4079 72.0613H4.13007C1.9986 72.0613 0.257812 70.3204 0.257812 68.1889V11.7004C0.257812 9.56898 1.9986 7.82812 4.13007 7.82812H13.0242C12.9683 8.08477 12.946 8.34141 12.946 8.60922V12.2919H5.83747C5.22365 12.2919 4.72154 12.794 4.72154 13.4078V66.4816C4.72154 67.0953 5.22365 67.5975 5.83747 67.5975H48.7005C49.3142 67.5975 49.8164 67.0953 49.8164 66.4816V13.4078C49.8164 12.794 49.3142 12.2919 48.7005 12.2919H41.5807V8.60923C41.5807 8.34142 41.5584 8.08478 41.5027 7.82814H50.4079C52.5393 7.82813 54.2802 9.56898 54.2802 11.7004Z" fill="#DF7D36"/>
<path d="M68.0973 22.7344H57.3398V56.5796H68.0973V22.7344Z" fill="#DF7D36"/>
<path d="M57.75 58.8125L61.6906 67.2415C61.8804 67.6321 62.2709 67.8887 62.7062 67.8887C63.1414 67.8887 63.532 67.6321 63.7105 67.2415L67.6722 58.8125H57.75Z" fill="#DF7D36"/>
<path d="M68.0968 20.5046V14.4031C68.0968 13.0752 67.0144 12.0039 65.6976 12.0039H59.7273C58.4105 12.0039 57.3281 13.0752 57.3281 14.4031V20.5046H68.0968Z" fill="#DF7D36"/>
<path d="M37.6323 6.89201H34.0947C34.0947 3.10899 31.0371 0.0625 27.2652 0.0625C23.4933 0.0625 20.4357 3.10898 20.4357 6.89201H16.8983C15.9496 6.89201 15.1797 7.66201 15.1797 8.61053V13.7439C15.1797 14.6924 15.9496 15.4624 16.8983 15.4624H37.6323C38.5808 15.4624 39.3507 14.6924 39.3507 13.7439V8.61053C39.3507 7.66201 38.5808 6.89201 37.6323 6.89201ZM27.2652 9.99428C25.5468 9.99428 24.163 8.59936 24.163 6.89201C24.163 5.1735 25.5468 3.77858 27.2652 3.77858C28.9838 3.77858 30.3675 5.1735 30.3675 6.89201C30.3675 8.59936 28.9838 9.99428 27.2652 9.99428Z" fill="#DF7D36"/>
</svg>
