<svg width="96" height="96" viewBox="0 0 96 96" fill="none" xmlns="http://www.w3.org/2000/svg">
<g filter="url(#filter0_d_184_1567)">
<rect x="8" y="8" width="80" height="80" rx="16" fill="#5895A6" shape-rendering="crispEdges"/>
<mask id="path-2-inside-1_184_1567" fill="white">
<path fill-rule="evenodd" clip-rule="evenodd" d="M53.6972 61.8517C53.6971 62.4271 53.7641 63.0004 53.8967 63.56C48.6804 65.0262 42.1098 64.25 38.3274 61.2346C37.8501 60.8644 37.4832 60.3681 37.2672 59.8005C37.0511 59.233 36.9943 58.6161 37.1029 58.0179C37.532 55.5959 38.7049 53.3721 40.4552 51.6623C42.2054 49.9524 44.444 48.8435 46.8531 48.4929C49.2622 48.1424 51.7193 48.568 53.8756 49.7094C56.0318 50.8508 57.7775 52.6499 58.8648 54.8512C57.3721 55.299 56.0625 56.2225 55.1313 57.4841C54.2 58.7456 53.697 60.2776 53.6972 61.8517ZM32.7386 53.9204V46.3654C32.8954 46.3079 33.0346 46.2099 33.1424 46.0812C33.2502 45.9525 33.3229 45.7975 33.3531 45.6317L33.4557 45.0867C32.6144 45.3233 31.7252 45.3233 30.8839 45.0867L30.9865 45.6317C31.0168 45.7975 31.0895 45.9524 31.1973 46.0811C31.3051 46.2098 31.4442 46.3078 31.601 46.3654V53.9204C31.6053 55.2217 32.1047 56.4714 32.9956 57.4106C33.8865 58.3499 35.1007 58.9066 36.3866 58.9654L36.4311 57.82C35.4383 57.7729 34.5014 57.3418 33.8142 56.616C33.1269 55.8902 32.7418 54.9252 32.7386 53.9204ZM36.3396 40.3917V39.1192C34.2788 38.6608 33.3605 38.9717 32.4385 39.2858C31.3772 39.645 30.313 40.0054 28 39.5079V40.3917C28 41.5097 28.4393 42.5819 29.2213 43.3724C30.0033 44.163 31.0639 44.6071 32.1698 44.6071C33.2757 44.6071 34.3363 44.163 35.1183 43.3724C35.9003 42.5819 36.3396 41.5097 36.3396 40.3917ZM28 38.33V37.5154H29.1013C29.1772 37.5175 29.2528 37.5041 29.3236 37.4762C29.3944 37.4482 29.4589 37.4062 29.5133 37.3526C29.5678 37.2991 29.6111 37.235 29.6406 37.1642C29.6701 37.0935 29.6854 37.0174 29.6854 36.9406C29.6854 36.8638 29.6701 36.7878 29.6406 36.717C29.6111 36.6462 29.5678 36.5822 29.5133 36.5286C29.4589 36.475 29.3944 36.433 29.3236 36.4051C29.2528 36.3771 29.1772 36.3638 29.1013 36.3658H28V35.5575H30.0105C30.0865 35.5596 30.1621 35.5462 30.2328 35.5183C30.3036 35.4903 30.3681 35.4483 30.4226 35.3947C30.477 35.3412 30.5203 35.2771 30.5498 35.2063C30.5794 35.1356 30.5946 35.0595 30.5946 34.9827C30.5946 34.9059 30.5794 34.8299 30.5498 34.7591C30.5203 34.6883 30.477 34.6243 30.4226 34.5707C30.3681 34.5171 30.3036 34.4751 30.2328 34.4471C30.1621 34.4192 30.0865 34.4058 30.0105 34.4079H28V33.6H29.1013C29.2521 33.6 29.3968 33.5394 29.5035 33.4316C29.6101 33.3238 29.6701 33.1775 29.6701 33.025C29.6701 32.8725 29.6101 32.7262 29.5035 32.6184C29.3968 32.5106 29.2521 32.45 29.1013 32.45H28.0016C28.0229 31.9561 28.2287 31.4887 28.5775 31.1423C28.9264 30.7958 29.3922 30.5961 29.8811 30.5833V30C29.8826 29.47 30.0915 28.9622 30.4622 28.5875C30.8329 28.2127 31.3352 28.0015 31.8594 28H32.4777C33.0019 28.0015 33.5042 28.2127 33.8749 28.5875C34.2456 28.9622 34.4545 29.47 34.456 30V30.5833C34.9587 30.5964 35.4365 30.8072 35.7877 31.1709C36.1389 31.5346 36.3359 32.0225 36.3367 32.5308V37.9475C34.9253 37.5789 33.4352 37.6664 32.0754 38.1975C31.1336 38.5171 30.1861 38.8379 28 38.33ZM31.0186 30.58H33.321V30C33.3197 29.7748 33.2305 29.5593 33.073 29.4001C32.9154 29.241 32.7021 29.1511 32.4793 29.15H31.8611C31.6382 29.1509 31.4247 29.2407 31.2669 29.3998C31.1092 29.559 31.0199 29.7747 31.0186 30V30.58ZM67 61.8512C67.0001 63.0672 66.6435 64.2559 65.9753 65.267C65.3072 66.2781 64.3575 67.0662 63.2463 67.5317C62.1351 67.9972 60.9123 68.1191 59.7326 67.882C58.5528 67.645 57.4691 67.0596 56.6185 66.1999C55.7678 65.3403 55.1884 64.2449 54.9535 63.0523C54.7186 61.8598 54.8388 60.6236 55.2988 59.5C55.7589 58.3765 56.5382 57.4162 57.5381 56.7403C58.538 56.0645 59.7137 55.7037 60.9166 55.7033C62.5295 55.7034 64.0764 56.3512 65.2169 57.5043C66.3574 58.6573 66.9982 60.2211 66.9983 61.8517L67 61.8512ZM64.6944 61.1612C64.6944 61.0065 64.6336 60.8582 64.5254 60.7488C64.4172 60.6394 64.2704 60.5779 64.1174 60.5779H62.3673C62.3165 60.5777 62.2677 60.5572 62.2318 60.5208C62.1958 60.4844 62.1755 60.4352 62.1753 60.3837V58.6167C62.1753 58.5401 62.1604 58.4642 62.1314 58.3934C62.1024 58.3227 62.0599 58.2584 62.0063 58.2042C61.9527 58.15 61.8891 58.107 61.8191 58.0777C61.7491 58.0484 61.674 58.0333 61.5983 58.0333H60.2348C60.1591 58.0333 60.084 58.0484 60.014 58.0777C59.944 58.107 59.8804 58.15 59.8268 58.2042C59.7732 58.2584 59.7307 58.3227 59.7017 58.3934C59.6727 58.4642 59.6578 58.5401 59.6578 58.6167V60.385C59.6576 60.4364 59.6373 60.4857 59.6013 60.5221C59.5654 60.5584 59.5166 60.5789 59.4658 60.5792H57.7166C57.6408 60.5792 57.5658 60.5943 57.4957 60.6236C57.4257 60.6529 57.3621 60.6959 57.3085 60.75C57.255 60.8042 57.2125 60.8685 57.1835 60.9393C57.1545 61.01 57.1395 61.0859 57.1395 61.1625V62.5417C57.1395 62.6183 57.1545 62.6941 57.1835 62.7649C57.2125 62.8357 57.255 62.9 57.3085 62.9541C57.3621 63.0083 57.4257 63.0513 57.4957 63.0806C57.5658 63.1099 57.6408 63.125 57.7166 63.125H59.4658C59.5167 63.1251 59.5655 63.1456 59.6014 63.182C59.6374 63.2184 59.6577 63.2677 59.6578 63.3192V65.0875C59.6578 65.2422 59.7186 65.3906 59.8268 65.5C59.935 65.6094 60.0818 65.6708 60.2348 65.6708H61.5995C61.6753 65.6708 61.7503 65.6557 61.8203 65.6264C61.8903 65.5971 61.9539 65.5541 62.0075 65.5C62.0611 65.4458 62.1036 65.3815 62.1326 65.3107C62.1616 65.24 62.1765 65.1641 62.1765 65.0875V63.3183C62.1766 63.2669 62.1969 63.2175 62.2329 63.1812C62.2689 63.1448 62.3177 63.1243 62.3686 63.1242H64.1178C64.1936 63.1242 64.2686 63.1091 64.3386 63.0798C64.4086 63.0504 64.4722 63.0075 64.5258 62.9533C64.5794 62.8991 64.6219 62.8348 64.6509 62.7641C64.6799 62.6933 64.6948 62.6174 64.6948 62.5408L64.6944 61.1612ZM51.7415 34.0562C51.8144 34.1862 51.9346 34.2822 52.0764 34.3238C52.2183 34.3655 52.3707 34.3495 52.501 34.2792C52.6314 34.209 52.7295 34.0901 52.7744 33.9478C52.8193 33.8055 52.8075 33.6511 52.7414 33.5175C52.6321 33.3183 52.5762 33.0936 52.5793 32.8657C52.5824 32.6379 52.6444 32.4149 52.7591 32.2187C52.9634 31.8372 53.07 31.4101 53.0692 30.9763C53.0684 30.5425 52.9603 30.1158 52.7546 29.735C52.7239 29.6652 52.6797 29.6023 52.6245 29.5499C52.5694 29.4976 52.5045 29.457 52.4337 29.4304C52.3628 29.4037 52.2874 29.3917 52.2119 29.395C52.1363 29.3982 52.0622 29.4167 51.9938 29.4493C51.9255 29.4819 51.8642 29.528 51.8137 29.5849C51.7632 29.6418 51.7245 29.7083 51.6997 29.7805C51.675 29.8527 51.6648 29.9292 51.6697 30.0054C51.6746 30.0817 51.6945 30.1562 51.7283 30.2246C51.8526 30.4649 51.916 30.7326 51.9129 31.0037C51.9098 31.2749 51.8403 31.541 51.7106 31.7783C51.5145 32.1264 51.4139 32.521 51.4193 32.9215C51.4248 33.322 51.536 33.7138 51.7415 34.0562ZM44.2345 34.0562C44.3073 34.1862 44.4275 34.2822 44.5694 34.3238C44.7113 34.3655 44.8636 34.3495 44.994 34.2792C45.1244 34.209 45.2225 34.0901 45.2674 33.9478C45.3123 33.8055 45.3004 33.6511 45.2344 33.5175C45.125 33.3183 45.0691 33.0936 45.0722 32.8657C45.0753 32.6379 45.1374 32.4149 45.2521 32.2187C45.4564 31.8372 45.563 31.4101 45.5622 30.9763C45.5614 30.5425 45.4532 30.1158 45.2476 29.735C45.2168 29.6652 45.1726 29.6023 45.1175 29.5499C45.0624 29.4976 44.9975 29.457 44.9266 29.4304C44.8558 29.4037 44.7804 29.3917 44.7048 29.395C44.6293 29.3982 44.5552 29.4167 44.4868 29.4493C44.4184 29.4819 44.3572 29.528 44.3067 29.5849C44.2562 29.6418 44.2174 29.7083 44.1927 29.7805C44.168 29.8527 44.1578 29.9292 44.1627 30.0054C44.1676 30.0817 44.1875 30.1562 44.2213 30.2246C44.3452 30.465 44.4083 30.7328 44.405 31.0039C44.4016 31.275 44.3318 31.5411 44.2019 31.7783C44.0059 32.1265 43.9056 32.5212 43.9113 32.9218C43.917 33.3223 44.0286 33.714 44.2345 34.0562ZM47.988 32.6517C48.0222 32.7195 48.0694 32.7797 48.1269 32.8289C48.1844 32.8781 48.251 32.9151 48.3229 32.938C48.3947 32.9608 48.4703 32.9689 48.5453 32.9619C48.6203 32.9548 48.6931 32.9328 48.7596 32.8969C48.826 32.8611 48.8847 32.8123 48.9323 32.7532C48.9799 32.6942 49.0153 32.6262 49.0365 32.5531C49.0578 32.4801 49.0644 32.4035 49.0561 32.3279C49.0477 32.2522 49.0246 32.179 48.9879 32.1125C48.8785 31.9133 48.8226 31.6886 48.8258 31.4607C48.8289 31.2329 48.8909 31.0099 49.0056 30.8137C49.2099 30.4322 49.3165 30.0051 49.3157 29.5713C49.3149 29.1375 49.2067 28.7108 49.0011 28.33C48.9348 28.1959 48.8192 28.0933 48.679 28.0442C48.5389 27.9952 48.3853 28.0035 48.2512 28.0675C48.117 28.1315 48.013 28.246 47.9613 28.3866C47.9097 28.5272 47.9145 28.6826 47.9748 28.8196C48.0991 29.0599 48.1626 29.3277 48.1595 29.5989C48.1564 29.8701 48.0868 30.1363 47.9571 30.3737C47.7608 30.7217 47.6602 31.1164 47.6656 31.517C47.6711 31.9175 47.7824 32.3093 47.988 32.6517ZM48.4908 46.2654C49.5705 46.2654 50.626 45.9417 51.5237 45.3353C52.4214 44.7289 53.1211 43.867 53.5343 42.8586C53.9475 41.8502 54.0556 40.7405 53.845 39.67C53.6343 38.5995 53.1144 37.6161 52.3509 36.8443C51.5875 36.0725 50.6148 35.5469 49.5558 35.334C48.4969 35.121 47.3993 35.2303 46.4017 35.648C45.4042 36.0657 44.5517 36.7731 43.9518 37.6806C43.352 38.5882 43.0318 39.6552 43.0318 40.7467C43.0318 42.2103 43.6069 43.614 44.6307 44.649C45.6545 45.684 47.043 46.2654 48.4908 46.2654Z"/>
</mask>
<path fill-rule="evenodd" clip-rule="evenodd" d="M53.6972 61.8517C53.6971 62.4271 53.7641 63.0004 53.8967 63.56C48.6804 65.0262 42.1098 64.25 38.3274 61.2346C37.8501 60.8644 37.4832 60.3681 37.2672 59.8005C37.0511 59.233 36.9943 58.6161 37.1029 58.0179C37.532 55.5959 38.7049 53.3721 40.4552 51.6623C42.2054 49.9524 44.444 48.8435 46.8531 48.4929C49.2622 48.1424 51.7193 48.568 53.8756 49.7094C56.0318 50.8508 57.7775 52.6499 58.8648 54.8512C57.3721 55.299 56.0625 56.2225 55.1313 57.4841C54.2 58.7456 53.697 60.2776 53.6972 61.8517ZM32.7386 53.9204V46.3654C32.8954 46.3079 33.0346 46.2099 33.1424 46.0812C33.2502 45.9525 33.3229 45.7975 33.3531 45.6317L33.4557 45.0867C32.6144 45.3233 31.7252 45.3233 30.8839 45.0867L30.9865 45.6317C31.0168 45.7975 31.0895 45.9524 31.1973 46.0811C31.3051 46.2098 31.4442 46.3078 31.601 46.3654V53.9204C31.6053 55.2217 32.1047 56.4714 32.9956 57.4106C33.8865 58.3499 35.1007 58.9066 36.3866 58.9654L36.4311 57.82C35.4383 57.7729 34.5014 57.3418 33.8142 56.616C33.1269 55.8902 32.7418 54.9252 32.7386 53.9204ZM36.3396 40.3917V39.1192C34.2788 38.6608 33.3605 38.9717 32.4385 39.2858C31.3772 39.645 30.313 40.0054 28 39.5079V40.3917C28 41.5097 28.4393 42.5819 29.2213 43.3724C30.0033 44.163 31.0639 44.6071 32.1698 44.6071C33.2757 44.6071 34.3363 44.163 35.1183 43.3724C35.9003 42.5819 36.3396 41.5097 36.3396 40.3917ZM28 38.33V37.5154H29.1013C29.1772 37.5175 29.2528 37.5041 29.3236 37.4762C29.3944 37.4482 29.4589 37.4062 29.5133 37.3526C29.5678 37.2991 29.6111 37.235 29.6406 37.1642C29.6701 37.0935 29.6854 37.0174 29.6854 36.9406C29.6854 36.8638 29.6701 36.7878 29.6406 36.717C29.6111 36.6462 29.5678 36.5822 29.5133 36.5286C29.4589 36.475 29.3944 36.433 29.3236 36.4051C29.2528 36.3771 29.1772 36.3638 29.1013 36.3658H28V35.5575H30.0105C30.0865 35.5596 30.1621 35.5462 30.2328 35.5183C30.3036 35.4903 30.3681 35.4483 30.4226 35.3947C30.477 35.3412 30.5203 35.2771 30.5498 35.2063C30.5794 35.1356 30.5946 35.0595 30.5946 34.9827C30.5946 34.9059 30.5794 34.8299 30.5498 34.7591C30.5203 34.6883 30.477 34.6243 30.4226 34.5707C30.3681 34.5171 30.3036 34.4751 30.2328 34.4471C30.1621 34.4192 30.0865 34.4058 30.0105 34.4079H28V33.6H29.1013C29.2521 33.6 29.3968 33.5394 29.5035 33.4316C29.6101 33.3238 29.6701 33.1775 29.6701 33.025C29.6701 32.8725 29.6101 32.7262 29.5035 32.6184C29.3968 32.5106 29.2521 32.45 29.1013 32.45H28.0016C28.0229 31.9561 28.2287 31.4887 28.5775 31.1423C28.9264 30.7958 29.3922 30.5961 29.8811 30.5833V30C29.8826 29.47 30.0915 28.9622 30.4622 28.5875C30.8329 28.2127 31.3352 28.0015 31.8594 28H32.4777C33.0019 28.0015 33.5042 28.2127 33.8749 28.5875C34.2456 28.9622 34.4545 29.47 34.456 30V30.5833C34.9587 30.5964 35.4365 30.8072 35.7877 31.1709C36.1389 31.5346 36.3359 32.0225 36.3367 32.5308V37.9475C34.9253 37.5789 33.4352 37.6664 32.0754 38.1975C31.1336 38.5171 30.1861 38.8379 28 38.33ZM31.0186 30.58H33.321V30C33.3197 29.7748 33.2305 29.5593 33.073 29.4001C32.9154 29.241 32.7021 29.1511 32.4793 29.15H31.8611C31.6382 29.1509 31.4247 29.2407 31.2669 29.3998C31.1092 29.559 31.0199 29.7747 31.0186 30V30.58ZM67 61.8512C67.0001 63.0672 66.6435 64.2559 65.9753 65.267C65.3072 66.2781 64.3575 67.0662 63.2463 67.5317C62.1351 67.9972 60.9123 68.1191 59.7326 67.882C58.5528 67.645 57.4691 67.0596 56.6185 66.1999C55.7678 65.3403 55.1884 64.2449 54.9535 63.0523C54.7186 61.8598 54.8388 60.6236 55.2988 59.5C55.7589 58.3765 56.5382 57.4162 57.5381 56.7403C58.538 56.0645 59.7137 55.7037 60.9166 55.7033C62.5295 55.7034 64.0764 56.3512 65.2169 57.5043C66.3574 58.6573 66.9982 60.2211 66.9983 61.8517L67 61.8512ZM64.6944 61.1612C64.6944 61.0065 64.6336 60.8582 64.5254 60.7488C64.4172 60.6394 64.2704 60.5779 64.1174 60.5779H62.3673C62.3165 60.5777 62.2677 60.5572 62.2318 60.5208C62.1958 60.4844 62.1755 60.4352 62.1753 60.3837V58.6167C62.1753 58.5401 62.1604 58.4642 62.1314 58.3934C62.1024 58.3227 62.0599 58.2584 62.0063 58.2042C61.9527 58.15 61.8891 58.107 61.8191 58.0777C61.7491 58.0484 61.674 58.0333 61.5983 58.0333H60.2348C60.1591 58.0333 60.084 58.0484 60.014 58.0777C59.944 58.107 59.8804 58.15 59.8268 58.2042C59.7732 58.2584 59.7307 58.3227 59.7017 58.3934C59.6727 58.4642 59.6578 58.5401 59.6578 58.6167V60.385C59.6576 60.4364 59.6373 60.4857 59.6013 60.5221C59.5654 60.5584 59.5166 60.5789 59.4658 60.5792H57.7166C57.6408 60.5792 57.5658 60.5943 57.4957 60.6236C57.4257 60.6529 57.3621 60.6959 57.3085 60.75C57.255 60.8042 57.2125 60.8685 57.1835 60.9393C57.1545 61.01 57.1395 61.0859 57.1395 61.1625V62.5417C57.1395 62.6183 57.1545 62.6941 57.1835 62.7649C57.2125 62.8357 57.255 62.9 57.3085 62.9541C57.3621 63.0083 57.4257 63.0513 57.4957 63.0806C57.5658 63.1099 57.6408 63.125 57.7166 63.125H59.4658C59.5167 63.1251 59.5655 63.1456 59.6014 63.182C59.6374 63.2184 59.6577 63.2677 59.6578 63.3192V65.0875C59.6578 65.2422 59.7186 65.3906 59.8268 65.5C59.935 65.6094 60.0818 65.6708 60.2348 65.6708H61.5995C61.6753 65.6708 61.7503 65.6557 61.8203 65.6264C61.8903 65.5971 61.9539 65.5541 62.0075 65.5C62.0611 65.4458 62.1036 65.3815 62.1326 65.3107C62.1616 65.24 62.1765 65.1641 62.1765 65.0875V63.3183C62.1766 63.2669 62.1969 63.2175 62.2329 63.1812C62.2689 63.1448 62.3177 63.1243 62.3686 63.1242H64.1178C64.1936 63.1242 64.2686 63.1091 64.3386 63.0798C64.4086 63.0504 64.4722 63.0075 64.5258 62.9533C64.5794 62.8991 64.6219 62.8348 64.6509 62.7641C64.6799 62.6933 64.6948 62.6174 64.6948 62.5408L64.6944 61.1612ZM51.7415 34.0562C51.8144 34.1862 51.9346 34.2822 52.0764 34.3238C52.2183 34.3655 52.3707 34.3495 52.501 34.2792C52.6314 34.209 52.7295 34.0901 52.7744 33.9478C52.8193 33.8055 52.8075 33.6511 52.7414 33.5175C52.6321 33.3183 52.5762 33.0936 52.5793 32.8657C52.5824 32.6379 52.6444 32.4149 52.7591 32.2187C52.9634 31.8372 53.07 31.4101 53.0692 30.9763C53.0684 30.5425 52.9603 30.1158 52.7546 29.735C52.7239 29.6652 52.6797 29.6023 52.6245 29.5499C52.5694 29.4976 52.5045 29.457 52.4337 29.4304C52.3628 29.4037 52.2874 29.3917 52.2119 29.395C52.1363 29.3982 52.0622 29.4167 51.9938 29.4493C51.9255 29.4819 51.8642 29.528 51.8137 29.5849C51.7632 29.6418 51.7245 29.7083 51.6997 29.7805C51.675 29.8527 51.6648 29.9292 51.6697 30.0054C51.6746 30.0817 51.6945 30.1562 51.7283 30.2246C51.8526 30.4649 51.916 30.7326 51.9129 31.0037C51.9098 31.2749 51.8403 31.541 51.7106 31.7783C51.5145 32.1264 51.4139 32.521 51.4193 32.9215C51.4248 33.322 51.536 33.7138 51.7415 34.0562ZM44.2345 34.0562C44.3073 34.1862 44.4275 34.2822 44.5694 34.3238C44.7113 34.3655 44.8636 34.3495 44.994 34.2792C45.1244 34.209 45.2225 34.0901 45.2674 33.9478C45.3123 33.8055 45.3004 33.6511 45.2344 33.5175C45.125 33.3183 45.0691 33.0936 45.0722 32.8657C45.0753 32.6379 45.1374 32.4149 45.2521 32.2187C45.4564 31.8372 45.563 31.4101 45.5622 30.9763C45.5614 30.5425 45.4532 30.1158 45.2476 29.735C45.2168 29.6652 45.1726 29.6023 45.1175 29.5499C45.0624 29.4976 44.9975 29.457 44.9266 29.4304C44.8558 29.4037 44.7804 29.3917 44.7048 29.395C44.6293 29.3982 44.5552 29.4167 44.4868 29.4493C44.4184 29.4819 44.3572 29.528 44.3067 29.5849C44.2562 29.6418 44.2174 29.7083 44.1927 29.7805C44.168 29.8527 44.1578 29.9292 44.1627 30.0054C44.1676 30.0817 44.1875 30.1562 44.2213 30.2246C44.3452 30.465 44.4083 30.7328 44.405 31.0039C44.4016 31.275 44.3318 31.5411 44.2019 31.7783C44.0059 32.1265 43.9056 32.5212 43.9113 32.9218C43.917 33.3223 44.0286 33.714 44.2345 34.0562ZM47.988 32.6517C48.0222 32.7195 48.0694 32.7797 48.1269 32.8289C48.1844 32.8781 48.251 32.9151 48.3229 32.938C48.3947 32.9608 48.4703 32.9689 48.5453 32.9619C48.6203 32.9548 48.6931 32.9328 48.7596 32.8969C48.826 32.8611 48.8847 32.8123 48.9323 32.7532C48.9799 32.6942 49.0153 32.6262 49.0365 32.5531C49.0578 32.4801 49.0644 32.4035 49.0561 32.3279C49.0477 32.2522 49.0246 32.179 48.9879 32.1125C48.8785 31.9133 48.8226 31.6886 48.8258 31.4607C48.8289 31.2329 48.8909 31.0099 49.0056 30.8137C49.2099 30.4322 49.3165 30.0051 49.3157 29.5713C49.3149 29.1375 49.2067 28.7108 49.0011 28.33C48.9348 28.1959 48.8192 28.0933 48.679 28.0442C48.5389 27.9952 48.3853 28.0035 48.2512 28.0675C48.117 28.1315 48.013 28.246 47.9613 28.3866C47.9097 28.5272 47.9145 28.6826 47.9748 28.8196C48.0991 29.0599 48.1626 29.3277 48.1595 29.5989C48.1564 29.8701 48.0868 30.1363 47.9571 30.3737C47.7608 30.7217 47.6602 31.1164 47.6656 31.517C47.6711 31.9175 47.7824 32.3093 47.988 32.6517ZM48.4908 46.2654C49.5705 46.2654 50.626 45.9417 51.5237 45.3353C52.4214 44.7289 53.1211 43.867 53.5343 42.8586C53.9475 41.8502 54.0556 40.7405 53.845 39.67C53.6343 38.5995 53.1144 37.6161 52.3509 36.8443C51.5875 36.0725 50.6148 35.5469 49.5558 35.334C48.4969 35.121 47.3993 35.2303 46.4017 35.648C45.4042 36.0657 44.5517 36.7731 43.9518 37.6806C43.352 38.5882 43.0318 39.6552 43.0318 40.7467C43.0318 42.2103 43.6069 43.614 44.6307 44.649C45.6545 45.684 47.043 46.2654 48.4908 46.2654Z" fill="white" stroke="#5895A6" stroke-width="0.2" mask="url(#path-2-inside-1_184_1567)"/>
</g>
<defs>
<filter id="filter0_d_184_1567" x="0" y="0" width="96" height="96" filterUnits="userSpaceOnUse" color-interpolation-filters="sRGB">
<feFlood flood-opacity="0" result="BackgroundImageFix"/>
<feColorMatrix in="SourceAlpha" type="matrix" values="0 0 0 0 0 0 0 0 0 0 0 0 0 0 0 0 0 0 127 0" result="hardAlpha"/>
<feOffset/>
<feGaussianBlur stdDeviation="4"/>
<feComposite in2="hardAlpha" operator="out"/>
<feColorMatrix type="matrix" values="0 0 0 0 1 0 0 0 0 1 0 0 0 0 1 0 0 0 0.16 0"/>
<feBlend mode="normal" in2="BackgroundImageFix" result="effect1_dropShadow_184_1567"/>
<feBlend mode="normal" in="SourceGraphic" in2="effect1_dropShadow_184_1567" result="shape"/>
</filter>
</defs>
</svg>
