<svg width="16" height="17" viewBox="0 0 16 17" fill="none" xmlns="http://www.w3.org/2000/svg">
<path d="M9.23309 2.93636L9.23336 2.93655L13.0733 5.62315C13.3592 5.82328 13.6393 6.15938 13.8484 6.55993C14.0575 6.96048 14.1733 7.3828 14.1733 7.73354V12.2535C14.1733 13.6774 13.0172 14.8335 11.5933 14.8335H4.40666C2.98421 14.8335 1.82666 13.6721 1.82666 12.2469V7.64687C1.82666 7.32243 1.93121 6.92169 2.1219 6.5344C2.31245 6.14738 2.56773 5.81708 2.82751 5.61445L2.82762 5.61437L6.16624 3.00878C6.16646 3.0086 6.16668 3.00843 6.1669 3.00826C7.00041 2.36297 8.36614 2.32895 9.23309 2.93636ZM8.80472 8.98171L8.33638 9.45005L7.99998 8.94875C7.83688 8.68977 7.5665 8.54237 7.2874 8.51579C7.00178 8.48859 6.72057 8.58585 6.51311 8.79332L4.52644 10.78L4.52638 10.7799L4.52007 10.7865C4.15677 11.1632 4.14771 11.7684 4.52644 12.1471L4.87999 11.7935L4.52644 12.1471C4.71173 12.3324 4.96108 12.4269 5.20666 12.4269C5.44642 12.4269 5.69107 12.3429 5.88688 12.1471L7.04361 10.9904L7.38294 11.496C7.53549 11.729 7.79399 11.8954 8.08357 11.9244L8.08592 11.9246C8.37154 11.9518 8.65275 11.8546 8.86021 11.6471L10.1652 10.3421C10.3329 10.4826 10.5494 10.5669 10.7867 10.5669C11.3228 10.5669 11.7533 10.1363 11.7533 9.6002V8.3602C11.7533 8.26473 11.7432 8.12966 11.6798 7.98371C11.5816 7.74991 11.3916 7.56112 11.157 7.46453L11.1411 7.45797L11.1248 7.45253C11.0357 7.42283 10.9194 7.39354 10.7867 7.39354H9.54666C9.01052 7.39354 8.57999 7.82406 8.57999 8.3602C8.57999 8.59743 8.66428 8.81398 8.80472 8.98171Z" fill="#46A65B" stroke="#46A65B"/>
</svg>
