<svg width="48" height="48" viewBox="0 0 48 48" fill="none" xmlns="http://www.w3.org/2000/svg">
<rect width="48" height="48" rx="6" fill="#E5E5E5"/>
<path d="M14 21.98V21C14 16 16 14 21 14H27C32 14 34 16 34 21V27C34 32 32 34 27 34H26" stroke="#232323" stroke-width="1.5" stroke-linecap="round" stroke-linejoin="round"/>
<path d="M25 23.0005L30.01 17.9805H26" stroke="#232323" stroke-width="1.5" stroke-linecap="round" stroke-linejoin="round"/>
<path d="M30.01 17.9805V21.9905" stroke="#232323" stroke-width="1.5" stroke-linecap="round" stroke-linejoin="round"/>
<path d="M23 28.15V30.85C23 33.1 22.1 34 19.85 34H17.15C14.9 34 14 33.1 14 30.85V28.15C14 25.9 14.9 25 17.15 25H19.85C22.1 25 23 25.9 23 28.15Z" stroke="#232323" stroke-width="1.5" stroke-linecap="round" stroke-linejoin="round"/>
</svg>
