<svg width="96" height="96" viewBox="0 0 96 96" fill="none" xmlns="http://www.w3.org/2000/svg">
<g filter="url(#filter0_d_246_3808)">
<rect x="8" y="8" width="80" height="80" rx="16" fill="#5895A6" shape-rendering="crispEdges"/>
<path d="M54.3333 36.7467V34.6667C54.3333 34.12 53.88 33.6667 53.3333 33.6667C52.7866 33.6667 52.3333 34.12 52.3333 34.6667V36.6667H43.6666V34.6667C43.6666 34.12 43.2133 33.6667 42.6666 33.6667C42.12 33.6667 41.6666 34.12 41.6666 34.6667V36.7467C38.0666 37.08 36.32 39.2267 36.0533 42.4133C36.0266 42.8 36.3466 43.12 36.72 43.12H59.28C59.6666 43.12 59.9866 42.7867 59.9466 42.4133C59.68 39.2267 57.9333 37.08 54.3333 36.7467Z" fill="white"/>
<path d="M58.6667 45.12H37.3333C36.6 45.12 36 45.72 36 46.4533V54.6667C36 58.6667 38 61.3333 42.6667 61.3333H49.24C50.16 61.3333 50.8 60.44 50.5067 59.5733C50.24 58.8 50.0133 57.9467 50.0133 57.3333C50.0133 53.2933 53.3067 50 57.3467 50C57.7333 50 58.12 50.0267 58.4933 50.0933C59.2933 50.2133 60.0133 49.5867 60.0133 48.7867V46.4667C60 45.72 59.4 45.12 58.6667 45.12ZM44.28 55.6133C44.1467 55.7333 44 55.8267 43.84 55.8933C43.68 55.96 43.5067 56 43.3333 56C43.16 56 42.9867 55.96 42.8267 55.8933C42.6667 55.8267 42.52 55.7333 42.3867 55.6133C42.1467 55.36 42 55.0133 42 54.6667C42 54.5867 42.0133 54.4933 42.0267 54.4133C42.04 54.32 42.0667 54.24 42.1067 54.16C42.1333 54.08 42.1733 54 42.2267 53.92C42.2667 53.8533 42.3333 53.7867 42.3867 53.72C42.52 53.6 42.6667 53.5067 42.8267 53.44C43.1467 53.3067 43.52 53.3067 43.84 53.44C44 53.5067 44.1467 53.6 44.28 53.72C44.3333 53.7867 44.4 53.8533 44.44 53.92C44.4933 54 44.5333 54.08 44.56 54.16C44.6 54.24 44.6267 54.32 44.64 54.4133C44.6533 54.4933 44.6667 54.5867 44.6667 54.6667C44.6667 55.0133 44.52 55.36 44.28 55.6133ZM44.28 50.9467C44.1467 51.0667 44 51.16 43.84 51.2267C43.68 51.2933 43.5067 51.3333 43.3333 51.3333C43.16 51.3333 42.9867 51.2933 42.8267 51.2267C42.6533 51.16 42.52 51.0667 42.3867 50.9467C42.1467 50.6933 42 50.3467 42 50C42 49.6533 42.1467 49.3067 42.3867 49.0533C42.52 48.9333 42.6667 48.84 42.8267 48.7733C43.1467 48.64 43.52 48.64 43.84 48.7733C44 48.84 44.1467 48.9333 44.28 49.0533C44.3333 49.12 44.4 49.1867 44.44 49.2533C44.4933 49.3333 44.5333 49.4133 44.56 49.4933C44.6 49.5733 44.6267 49.6533 44.64 49.7333C44.6533 49.8267 44.6667 49.92 44.6667 50C44.6667 50.3467 44.52 50.6933 44.28 50.9467ZM48.9467 50.9467C48.6933 51.1867 48.36 51.3333 48 51.3333C47.8267 51.3333 47.6533 51.2933 47.4933 51.2267C47.32 51.16 47.1867 51.0667 47.0533 50.9467C46.8133 50.6933 46.6667 50.3467 46.6667 50C46.6667 49.92 46.68 49.8267 46.6933 49.7333C46.7067 49.6533 46.7333 49.5733 46.7733 49.4933C46.8 49.4133 46.84 49.3333 46.8933 49.2533C46.9467 49.1867 47 49.12 47.0533 49.0533C47.5467 48.56 48.44 48.56 48.9467 49.0533C49 49.12 49.0533 49.1867 49.1067 49.2533C49.16 49.3333 49.2 49.4133 49.2267 49.4933C49.2667 49.5733 49.2933 49.6533 49.3067 49.7333C49.32 49.8267 49.3333 49.92 49.3333 50C49.3333 50.3467 49.1867 50.6933 48.9467 50.9467Z" fill="white"/>
<path d="M61.1067 53.56C59.0267 51.48 55.64 51.48 53.56 53.56C51.48 55.64 51.48 59.0267 53.56 61.1067C55.64 63.1867 59.0267 63.1867 61.1067 61.1067C63.1867 59.0267 63.1867 55.64 61.1067 53.56ZM60.0933 58.08C59.92 58.2667 59.6667 58.3733 59.3867 58.3733H58.4V59.4133C58.4 59.6933 58.2933 59.9333 58.1067 60.12C57.92 60.3067 57.68 60.4133 57.4 60.4133C56.8533 60.4133 56.4 59.96 56.4 59.4133V58.3733H55.4C54.8533 58.3733 54.4 57.9333 54.4 57.3733C54.4 56.8267 54.8533 56.3733 55.4 56.3733H56.4V55.4267C56.4 54.88 56.84 54.4267 57.4 54.4267C57.9467 54.4267 58.4 54.88 58.4 55.4267V56.3733H59.3867C59.9467 56.3733 60.3867 56.8267 60.3867 57.3733C60.3867 57.6533 60.28 57.9067 60.0933 58.08Z" fill="white"/>
</g>
<defs>
<filter id="filter0_d_246_3808" x="0" y="0" width="96" height="96" filterUnits="userSpaceOnUse" color-interpolation-filters="sRGB">
<feFlood flood-opacity="0" result="BackgroundImageFix"/>
<feColorMatrix in="SourceAlpha" type="matrix" values="0 0 0 0 0 0 0 0 0 0 0 0 0 0 0 0 0 0 127 0" result="hardAlpha"/>
<feOffset/>
<feGaussianBlur stdDeviation="4"/>
<feComposite in2="hardAlpha" operator="out"/>
<feColorMatrix type="matrix" values="0 0 0 0 1 0 0 0 0 1 0 0 0 0 1 0 0 0 0.16 0"/>
<feBlend mode="normal" in2="BackgroundImageFix" result="effect1_dropShadow_246_3808"/>
<feBlend mode="normal" in="SourceGraphic" in2="effect1_dropShadow_246_3808" result="shape"/>
</filter>
</defs>
</svg>
