<svg width="80" height="80" viewBox="0 0 80 80" fill="none" xmlns="http://www.w3.org/2000/svg">
<path d="M0 16C0 7.16344 7.16344 0 16 0H64C72.8366 0 80 7.16344 80 16V64C80 72.8366 72.8366 80 64 80H16C7.16344 80 0 72.8366 0 64V16Z" fill="#F6F9FB"/>
<path d="M46.3333 28.7467V26.6667C46.3333 26.12 45.88 25.6667 45.3333 25.6667C44.7866 25.6667 44.3333 26.12 44.3333 26.6667V28.6667H35.6666V26.6667C35.6666 26.12 35.2133 25.6667 34.6666 25.6667C34.12 25.6667 33.6666 26.12 33.6666 26.6667V28.7467C30.0666 29.08 28.32 31.2267 28.0533 34.4133C28.0266 34.8 28.3466 35.12 28.72 35.12H51.28C51.6666 35.12 51.9866 34.7867 51.9466 34.4133C51.68 31.2267 49.9333 29.08 46.3333 28.7467Z" fill="#5895A6"/>
<path d="M50.6667 37.12H29.3333C28.6 37.12 28 37.72 28 38.4533V46.6667C28 50.6667 30 53.3333 34.6667 53.3333H41.24C42.16 53.3333 42.8 52.44 42.5067 51.5733C42.24 50.8 42.0133 49.9467 42.0133 49.3333C42.0133 45.2933 45.3067 42 49.3467 42C49.7333 42 50.12 42.0267 50.4933 42.0933C51.2933 42.2133 52.0133 41.5867 52.0133 40.7867V38.4667C52 37.72 51.4 37.12 50.6667 37.12ZM36.28 47.6133C36.1467 47.7333 36 47.8267 35.84 47.8933C35.68 47.96 35.5067 48 35.3333 48C35.16 48 34.9867 47.96 34.8267 47.8933C34.6667 47.8267 34.52 47.7333 34.3867 47.6133C34.1467 47.36 34 47.0133 34 46.6667C34 46.5867 34.0133 46.4933 34.0267 46.4133C34.04 46.32 34.0667 46.24 34.1067 46.16C34.1333 46.08 34.1733 46 34.2267 45.92C34.2667 45.8533 34.3333 45.7867 34.3867 45.72C34.52 45.6 34.6667 45.5067 34.8267 45.44C35.1467 45.3067 35.52 45.3067 35.84 45.44C36 45.5067 36.1467 45.6 36.28 45.72C36.3333 45.7867 36.4 45.8533 36.44 45.92C36.4933 46 36.5333 46.08 36.56 46.16C36.6 46.24 36.6267 46.32 36.64 46.4133C36.6533 46.4933 36.6667 46.5867 36.6667 46.6667C36.6667 47.0133 36.52 47.36 36.28 47.6133ZM36.28 42.9467C36.1467 43.0667 36 43.16 35.84 43.2267C35.68 43.2933 35.5067 43.3333 35.3333 43.3333C35.16 43.3333 34.9867 43.2933 34.8267 43.2267C34.6533 43.16 34.52 43.0667 34.3867 42.9467C34.1467 42.6933 34 42.3467 34 42C34 41.6533 34.1467 41.3067 34.3867 41.0533C34.52 40.9333 34.6667 40.84 34.8267 40.7733C35.1467 40.64 35.52 40.64 35.84 40.7733C36 40.84 36.1467 40.9333 36.28 41.0533C36.3333 41.12 36.4 41.1867 36.44 41.2533C36.4933 41.3333 36.5333 41.4133 36.56 41.4933C36.6 41.5733 36.6267 41.6533 36.64 41.7333C36.6533 41.8267 36.6667 41.92 36.6667 42C36.6667 42.3467 36.52 42.6933 36.28 42.9467ZM40.9467 42.9467C40.6933 43.1867 40.36 43.3333 40 43.3333C39.8267 43.3333 39.6533 43.2933 39.4933 43.2267C39.32 43.16 39.1867 43.0667 39.0533 42.9467C38.8133 42.6933 38.6667 42.3467 38.6667 42C38.6667 41.92 38.68 41.8267 38.6933 41.7333C38.7067 41.6533 38.7333 41.5733 38.7733 41.4933C38.8 41.4133 38.84 41.3333 38.8933 41.2533C38.9467 41.1867 39 41.12 39.0533 41.0533C39.5467 40.56 40.44 40.56 40.9467 41.0533C41 41.12 41.0533 41.1867 41.1067 41.2533C41.16 41.3333 41.2 41.4133 41.2267 41.4933C41.2667 41.5733 41.2933 41.6533 41.3067 41.7333C41.32 41.8267 41.3333 41.92 41.3333 42C41.3333 42.3467 41.1867 42.6933 40.9467 42.9467Z" fill="#5895A6"/>
<path d="M53.1067 45.56C51.0267 43.48 47.64 43.48 45.56 45.56C43.48 47.64 43.48 51.0267 45.56 53.1067C47.64 55.1867 51.0267 55.1867 53.1067 53.1067C55.1867 51.0267 55.1867 47.64 53.1067 45.56ZM52.0933 50.08C51.92 50.2667 51.6667 50.3733 51.3867 50.3733H50.4V51.4133C50.4 51.6933 50.2933 51.9333 50.1067 52.12C49.92 52.3067 49.68 52.4133 49.4 52.4133C48.8533 52.4133 48.4 51.96 48.4 51.4133V50.3733H47.4C46.8533 50.3733 46.4 49.9333 46.4 49.3733C46.4 48.8267 46.8533 48.3733 47.4 48.3733H48.4V47.4267C48.4 46.88 48.84 46.4267 49.4 46.4267C49.9467 46.4267 50.4 46.88 50.4 47.4267V48.3733H51.3867C51.9467 48.3733 52.3867 48.8267 52.3867 49.3733C52.3867 49.6533 52.28 49.9067 52.0933 50.08Z" fill="#5895A6"/>
</svg>
