<svg width="48" height="48" viewBox="0 0 48 48" fill="none" xmlns="http://www.w3.org/2000/svg">
<rect width="48" height="48" rx="6" fill="#E5E5E5"/>
<path d="M33.93 18.76L30.56 32.29C30.32 33.3 29.42 34 28.38 34H15.24C13.73 34 12.65 32.5199 13.1 31.0699L17.31 17.55C17.6 16.61 18.47 15.96 19.45 15.96H31.75C32.7 15.96 33.49 16.54 33.82 17.34C34.01 17.77 34.05 18.26 33.93 18.76Z" stroke="#292D32" stroke-width="1.5" stroke-miterlimit="10"/>
<path d="M28 34H32.78C34.07 34 35.08 32.91 34.99 31.62L34 18" stroke="#292D32" stroke-width="1.5" stroke-miterlimit="10" stroke-linecap="round" stroke-linejoin="round"/>
<path d="M21.68 18.3805L22.72 14.0605" stroke="#292D32" stroke-width="1.5" stroke-miterlimit="10" stroke-linecap="round" stroke-linejoin="round"/>
<path d="M28.38 18.3898L29.32 14.0498" stroke="#292D32" stroke-width="1.5" stroke-miterlimit="10" stroke-linecap="round" stroke-linejoin="round"/>
<path d="M19.7 24H27.7" stroke="#292D32" stroke-width="1.5" stroke-miterlimit="10" stroke-linecap="round" stroke-linejoin="round"/>
<path d="M18.7 28H26.7" stroke="#292D32" stroke-width="1.5" stroke-miterlimit="10" stroke-linecap="round" stroke-linejoin="round"/>
</svg>
