<svg width="60" height="60" viewBox="0 0 60 60" fill="none" xmlns="http://www.w3.org/2000/svg">
<path d="M27.0768 3.23319C23.7506 3.82823 20.4703 5.59808 18.319 7.96298C16.6865 9.74809 16.4118 10.5262 17.2968 10.8466C17.7087 10.9839 17.7698 10.9534 18.2122 10.3889C18.4563 10.0532 19.265 9.19882 19.9821 8.48173C21.5841 6.89496 23.1403 5.949 25.4137 5.18613C26.9242 4.66738 27.2598 4.60635 29.1518 4.54532C30.7233 4.49955 31.5319 4.54532 32.4931 4.72841C35.9108 5.43025 38.9165 7.36794 41.2814 10.3889C41.7238 10.9534 41.7849 10.9839 42.1968 10.8466C42.9292 10.5872 42.8681 10.0227 41.9832 8.89368C38.4435 4.46904 32.6152 2.24146 27.0768 3.23319Z" fill="black"/>
<path d="M28.3735 7.27631C26.9546 7.4594 25.1084 8.06969 23.9489 8.74101C23.3996 9.06142 22.3621 9.91583 21.6298 10.6482C20.5617 11.7009 20.2871 12.0519 20.2871 12.4028C20.2871 12.9063 20.5312 13.2114 20.9279 13.2114C21.0805 13.2114 21.8434 12.5706 22.6215 11.7772C23.781 10.6024 24.254 10.2515 25.322 9.71749C28.2667 8.28329 31.2266 8.28329 34.1713 9.71749C35.2393 10.2362 35.7276 10.6024 36.8871 11.7772C38.2756 13.1809 38.657 13.3945 39.0232 13.0283C39.4504 12.6011 39.2215 12.0519 38.184 10.9381C36.1853 8.77153 33.9425 7.62723 30.9673 7.26105C30.2654 7.18476 29.6094 7.12373 29.5178 7.12373C29.4415 7.13899 28.9228 7.20002 28.3735 7.27631Z" fill="black"/>
<path d="M27.5805 11.8229C26.3446 12.2196 25.5207 12.7536 24.59 13.7148C23.7508 14.615 23.7051 14.7371 23.9492 15.21C24.2391 15.7441 24.8341 15.5762 25.6733 14.7218C26.1463 14.2336 26.8481 13.7453 27.4431 13.4554C28.3128 13.0588 28.618 12.9977 29.747 12.9977C30.876 12.9977 31.1812 13.0588 32.0509 13.4554C32.6459 13.7453 33.3477 14.2336 33.8207 14.7218C34.3547 15.2558 34.7056 15.4999 34.9803 15.4999C35.3617 15.4999 35.6974 15.1338 35.6974 14.7371C35.6974 14.4472 34.1411 12.9062 33.4393 12.4942C31.8067 11.533 29.3656 11.2584 27.5805 11.8229Z" fill="black"/>
<path d="M26.4665 16.9647C23.2319 17.5902 19.5396 19.1922 19.0972 20.1534C18.9751 20.4128 18.9141 21.6029 18.9141 23.7847C18.9141 26.8514 18.9293 27.0498 19.265 27.6296C19.8295 28.6213 20.5313 28.9264 22.3927 28.9264H23.949V29.3384C23.949 29.5825 23.8727 33.0459 23.7812 37.0586C23.6896 41.056 23.6591 44.5805 23.7049 44.8704C23.9032 45.8621 25.3374 47.0827 26.3139 47.0827C26.6801 47.0827 26.6953 47.1132 26.6953 48.105C26.6953 48.7763 26.8021 49.3561 26.9852 49.7527C27.2904 50.4393 28.0532 51.1564 28.6178 51.2937L28.9839 51.3853V53.9485C28.9839 56.6796 29.0602 57 29.7468 57C30.4334 57 30.5097 56.6796 30.5097 53.9485V51.3853L30.8758 51.2937C31.4404 51.1564 32.2032 50.4393 32.5084 49.7527C32.6915 49.3561 32.7983 48.7763 32.7983 48.105C32.7983 47.1132 32.8135 47.0827 33.1797 47.0827C34.202 47.0827 35.5904 45.9079 35.7887 44.8856C35.8345 44.5805 35.804 40.934 35.7124 36.7687C35.6209 32.6187 35.5751 29.1553 35.6209 29.0637C35.6819 28.9875 36.3685 28.9264 37.1619 28.9264C38.8249 28.9264 39.5573 28.6518 40.1523 27.8279C40.488 27.3397 40.5032 27.2023 40.549 23.8762L40.5948 20.4281L40.1828 19.9398C39.3742 18.9634 35.5904 17.4224 32.844 16.9494C31.242 16.6748 27.9312 16.6748 26.4665 16.9647ZM33.4086 18.5362C34.9648 18.8871 36.2617 19.3601 37.9553 20.2145L39.2064 20.84V21.9843V23.1286H29.7468H20.2872V21.9843V20.84L21.0959 20.3823C22.6826 19.4669 25.49 18.5362 27.5345 18.2615C29.0144 18.0479 31.8523 18.1852 33.4086 18.5362ZM39.2064 25.6308C39.2064 26.4547 39.1453 26.6989 38.8402 27.0498L38.474 27.477H29.7468H21.0196L20.6534 27.0498C20.3483 26.6989 20.2872 26.4547 20.2872 25.6308V24.6544H29.7468H39.2064V25.6308ZM34.0952 29.1095C34.2172 29.5062 34.4003 44.1228 34.2782 44.5958C34.0494 45.5265 33.8968 45.557 29.701 45.557H25.9172L25.5205 45.1603L25.1238 44.7636L25.2306 37.6537C25.2916 33.7325 25.3679 30.1623 25.4137 29.7198L25.5052 28.9264H29.7621C33.0424 28.9264 34.0494 28.9722 34.0952 29.1095ZM31.3336 48.0287C31.3183 49.0662 31.0132 49.6154 30.2655 49.9206C29.8231 50.1037 29.6705 50.1037 29.228 49.9206C28.511 49.6307 28.2363 49.1425 28.2058 48.1507C28.1905 47.693 28.1905 47.2505 28.2058 47.1895C28.2058 47.1285 28.9229 47.098 29.7926 47.1132L31.3488 47.159L31.3336 48.0287Z" fill="black"/>
<path d="M28.2512 37.3482C27.9918 37.6076 27.9918 43.1308 28.2512 43.3902C28.358 43.497 28.9225 43.5732 29.7464 43.5732C30.5703 43.5732 31.1348 43.497 31.2416 43.3902C31.501 43.1308 31.501 37.6076 31.2416 37.3482C30.9975 37.1041 28.4953 37.1041 28.2512 37.3482Z" fill="black"/>
</svg>
